<svg xmlns="http://www.w3.org/2000/svg" viewBox="0 0 200 200"><g fill="#212121"><path d="M88.888 183.259c-.284.41-.504.945-.882 1.197-1.89 1.323-3.781 2.678-5.829 3.749a149.199 149.199 0 0 0-3.844 2.111c-1.449.851-2.079.756-3.182-.504-.063-.063-.095-.126-.158-.189-.725-.819-1.386-1.512-2.709-.851-.977.504-2.111.756-3.34.504-.378-.095-.945.378-1.323.725-1.103 1.04-2.205 1.953-3.844 1.827a.523.523 0 0 0-.347.126c-1.418 1.166-3.025 1.985-4.789 2.394-.221.063-.536-.031-.756-.158-.473-.252-.945-.536-1.418-.819-.063.063-.126.158-.189.221l.851.567c-.063.095-.126.158-.189.252-1.04-.158-2.111-.126-2.773-1.418-.378 1.922-2.205 2.079-3.34 3.025-.693.567-1.575.41-2.142-.284-1.386-1.764-3.371-2.457-5.324-3.308a.784.784 0 0 0-.536 0c-1.355.504-2.678 1.071-4.033 1.575-.41.158-.882.063-1.449.126.158-.284.252-.441.441-.819-.473.126-.788.189-1.166.284-.599-.41-.914-1.134-.756-1.953.031-.158 0-.41-.126-.536-.41-.473-.882-.914-1.355-1.323-.504-.473-1.071-.473-1.701-.158-.41.221-.851.315-1.292.441-.914.252-1.449-.095-1.89-.914-.441-.851-1.134-1.386-2.174-1.418-.725-.032-1.449-.189-2.079-.284.063-.378.126-.599.095-.788-.031-.126-.347-.252-.441-.221-.158.095-.284.315-.441.567-1.922-1.134-3.403-2.741-4.096-4.883-.756-2.363-1.166-4.789-1.89-7.152-.977-3.119-.819-6.175-.126-9.294.221-.977.41-1.953.662-2.899.063-.189.284-.315.473-.473.126-.095.284-.158.41-.221-.126-.158-.284-.284-.536-.567.441-.882.851-1.922 1.449-2.835 1.04-1.607 1.985-3.245 2.646-5.072.473-1.26 1.292-2.363 1.796-3.623.473-1.166.788-2.394 1.134-3.623 0-.063 0-.095.031-.158.284-2.174.977-2.646 3.088-2.048.851.252 1.733.41 2.583.693 1.733.567 2.174 1.859 1.229 3.434-.126.221-.284.41-.441.63-.536.788-1.103 1.575-1.67 2.426.031 0-.126-.095-.284-.189-.158.284-.315.567-.504.882.252.063.473.126.693.189l-.284 1.985c-.031.189.063.473.158.536.221.095.662.095.693 0 .41-.914 1.26-.504 1.89-.662a10.74 10.74 0 0 0 1.071-.347c.221-.095.41-.252.599-.284 1.575-.41 3.088-.977 4.789-.725.536.095 1.323.031 1.859-.536.158-.189.599-.347.756-.252.693.378 1.071-.031 1.512-.441.158-.158.378-.252.725-.473-.126.63-.189 1.071-.284 1.544.095.063.158.095.252.158.189-.221.378-.441.63-.599.189-.158.41-.252.599-.347.095.158.284.378.252.504-.063.221-.221.567-.378.599-.536.158-.851.41-.945.945 2.016.031.693 1.607 1.166 2.52.504-1.796.977-3.466 1.449-5.261 1.827.914 2.174 2.962 3.56 3.718.378-.347.662-.599.945-.882.378-.347.756-.662 1.071-1.071.819-1.071 1.418-1.071 2.174.063-.567.63-.599.819-.221 2.048.158-.158.252-.347.41-.441.252-.126.567-.315.819-.252.441.126.63.031.851-.347.504-.851 1.166-1.26 1.859-1.292.158.284.315.536.473.788.252-.221.504-.41.725-.63a90.403 90.403 0 0 0 2.394-2.52c.693.63.725 1.103.095 1.512-.536.378-.599.693-.189 1.134 1.323-.819 1.166-2.111 1.071-3.371-.031-.41-.031-.851.41-.788.347.031.756.347.945.662.189.284.126.725.189 1.103.851-.189 1.481.441 1.449 1.292 0 .284.063.536.126.819.063.221.158.441.252.693.126-.158.284-.315.378-.504.095-.158.126-.378.189-.599 2.174.063 2.552-2.268 4.001-3.245.095.693.126 1.229.252 1.764.032.095.441.189.693.158.504-.063 1.229.063.851-.977-.473.158-.914.284-1.386.441-.032-.063-.095-.095-.126-.158.221-.347.441-.693.693-1.103.378.189.725.378 1.134.63h.031c1.418-.221 2.552-.851 3.403-2.048.221-.315.662-.441 1.04-.693-.158.441-.284.819-.41 1.229.095.031.189.095.252.126.378-.41 1.071-.819 1.103-1.292.095-1.04.819-1.701 1.197-2.552.41-.914.882-1.796 1.323-2.678.031-.063.063-.158.095-.221 1.607-2.331 2.773-4.852 3.781-7.467.126-.347.504-.63.819-.851.158-.126.662-.095.693 0 .284.788 1.04.693 1.607.945.158.095.504.063.63-.031 2.174-1.859 3.403-4.316 4.568-6.868.095-.221.158-.504.126-.725-.315-1.607.504-3.686 1.922-4.505.378-.221.882-.189 1.323-.284.252-.063.693-.063.725-.158.095-.41.504-.599.347-1.26-.252-.977-.032-2.174.221-3.214.473-1.953 1.04-3.875 1.638-5.797.315-1.008.788-1.985 1.26-2.93.41-.819.914-1.607 1.386-2.394-.347-.189-.599-.347-.851-.441-.126-.032-.347 0-.441.095-1.512 1.197-2.962 2.426-4.505 3.592-.315.252-.725.347-1.134.441-.756.158-1.26-.252-1.229-1.04.063-1.071.189-2.142.284-3.182.095-1.229.221-2.489.284-3.718.031-.662 0-1.355 1.008-1.418-.851-.252-.977-.977-1.166-1.607-.126-.441-.315-.851-.441-1.292-.221-.693-.41-1.292-.063-2.111.284-.662.032-1.544-.031-2.331-.189-2.174-.725-4.285-1.827-6.175-1.04-1.796-1.197-3.623-.788-5.576.189-.851.158-1.764.063-2.646-.063-.504-.441-1.008-.725-1.575l-.378.662c-.252.567-.945.819-1.449.504-1.103-.725-1.26-1.89-1.575-3.025.063-.032.158-.063.221-.095.095.284.158.599.315.819.126.189.347.315.504.441.126-.158.315-.315.347-.473.126-.945.252-1.922.347-2.962.126-.032.378-.126.693-.221.284.441.599.882.914 1.386.378-1.67.158-3.403 1.103-5.009.189.441.315.756.473 1.071 0-.945 1.449-1.26.977-2.426-.189.189-.378.347-.567.536-.063 0-.126-.032-.189-.032l.504-4.127c-.189.315-.221.441-.315.567-.252.284-.536.536-.819.788-.189.158-.536.221-.599.41-.284.662-.756.756-1.386.473-.284 1.071.756.819 1.166 1.26-.095.189-.158.378-.315.504-.851.788-1.449 1.701-1.481 2.899 0 .252-.221.567-.441.788-.378.378-.788.693-1.166 1.04.252-1.481.504-2.993.756-4.6H87.63c1.26-1.229 2.363-2.268 2.993-3.781.599-1.418 1.418-2.709 2.142-4.064-.095-.063-.189-.095-.284-.158-.599.945-1.166 1.89-1.764 2.804a67.57 67.57 0 0 0-.63-2.394c.252-.158.504-.252.693-.441.063-.063-.063-.41-.158-.441-.189-.063-.441 0-.567.032.158-1.67.347-3.403.504-5.135.063-.567 0-1.166 0-1.733.032-.882.032-1.796.158-2.646.158-.914.473-1.827.693-2.709.031-.189 0-.504-.126-.599s-.473-.095-.599.032c-.788.756-1.764.473-2.678.599-.756.095-1.575.032-2.268.284-1.953.725-3.844.914-5.892.252-.945-.315-2.111-.063-3.151-.032-1.449.032-2.898.126-4.316.126-1.544-.032-2.993.284-4.348.977-2.3 1.134-3.686.662-5.576-1.071-.851-.788-1.67-1.26-2.962-1.166-1.166.063-2.363-.473-3.56-.725-.252-.063-.536-.126-.819-.095a202.09 202.09 0 0 0-4.285.536c-1.103.158-2.205.378-3.308.441-.63.032-1.26.032-1.89.189-.599.126-1.229.032-1.859.063-.126 0-.347.063-.41.158-.473.914-1.229.599-1.859.41-.756-.221-1.481-.567-2.174-.945-1.04-.567-1.607-1.575-1.859-2.678-.41-1.701-1.292-3.119-2.079-4.631-.378-.693-.819-1.607-.347-2.52.221-.41.063-.662-.441-.788-.095.504-.189.945-.252 1.418h-.221c.031-.504-.095-1.071.095-1.481a9.499 9.499 0 0 1 1.323-2.048c1.197-1.418 2.079-2.93 2.646-4.694.252-.788.756-1.481 1.134-2.237.41-.756.882-1.481 1.229-2.268.473-1.134 1.134-2.048 2.079-2.772a21.063 21.063 0 0 0 1.796-1.544c.126-.095.158-.284.252-.441.095-.189.158-.473.315-.567 1.449-.882 2.52-2.079 3.592-3.371.347-.41 1.04-.536 1.481-.914.567-.504 1.04-1.134 1.512-1.733.599-.819 1.103-1.733 1.796-2.457.284-.284.914-.284 1.386-.378.914-.158 1.197-1.071 1.827-1.575.031-.032-.158-.315-.252-.504 1.229-.504 2.583-.504 3.907-.221 1.827.378 3.655.914 5.45 1.481 1.04.347 1.953.189 2.804-.41.126-.095.252-.158.252-.158.567.662 1.134 1.292 1.67 1.922.095-.032.158-.095.252-.126-.095-.347-.158-.662-.284-1.229.945.693 1.355 0 2.111-.473-.851-.378-1.512-.693-2.174-1.008v-.189c.536 0 1.103-.095 1.638.032 1.764.41 3.497.945 5.261 1.355.536.126 1.134-.126 1.701-.158.977-.063 1.985 0 2.962-.126 1.071-.126 2.174-.284 3.182-.599.914-.284 1.764-.788 2.646-1.197.914-.441 1.827-.567 2.836-.284.315.095.662.095.977.095 1.071-.063 2.174 0 3.182-.252 1.166-.284 2.237-.882 3.371-1.355.315-.126.662-.252.977-.378-.315.41-.63.819-.914 1.166a45.18 45.18 0 0 0 1.67.977c.158.063.347.095.536.063.851-.158 1.701-.284 2.52-.536 1.449-.441 2.93-.819 4.222-1.638.158-.095.347-.347.315-.41-.095-.158-.315-.378-.473-.378-.788-.063-1.607-.126-2.394-.126-1.638-.032-3.308-.032-4.883.504.63-.347 1.197-.819 1.89-1.04.945-.315 1.922-.504 2.898-.662.441-.063.914-.063 1.355.063 1.859.536 3.686.945 5.64.945.441 0 .882.158 1.323.41-.693.032-1.544-.158-2.016.158-.914.63-2.016.441-2.898.945-.315.189-.725.252-1.071.41-.126.063-.221.252-.315.378.126.063.284.221.41.189.41 0 .819-.126 1.229-.095.756.063 1.512.095 2.237.284 1.071.284 1.953.536 2.867-.567a1.962 1.962 0 0 1 2.426-.504c1.701.851 3.56 1.229 5.482 1.26.189 0 .378.063.536 0 1.386-.567 2.52-.032 3.655.725.693.473 1.512.851 2.3 1.166 1.512.63 2.835 1.512 3.812 2.836.819 1.103 1.922 1.827 3.277 2.111 1.197.252 2.205.851 3.214 1.512.945.63 2.016 1.04 3.056 1.512.221.095.504-.032.725-.032.189.126.41.441.536.378.189-.063.315-.347.567-.599h1.323c-.221.189-.378.347-.536.504.221.126.441.378.662.378.504 0 1.071.41 1.481-.252.031-.063.189-.063.284-.032 2.016.504 3.97 0 5.892-.41 1.292-.284 2.426-.158 3.623.347 3.119 1.355 6.144 2.962 9.609 3.466.473.063 1.008.221 1.071.945-.221.063-.473.063-.599.189-.126.095-.189.41-.126.504.945 1.449 1.89 2.867 2.867 4.285.599.882 1.418 1.512 2.363 2.016.473.252.851.756 1.229 1.197.441.536.756 1.166 1.229 1.638 2.142 2.142 3.781 4.568 4.631 7.53.221.788.599 1.512.977 2.237.914 1.607 1.481 3.34 1.796 5.167.315 1.764.819 3.466 1.229 5.198.567 2.426.504 4.852.095 7.341-.41 2.394-.221 4.883-.315 7.309-.063 2.048-.095 4.127-.189 6.175-.032.63-.126 1.26-.126 1.89.031 4.001-.189 7.939-1.134 11.909-1.071 4.505-1.701 9.105-2.363 13.705-.441 3.025-1.355 5.892-1.922 8.853-.315 1.607-.347 3.277-.536 4.946-.031.347-.158.693-.252 1.04-1.071 3.245-2.142 6.459-3.182 9.704-.315.977-.441 2.048-.725 3.056-.315 1.103-.536 2.237-1.04 3.245a10.89 10.89 0 0 0-1.103 4.19c-.095 1.575-.567 2.962-1.859 4.033-.41.347-.662.945-.914 1.481-1.134 2.205-2.898 3.623-5.167 4.537-2.237.914-2.709 1.67-2.804 4.096-.095 2.331-.284 4.663-.41 6.994-.031.41.126.851.158 1.292.031 1.166-.441 1.796-1.575 2.016-1.733.347-3.434.378-4.978-.725-.662-.473-1.512-.725-2.3-1.008-1.985-.725-3.497-1.89-4.001-4.033-.063-.252-.315-.567-.536-.693-1.859-1.008-3.182-2.583-4.442-4.222-.504-.63-1.071-1.229-.945-2.174 0-.095-.095-.221-.158-.315-.504-.756-.473-1.166.031-1.638-.126-.315-.41-.567-.347-.756.347-1.071-.378-1.796-.819-2.583-.41-.725-.882-1.512-.441-2.363.567-1.008.347-2.111.441-3.151.032-.252.095-.473.126-.725 0-.189 0-.41-.095-.504-.977-1.04-1.355-2.142-.693-3.497.221-.441.347-.945.504-1.418.189-.536.095-.882-.567-.945-.725-.063-.945-.536-.599-1.197.284-.536.63-1.04.945-1.575 1.733-3.088 2.93-6.396 3.34-9.861.378-3.056.347-6.207-1.134-9.137-1.355-2.646-2.678-5.293-4.915-7.341-3.308-3.025-8.317-3.623-12.256-1.418a25.609 25.609 0 0 0-2.741 1.796c-1.103.819-2.268 1.449-3.592 1.764a8.27 8.27 0 0 0-1.953.819c-1.071.63-2.142 1.292-3.151 2.016-.41.284-.819.63-1.103 1.04a291.642 291.642 0 0 0-3.34 5.135c-.599.945-.882 1.985-1.04 3.119-.252 1.827-.725 3.623-1.166 5.419-.378 1.544-.441 3.088-.284 4.694.158 1.827.158 3.655.189 5.482.031 1.292 0 2.583-.032 3.907 0 .41-.189.788-.221 1.197 0 .189.221.536.252.536.693-.158.788.441.977.819.914 1.827 1.544 3.718 1.449 5.797-.031.567-.252 1.103-.347 1.67-.032.126.189.252.284.41.126-.031.252-.095.378-.126 0 1.796.063 3.56-.031 5.356-.032.599-.347 1.229-.662 1.764-1.323 2.3-1.701 4.82-2.048 7.372-.347 2.394-.882 4.757-1.89 6.963-.41.914-1.04 1.827-1.796 2.52-2.268 2.079-4.631 4.001-6.931 6.018a79.44 79.44 0 0 0-2.93 2.678c-1.008.914-1.449 2.079-1.355 3.434.063 1.103.031 2.174-.536 3.182a97.3 97.3 0 0 0 .284-1.355c-.063-.032-.126-.032-.189-.063-.252.189-.473.41-.756.63-.284-.599-.41-1.103.126-1.575.126-.095 0-.473 0-.725-.221.063-.504.063-.63.189-.599.599-.756 1.386-.567 2.205.128.763 1.041 1.173 1.64.763zm83.049-152.14c-.504.158-.504.504-.378.977.095.41.031.882.095 1.292.063.347.063.819.284 1.04 1.292 1.134 2.615 2.205 3.97 3.308.126.095.41.158.536.095.126-.063.189-.378.158-.536a7.99 7.99 0 0 0-.504-1.197c-.979-2.018-2.618-3.467-4.161-4.979zM103.822 64.83c.599-.158.977-.252 1.418-.378-.221.567-.441.977-.536 1.449-.347 1.764-1.229 3.088-3.056 3.623-.189.063-.284.347-.41.504.221-.032.473.032.662-.063.536-.315 1.04-.662 1.575-1.008.063.063.158.126.221.189-.158.252-.252.567-.441.756-.221.252-.536.378-.977.662.41.158.63.221.851.315.914-.977.662-2.615 2.142-3.308-.252.725-.473 1.355-.662 1.985-.063.221-.031.441-.031.693.189-.158.441-.284.504-.504.473-1.481.914-2.962 1.355-4.474-.63.095-.63-.252-.599-.662.031-.473-.063-.945-.095-1.481a31.21 31.21 0 0 0-1.921 1.702zm-3.151 56.3c-.441.473-.693.945-1.103 1.229-1.071.725-1.607 2.268-1.071 3.592.189-.378.347-.662.599-1.103.158.504.252.882.41 1.229.095.221.189.536.347.599.189.063.504-.063.662-.221.378-.378.63-.819.315-1.449-.158-.284-.126-.725-.063-1.071.062-.914.345-1.797-.096-2.805zm40.863-75.33c-.063.756.441 1.355.945 1.26 1.166-.252 2.331-.504 3.529-.756.158-.032.378-.126.41-.221.031-.126-.063-.378-.189-.441a40.23 40.23 0 0 0-1.544-.914c0 .095-.031.189-.031.284-.315.032-.693.189-.977.126-.977-.252-1.827.063-2.709.378-.031 0 0 .095-.031.158.187 0 .345.063.597.126zM100.64 79.826c-.882.599-1.386 1.386-1.386 2.552-.347-.126-.662-.221-1.04-.347-.284.536-.599 1.04-.882 1.575.063.032.095.095.158.126.378-.189.788-.41 1.449-.725-.189.599-.284 1.04-.41 1.449-.189.63-.473 1.229-.599 1.859-.063.284.158.63.252.945.063-.032.158-.032.221-.063.347-1.292.725-2.583 1.04-3.875.251-1.196 1.071-2.235 1.197-3.496zm-.158-11.625c-.63.221-1.229.41-1.953.662.252-.756.536-1.575.882-2.552-1.418.882-2.741 1.512-2.552 3.182 1.638.724 2.741-.032 3.623-1.292zm-3.623 15.123c.41-.725.725-1.26 1.04-1.827-.41-.158-.662-.252-1.166-.441a161.535 161.535 0 0 1 2.867-3.749c-.095-.032-.126-.032-.126-.032-1.071.221-1.638 1.166-2.174 1.922-.378.536-1.134 1.134-.662 2.048.031.095-.126.315-.252.41-.41.441-.882.851-1.26 1.323-.095.126-.032.41-.032.599.158-.063.378-.063.504-.189.284-.252.504-.567.756-.882.127.282.253.471.505.818zm7.057-9.736c-.063-.032-.126-.095-.189-.126-.284.284-.662.536-.819.882-.347.725-.567 1.512-.851 2.268-.095.252-.189.567-.347.788-.284.378-.63.693-.945 1.04l.189.189c.41-.347.819-.725 1.418-1.229-.189 1.229-.315 2.174-.473 3.151.095.032.221.032.315.063.189-.662.41-1.323.536-2.016.252-1.512.063-3.119 1.04-4.474.095-.095.063-.347.126-.536zm36.484 49.748c-1.04-.063-1.638.441-2.048 1.512-.252.725-.599 1.386-.914 2.079-.063.126-.032.252-.095.599.725-.378 1.292-.63 1.859-.977.158-.095.252-.504.189-.662-.221-.41-.031-.599.221-.851.473-.44.882-.944.788-1.7zM96.89 77.274c.441-.536 1.04-.945 1.071-1.418.031-.441-.536-.914-.851-1.418-.252.378-.378.63-.536.851-.158.221-.378.41-.536.63-.378.473-.378.945.095 1.323.126.095.284.189.441.284-.252.347-.41.567-.567.819.725.347 1.418-.126 1.607-1.071h-.724zM65.196 34.49a83.413 83.413 0 0 1-1.449-2.268c.41-.914.378-1.071-.504-1.481-.221-.095-.504-.032-.788-.032.031.221-.031.473.063.662.252.473.284.819-.252 1.04.472.976.85 1.26 2.93 2.079zm30.466 58.506c.252.189.473.378.788.63.031-.252.063-.347.031-.441-.441-1.26-.158-2.489 0-3.749.063-.473-.126-.945-.221-1.449-.126-.032-.221-.063-.347-.063-.126.252-.378.504-.378.756-.031.819 0 1.67.032 2.52 0 .189 0 .504-.126.567-.945.441-.221 1.008-.252 1.67.221-.221.315-.315.473-.441zM119.7 79.511c-.095-.032-.189-.095-.284-.126-.441.788-.914 1.575-1.355 2.394-.063.095-.032.315.031.347.599.473.315 1.04.221 1.575-.032.189.031.41.031.599 1.293-1.449 1.545-3.087 1.356-4.789zM94.874 47.155c-.063-.032-.095-.063-.158-.095-.788.599-1.575 1.229-2.142 1.638-.189.504-.221.851-.41 1.071-.599.788-.819 1.638-.756 2.646.41-.473.756-.977 1.04-1.512.504-.945.882-1.985 1.764-2.709.347-.251.473-.692.662-1.039zm3.749 15.69c.095.032.158.063.252.095.63-.63.945-1.638 2.016-1.733.063 0 .095-.158.158-.252.221-.41.504-.788.63-1.197.095-.221-.032-.536-.063-.788-.252.063-.599.032-.693.189a196.921 196.921 0 0 0-2.237 3.151c-.094.157-.063.346-.063.535zM75.656 26.613c.662 1.134 1.323 2.205 1.985 3.371.095-.252.158-.41.221-.599.189.315.315.567.473.882.536-.599.315-1.008-.063-1.418-.221-.221-.567-.662-.504-.756.41-.63-.158-.788-.567-1.323-.095.315-.158.536-.221.725-.505-.346-.253-1.354-1.324-.882zm46.848 46.125c-1.197.977-1.575 2.583-1.008 3.592.189-.221.441-.662.599-.63.788.158.851-.441 1.04-.725-.126-.473-.252-.819-.347-1.134a27.93 27.93 0 0 1-.284-1.103zm-48.77-62.57c-1.544 1.733-1.733 2.142-1.197 2.678.095-.189.189-.378.347-.63.095.158.158.221.189.315.252.504.63.536 1.071.315.536-.252.504-.756.347-1.197-.159-.473-.474-.946-.757-1.481zm41.682 66.098c.725-1.008.914-2.111.819-3.308-1.166.378-1.89 1.985-1.638 3.529.315-.378.599-.756.882-1.103.031.032.063.032.126.063-.063.284-.126.536-.189.819zm-14.461 43.919c.378.158.63.252.882.41.158.095.378.252.41.41.031.158-.095.441-.221.536-.725.567-.977 1.323-.725 2.331.882-.252 1.544-2.394 1.229-3.97l-.473.189c-.063-.284-.095-.504-.189-.945-.378.377-.598.661-.913 1.039zm-4.096-60.617c-.378.063-.567.126-.662.095-.693-.284-.788.126-.882.662-.095.504-.315.977-.41 1.449-.063.252.032.536.063.788.284-.095.725-.126.819-.315.379-.788.662-1.639 1.072-2.679zm57.75 30.907c-1.229 1.134-1.355 2.867-.378 4.064.756-1.323.472-2.646.378-4.064zm-56.332-80.37c1.859.662 3.119.189 3.907-1.449-1.008.284-1.985.63-2.962.977-.315.125-.63.314-.945.472zm36.704 45.021l2.709-2.52c.158.252.252.378.41.599.347-.662.63-1.26.914-1.827-1.008.284-1.764.662-2.457 1.449-.946 1.039-1.734 1.795-1.576 2.299zm-14.966 19.25c.441-1.229.851-2.426 1.323-3.718-1.921.725-2.425 2.332-1.323 3.718zm-23.912-8.601c.189-.788 1.103-1.481.441-2.426-.126.063-.315.095-.347.189-.315.914-.63 1.859-.851 2.804-.031.095.504.504.662.441.378-.158.662-.473.977-.756.032-.032-.031-.252-.063-.252h-.819zm-23.881 88.909c1.071-.031 1.292-.158 1.04-.662-.284-.504-.063-.819.252-1.103.63-.599.63-.914-.126-1.575-1.04.882-1.103 2.079-1.166 3.34zm54.221-66.477c-1.229.473-1.323 1.701-2.205 2.552.315-.063.41-.032.441-.063.441-.473.945-.693 1.638-.63.599.032 1.103-.315 1.134-1.103-.347.032-.63.032-.914.063a3.43 3.43 0 0 0-.094-.819zm-17.707-35.601c-.158.378-.41.693-.347.945.252 1.008.126 1.953-.284 2.899-.063.126.095.347.158.504.189-.095.473-.158.504-.284.221-.536.378-1.103.504-1.67.159-.819.096-1.607-.535-2.394zm1.355 10.522a22.315 22.315 0 0 0-.473-.693c-.158.189-.378.378-.473.599-.252.567-.441 1.134-.63 1.701-.063.158.063.378.095.599.189-.095.441-.158.567-.315.536-.63 1.04-1.26 1.512-1.922.126-.158.158-.41.221-.63a.515.515 0 0 0-.158-.063c-.22.252-.44.472-.661.724zm6.364-15.406c-.095-.063-.189-.158-.284-.221-1.166.977-2.3 1.953-3.434 2.93-.063.063 0 .252 0 .378.158 0 .347.032.473-.063.347-.252.662-.567.977-.819.63-.504 1.292-.977 1.89-1.512.189-.157.252-.472.378-.693zm18.211 16.95c.221-.41.441-.693.536-1.008a6.393 6.393 0 0 0 .284-1.512c0-.126-.252-.378-.441-.41-.126-.032-.378.126-.504.252-.315.41-.567.851-.725 1.103.282.536.535.977.85 1.575zm18.336-15.059c.819-.599 1.607-1.134 2.363-1.67.063-.032.126-.126.126-.189.126-.41.221-.788.315-1.197 0-.032-.284-.158-.284-.126-.252.284-.473.599-.788.977-.063 0-.315.032-.567.063.063.063.095.126.158.189-.284.252-.567.504-.819.756-.284.314-.819.503-.504 1.197zm-80.56-24.102c-.725-1.292-1.859-2.048-3.277-2.426.914.819 1.827 1.67 2.741 2.489-.063.063-.126.095-.221.158.221-.064.474-.127.757-.221zm40.485 35.79c.032 0 .063 0 .095.032.189-.756.378-1.481.599-2.237.126-.473.315-.914.347-1.386 0-.221-.284-.473-.441-.693-.189.158-.567.284-.567.441-.065 1.26-.033 2.551-.033 3.843zm3.591 4.82c.126.063.252.095.378.158.158-.221.347-.41.473-.662.189-.378.347-.756.473-1.134.221-.725.788-1.386.315-2.268-.189.662-.41 1.292-.63 1.985-.221-.063-.347-.126-.725-.252-.095.756-.189 1.48-.284 2.173zm17.139-35.443c.063-.032.158-.095.221-.126-.158-.189-.284-.567-.441-.567-.725-.063-1.166-.536-1.638-1.04-.378-.378-.851-.693-1.292-1.008-.063.063-.095.126-.158.189.567 1.544 1.954 2.016 3.308 2.552zM110.06 87.262c-.977.63-1.449 2.583-.914 3.781.725-1.198.725-2.427.914-3.781zm-10.964 39.697c-.126-.032-.284-.032-.41-.063l-.473 3.308c-.032.126.158.315.252.473.158-.126.41-.221.41-.347.095-1.134.158-2.269.221-3.371zm59.64-36.106l-.851.756c-.315.284-.599.567-.977.882.158.284.378.63.567.977 1.072-.567 1.103-1.606 1.261-2.615zm-44.328-10.775c-.504 1.134-.977 2.111-1.418 3.119 1.323-.535 2.142-2.299 1.418-3.119zm4.095-23.188c-1.544.725-1.922 1.449-1.26 2.3 1.04-.409 1.197-1.291 1.26-2.3zm19.502 19.471c.63.378 1.544-.536 1.89-1.89-.504.032-1.04-.189-1.292.473-.157.44-.377.913-.598 1.417zm-21.676 21.361c.693.063 1.355.189 1.638-.567.095-.221-.095-.599-.221-.851-.063-.095-.378-.158-.504-.095-.44.378-.881.788-.913 1.513zm-13.232-10.019c1.071-.221 1.607-.851 1.985-1.67a.468.468 0 0 0 0-.41c-.032-.063-.252-.126-.315-.063-.788.473-1.449 1.072-1.67 2.143zM82.555 30.741c.725.693 1.386 1.355 2.016 1.985 0-.567-.189-.977-.315-1.418-.314-.945-.472-1.008-1.701-.567zm67.611 39.13a1.557 1.557 0 0 0-.378-.063c.095 1.071-1.544 1.89-.095 3.119.127-1.008.284-2.048.473-3.056zm-21.203-9.421h.095c.378-.693.788-1.386 1.103-2.079.063-.158-.031-.504-.158-.662-.126-.126-.504-.221-.599-.126-.189.189-.41.63-.315.725.504.504.031.882-.063 1.323-.031.252-.031.536-.063.819zM99.694 70.69a.852.852 0 0 1-.158-.189c-.63.441-1.26.851-1.859 1.292-.095.095-.063.347-.095.536.189 0 .41.095.536.032a3.146 3.146 0 0 0 1.576-1.671zM56.406 191.608c-.095.095-.441.41-.41.441.315.41.662.819 1.04 1.166.031.031.473-.252.536-.41.094-.504-.505-1.165-1.166-1.197zM96.638 86.632c-.063 0-.095-.032-.158-.032-.031-.158-.031-.347-.095-.504-.032-.126-.158-.252-.252-.315-.032-.032-.221.063-.252.095-.032.126-.063.315.031.378.504.567 1.071 1.071.851 1.985.788-1.197.882-1.89.347-2.52-.157.314-.314.598-.472.913zm4.758 5.513c-.756.63-.725 2.867 0 3.686v-3.686zm-46.723 64.334c-.126-.536-.158-.977-.284-1.386-.063-.158-.252-.315-.41-.378-.126-.032-.347.095-.41.221-.189.378-.347.788-.536 1.166.537.125 1.073.251 1.64.377zm22.999-145.87c-.315-.221-.504-.473-.693-.441-.504 0-.945.315-.882.819.031.284.473.536.725.788.251-.347.503-.694.85-1.166zm45.683 48.518c.158-.41.221-.788.41-1.103.441-.693.126-.977-.504-1.229-.599 2.08-.599 2.08.094 2.332zm-28.04 48.676c1.071.126 2.3-1.229 2.3-2.363-.788.788-1.481 1.513-2.3 2.363zm-1.26-38.09c-.315.41-.788.788-.882 1.229-.063.252.504.63.851 1.008.409-1.071.44-1.701.031-2.237zm54.473-5.639c.095-.63.189-1.071.189-1.481 0-.158-.126-.378-.252-.504-.095-.063-.378-.063-.41 0-.158.536-.315 1.04-.347 1.575.001.095.505.252.82.41zm-4.316-13.201c-1.071.567-1.544 2.111-1.103 3.277.41-1.166.756-2.206 1.103-3.277zm-19.754 44.013c.788 0 1.386-.441 1.323-.945-.031-.126-.315-.378-.441-.347-.473.126-1.197-.095-1.197.725 0 .221.252.441.315.567zm-21.802-23.251c-.031-.063-.063-.095-.095-.158-.441.158-.882.252-1.323.441-.41.189-.788.473-1.166.756-.063.063 0 .284-.031.441.158-.032.315 0 .473-.063.315-.158.599-.315.882-.504.472-.283.882-.629 1.26-.913zm5.545-45.148c.63 1.323 2.079 2.646 2.646 2.52-.787-.85-1.386-1.858-2.646-2.52zm33.112 62.697c-1.827.945-2.205 1.323-2.048 1.953 1.387-.599 2.048-1.197 2.048-1.953zm-72.746 66.35c.095 0 .189.031.284.031.189-.41.473-.819.567-1.26.063-.221-.221-.504-.347-.788-.221.158-.599.315-.63.504-.032.474.063 1.009.126 1.513zm110.332-108.19c-.347.693-.031 1.67.599 2.079.504-.693.284-1.48-.599-2.079zm-26.811 16.667c-1.544-.473-.914.851-1.292 1.292-.095.126-.031.41-.031.63.126.032.221.032.347.063.346-.662.661-1.324.976-1.985zm-28.512 7.939c1.134-.851 1.544-1.859 1.103-2.772-.442.976-1.072 1.764-1.103 2.772zm-2.111-5.797c1.04-.756 1.008-1.386-.126-2.205-.095.315-.315.788-.252.819.598.346.189.913.378 1.386zm3.119-.441c-.851.504-1.701 2.552-1.355 3.403.441-1.166.882-2.206 1.355-3.403zm-30.277-4.127v-2.741c-.63.756-.567 2.3 0 2.741zm32.986 21.802c.063.126.095.221.158.347.441-.126.945-.158 1.323-.41.189-.126.158-.63.221-.945-.095-.063-.189-.095-.284-.158-.473.346-.945.756-1.418 1.166zm18.053-14.714c-1.103.819-1.418 1.764-.851 2.741.347-1.008.599-1.89.851-2.741zm-48.928-1.386c-.977.284-1.229.851-1.134 2.237 1.134-.346.693-1.418 1.134-2.237zm7.845 9.2c.315-.599.63-1.134.882-1.67.031-.095-.063-.347-.189-.41a.468.468 0 0 0-.41 0c-.409.221-.63 1.481-.283 2.08zm37.523-14.209c-.977.473-1.323 1.008-1.166 1.859.882-.441 1.386-1.229 1.166-1.859zm-36.673 44.265c-1.071.41-1.67 1.481-1.481 2.709.536-1.008.977-1.795 1.481-2.709zm.41-23.219c.063.063.095.126.158.189.536-.189.977-.504 1.134-1.166l-.662-.189c-.189-.063-.473-.284-.473-.252-.158.189-.284.441-.504.819.41-.063.567-.095.851-.158-.221.315-.378.536-.504.757zm-2.395-58.191c.063.914 1.197 1.859 2.268 1.827-.755-.599-1.48-1.197-2.268-1.827zm30.435 55.071c-.725-.315-2.111 1.008-2.268 2.016.819-.724 1.48-1.322 2.268-2.016zM95.914 57.3c1.103-.284 1.796-1.638 1.355-2.3-.473.788-.914 1.544-1.355 2.3zm52.551 12.791c.031.032.095.063.126.095.126-.977.284-1.953.41-2.93l-.284-.095c-.189.473-.504.914-.536 1.418-.031.504.189 1.008.284 1.512zm-11.72-10.428c.095.032.158.032.252.063.252-.221.819-1.796.725-2.048-.031-.095-.158-.189-.189-.189-.126.063-.315.126-.347.221-.189.63-.315 1.291-.441 1.953zm20.006 23.566c-.095 0-.189.032-.284.032-.158.41-.347.851-.441 1.26-.031.126.252.315.378.473.221-.347.473-.662.599-1.04.063-.189-.157-.473-.252-.725zm-55.45-50.44l-.095.284c.473.221.914.504 1.386.693.189.063.41.032.599.032-.095-.189-.158-.536-.315-.599-.472-.19-1.039-.284-1.575-.41zm-5.513 63.105c.284.945.536 1.796.788 2.646h.252c.063-.284.252-.725.158-.788-.662-.41-.63-1.103-.819-1.701-.001-.062-.159-.062-.379-.157zm-3.529-41.335h-.347c-.158.315-.347.599-.441.945-.158.41-.032.662.473.536.189-.063.504-.221.504-.315 0-.41-.126-.788-.189-1.166zm7.845-46.439c-.473.126-.851.189-1.197.347-.189.095-.284.378-.41.567.221.063.473.221.662.189.535-.064.787-.473.945-1.103zm.63 109.167c.756-.252 1.355-.441 1.953-.63 0-.095-.032-.158-.032-.252h-1.859c-.03.188-.062.472-.062.882zm-76.432 65.626c-.063.031-.095.063-.158.095.063.41.126.788.221 1.197.031.158.158.378.252.378.189.032.41-.063.536-.158.095-.095.158-.378.095-.473-.285-.378-.631-.693-.946-1.039zm14.146 6.994c-.473-.284-.693-.536-.977-.567-.158-.031-.504.315-.473.473 0 .252.284.662.41.662.283-.032.535-.285 1.04-.568zM142.51 53.425c-.725.315-.945 1.229-.567 2.174.631-.662.41-1.45.567-2.174zm-32.545 12.318c-.221.662-.441 1.229-.63 1.764.095.032.189.095.284.126.378-.536.725-1.071 1.134-1.701-.284-.063-.504-.126-.788-.189zm-1.292 12.067c-.095-.032-.221-.032-.315-.063-.158.945-.819 1.796-.725 2.804.095.032.189.032.315.063.253-.945.505-1.89.725-2.804zm2.3-2.489c.063 0 .126.032.221.032.158-.662.284-1.355.473-2.205-.788.472-.977 1.322-.694 2.173zm19.502 11.09c-.977-.567-1.418-.284-1.701 1.04.599-.378 1.071-.693 1.701-1.04zm-36.83-.788l.284.095.662-2.552c-.095-.032-.189-.032-.252-.063-.253.851-.473 1.701-.694 2.52zm18.746-18.966c-.032-.063-.063-.158-.095-.221-.158.032-.378 0-.441.063-.441.567-.819 1.166-1.229 1.764.095.063.189.158.284.221a72.34 72.34 0 0 0 1.481-1.827zm29.363 11.846c.725-.252 1.04-.725 1.04-1.481-.819.095-1.103.504-1.04 1.481zm-57.371 69.848c-.504.031-1.134.63-1.071 1.166.032.221.347.378.504.536.252-.662.409-1.198.567-1.702zm52.141-82.135c.851-.536 1.103-1.197.693-1.764-.378.535-1.008.945-.693 1.764zm-10.648 7.404a74.528 74.528 0 0 1-1.008 1.859c1.26-.662 1.449-1.009 1.008-1.859zm-38.721 62.412c.284-.158.504-.284.693-.441.158-.126.284-.315.441-.473-.252-.063-.567-.252-.788-.158-.472.159-.629.505-.346 1.072zm66.697-56.867c-.378.788-.693 1.449-1.071 2.205.756-.094 1.324-1.292 1.071-2.205zm5.64 9.042l-.095-.095c-.347.158-.725.315-1.071.473-.095.378-.189.819-.347 1.449.599-.724 1.072-1.292 1.513-1.827zm-82.009 62.318c.284.126.504.252.756.378l.567-1.229a.44.44 0 0 0-.189-.063c-.346.252-.661.536-1.134.914zm19.281-17.769c.126.031.252.063.378.063.095-.662.158-1.292.252-2.142-.945.693-.535 1.449-.63 2.079zm25.142-52.394c.882-.189 1.229-.851.977-1.764a47.6 47.6 0 0 0-.977 1.764zm45.651 2.678c-.095-.032-.189-.095-.252-.126-.252.473-.536.977-.788 1.449.095.032.158.095.252.126.568-.315.851-.787.788-1.449zm-37.176-15.69c-.095 0-.158-.032-.252-.032-.158.315-.315.63-.41.945-.031.126.189.315.284.504.189-.284.441-.567.567-.882.063-.125-.126-.346-.189-.535zm14.051-2.142c-.725.158-1.071 1.197-.63 1.953.221-.693.41-1.26.63-1.953zm-31.757 33.585c.063.063.095.158.158.221.599-.284 1.481-.095 1.701-1.26-.725.409-1.292.724-1.859 1.039zm-14.871-9.042c-.473 1.26-.378 1.544.504 1.764-.157-.567-.283-1.071-.504-1.764zm61.593-23.535v1.323c0 .095.126.252.221.252.063.032.284-.095.284-.158 0-.44.252-1.007-.505-1.417zm-27.976-5.072c-.662.662-.63 1.103.126 1.638a26.243 26.243 0 0 1-.126-1.638zM64.975 156.29c.063-.095.158-.158.221-.252-.189-.347-.378-.693-.567-1.071-.095 0-.158.032-.252.032-.095.315-.347.693-.252.914.094.22.567.283.85.377zm75.897-97.73c.063.032.095.063.158.095.441-.189.914-.378 1.355-.536 0-.063 0-.158-.031-.221-.315-.032-.693-.189-.945-.095-.222.096-.348.505-.537.757zm-29.426 21.298c.095.095.189.158.252.252.473-.473.945-.977 1.449-1.449-.095-.063-.158-.158-.252-.221-.472.473-.945.945-1.449 1.418zm-5.261 11.815c-.126 0-.252-.031-.378-.031.032.599-.567 1.134-.221 1.764.095 0 .221.031.315.031.063-.599.158-1.197.284-1.764zm26.307-38.248c.126.095.252.158.378.252.252-.315.504-.63.693-.977.032-.063-.031-.252-.095-.315-.031-.063-.252-.063-.252-.032-.252.316-.472.694-.724 1.072zm-23.031 48.455c.41-.536.851-1.071 1.26-1.607-.063-.063-.126-.095-.189-.158-.504.474-1.228.789-1.071 1.765zm-28.985 45.211c.063.063.126.126.221.189.189-.221.41-.441.599-.662-.252-.221-.504-.41-.725-.63l-.158.158c0 .283.031.63.063.945zm48.645-56.616c.788.095 1.67-.536 1.796-1.229-.568.379-1.198.82-1.796 1.229zM126.6 67.067c.158-.441.284-.851.441-1.26-.158-.032-.284-.095-.441-.126-.095.41-.158.819-.221 1.229-.031-.001.001.031.221.157zm-24.732 45.872c-.095-.032-.158-.032-.252-.063-.063.378-.189.756-.189 1.103 0 .095.347.189.662.347a9.628 9.628 0 0 1-.221-1.387zm36.641-28.355c-.032-.063-.095-.126-.126-.158-.378.221-.788.473-1.166.693.095.158.189.315.315.504.252-.221.41-.347.567-.504.158-.189.284-.378.41-.535zm-22.684.094c.788-.315 1.197-1.071 1.071-1.953a77.231 77.231 0 0 0-1.071 1.953zm2.111-5.671v1.859c.063 0 .126.032.189.032.126-.536.284-1.071.378-1.607 0-.063-.346-.158-.567-.284zM107.728 31.78c-.504-.41-.945-.756-1.386-1.134-.252.662.504 1.26 1.386 1.134zM39.204 153.203c-.126-.095-.252-.158-.378-.252-.158.252-.378.536-.473.819-.031.063.221.252.347.378.189-.315.346-.63.504-.945zm-4.38 10.523c.977.063 1.323-.473.945-1.166-.346.41-.63.788-.945 1.166zM63.211 29.354c.031-.063.095-.126.126-.189-.347-.315-.693-.63-1.071-.914-.063-.063-.252.032-.41.032.031.126 0 .347.063.378.441.284.882.473 1.292.693zM131.2 79.637c.851-.095 1.386-.662 1.229-1.418l-1.229 1.418zm-25.677-48.928c.126-.189.315-.473.315-.504a14.866 14.866 0 0 0-1.166-.788c-.031.063-.063.095-.095.158.316.347.599.693.946 1.134zM51.176 16.658c.221-.315.441-.473.473-.693.031-.126-.252-.284-.41-.441-.189.189-.41.347-.536.567 0 .063.221.283.473.567zm72.431 10.397c.063-.095.158-.221.221-.315a50.671 50.671 0 0 0-1.796-1.008c-.032.063-.095.126-.126.221.567.345 1.134.723 1.701 1.102zM90.526 151.439a1.72 1.72 0 0 1-.252-.189c-.378.504-.725 1.04-1.103 1.544l.284.189c.347-.505.725-1.009 1.071-1.544zm26.969-82.388c-.851.536-.977.977-.599 1.922.252-.693.41-1.228.599-1.922zm21.77-5.355a.852.852 0 0 0-.189-.158c-.41.473-.819.977-1.197 1.449.095.095.221.158.315.221.315-.504.693-1.008 1.071-1.512zM35.581 38.113c.221.284.378.473.536.693.095-.189.315-.41.284-.599-.031-.221-.284-.378-.441-.567-.096.158-.19.284-.379.473zm69.721-6.585l-.095.189c.284.504.662.851 1.575.441-.66-.252-1.07-.441-1.48-.63zM60.218 191.734c.095-.095.158-.221.252-.315-.284-.252-.567-.473-.851-.725l-.284.378c.284.221.599.442.883.662zm6.143-165.436c-.378.977-.221 1.355.725 1.764-.252-.629-.472-1.102-.725-1.764zm81.568 46.692c-.063.378-.126.725-.189 1.103.126 0 .347.095.378.032.284-.348.442-.726-.189-1.135zm-15.563-6.301c.095.032.158.095.252.126.284-.536.567-1.071.882-1.638-.095-.063-.189-.095-.284-.158-.315.567-.567 1.134-.85 1.67zM99.033 93.311c-.063-.032-.126-.032-.189-.063-.189.347-.378.662-.504 1.008-.032.095.126.284.189.441.126-.095.347-.158.378-.252.063-.378.094-.756.126-1.134zm-2.962-12.508c-.095-.063-.189-.158-.284-.221-.315.473-.599.977-.914 1.449l.284.189c.316-.503.631-.976.914-1.417zm14.713 11.153c.914-.284 1.04-.504.819-1.355-.315.536-.567.945-.819 1.355zm23.031-52.142c-.284-.252-.441-.473-.662-.536-.095-.032-.284.221-.441.378.158.158.284.347.473.441.126.032.346-.157.63-.283zM55.87 160.481c-.284-.252-.504-.441-.756-.567-.031-.031-.221.189-.347.315.221.221.41.441.662.63l.441-.378zm49.999-86.546c-.063-.032-.158-.095-.221-.126-.063.126-.126.221-.158.347-.031.315-.063.63-.031.945 0 .032.315.063.315.063.095-.284.158-.567.189-.851.032-.158-.062-.252-.094-.378zm-8.475 29.048c.221-.284.41-.441.41-.599.032-.126-.158-.284-.252-.441-.189.158-.378.284-.504.504-.032.032.189.252.346.536zm36.515-62.287c.284 1.071.914.693 1.386.693.031-.095.063-.158.095-.252a30.415 30.415 0 0 1-1.481-.441zm-36.987 82.073c-.725.378-.725.473 0 1.197v-1.197zm22.684-51.418c.095-.441.221-.882.378-1.449-.945.378-.788.882-.378 1.449zm-14.713-14.807c-.095-.032-.189-.063-.252-.095-.095.441-.158.882-.252 1.292.819-.252.598-.725.504-1.197zm40.201 9.514c.158.032.284.063.441.095.063-.41.126-.788.189-1.197-.126-.032-.221-.063-.347-.063-.063.378-.189.787-.283 1.165zm16.95-6.238c.031.536.063.977.126 1.449.504-.535.504-.882-.126-1.449zM67.149 29.733c.095-.095.189-.158.284-.252-.378-.41-.756-.819-1.134-1.26-.063.063-.158.126-.221.189.378.44.725.881 1.071 1.323zm-13.988 6.805c-.41.756 0 .977.63 1.008-.189-.315-.41-.662-.63-1.008zm59.892 37.523c-.063 0-.095-.032-.158-.032-.221.378-.473.725-.693 1.134-.063.095.031.252.063.378.126-.063.315-.095.347-.189.189-.409.315-.85.441-1.291zm-8.664 69.438c-.126-.031-.284-.031-.41-.063-.063.473-.126.945-.221 1.386.095.031.189.031.315.063.127-.472.221-.913.316-1.386zm-4.632-47.857c-.095 0-.189-.031-.284-.031-.536.315-.032.693.158 1.04.032-.347.063-.662.126-1.009zm-1.48-30.151c.126.063.221.126.347.189.221-.41.41-.819.63-1.197-.095-.063-.189-.095-.284-.158-.221.379-.441.757-.693 1.166zm11.909 13.957c.126 0 .252.032.347.032.032-.441.063-.914.095-1.355-.126 0-.252-.032-.347-.032-.032.442-.064.914-.095 1.355zm-57.025 81.316c-.063-.063-.126-.158-.189-.221-.252.189-.504.347-.756.536.189.189.378.347.662.599.125-.441.188-.662.283-.914zm35.885 16.667c.095.063.221.158.315.221.221-.315.441-.63.662-.977-.095-.063-.189-.126-.315-.189-.221.283-.442.63-.662.945zm14.87-45.211c-.158.441-.284.882-.441 1.323.756-.252.851-.724.441-1.323zm.378-40.957c-.095-.063-.221-.095-.315-.158-.158.315-.315.599-.441.914.126.032.347.126.347.095.157-.284.283-.568.409-.851zm7.814 0c.819-.504.882-.693.536-1.386-.221.535-.379.945-.536 1.386zm10.711-10.145c-.063-.032-.126-.095-.189-.126-.284.378-.567.788-.851 1.166.631-.126 1.04-.41 1.04-1.04zM91.251 26.866l-.189.189.851.851c.409-.977-.41-.788-.662-1.04zm-6.49 123.281c-.126-.031-.252-.063-.378-.063-.063.315-.095.662-.158.977.095.031.189.031.284.063.094-.316.189-.662.252-.977zm27.819-66.004a2.23 2.23 0 0 0-.41-.158c-.126.315-.252.63-.347.945.126.063.221.095.347.158.127-.347.253-.662.41-.945zm-8.664-55.482c.032-.063.095-.126.126-.221-.441-.284-.882-.567-1.292-.851l-.189.284c.441.284.914.536 1.355.788zM82.744 46.147c.095.095.189.221.252.315.252-.221.536-.441.788-.662-.063-.095-.158-.189-.221-.284-.283.221-.535.41-.819.631z"/><path d="M46.513 151.25c-.031-.221-.095-.41-.126-.63-.063-.347-.158-.693-.189-1.04-.031-.126.031-.284.095-.41.63-1.481.725-2.93.095-4.442-.536-1.292-.945-2.678-1.575-3.938-.41-.788-.977-1.575-1.67-2.142-1.386-1.134-2.867-2.111-4.379-3.088-.945-.599-1.67-1.323-2.111-2.331a5.157 5.157 0 0 0-.599-1.071c-.441-.599-.851-1.04-1.796-.945-1.355.126-2.615-.252-3.812-1.04-1.355-.882-2.836-1.544-4.253-2.268-1.008-.536-1.638-1.607-1.26-2.678a28.854 28.854 0 0 1 1.859-4.159c.221-.441 1.04-.977 1.386-.851.662.252 1.355.126 1.985.41.347.189.693.441.945.756 1.544 1.827 3.403 3.371 4.631 5.482.221.41.662.693 1.008 1.008.977.914 1.985 1.827 2.962 2.741.158.126.158.41.221.599 1.26-.126 2.079.599 2.836 1.418.126.126.252.347.378.347.945-.031 1.449.63 1.796 1.292.756 1.449 1.449 2.93 1.953 4.442.63 1.796 1.103 3.655.788 5.608-.221 1.323-.441 2.615-.63 3.938-.095.63-.063 1.26-.126 1.89-.031.347-.126.725-.189 1.071-.034.031-.129.031-.223.031zm-1.607-15.312c.504-.725.347-1.071-.599-1.26.221.472.379.819.599 1.26zm19.408-46.345c.315.347.599.693.914.977.315.284.441.977 1.197.504.252-.158.914.378 1.575.662-.347.126-.504.189-.63.221.189.315.41.599.599.882-.032.063-.095.126-.126.189-.221-.031-.473-.031-.693-.126-.473-.221-.882-.378-1.355-.031-.126.095-.41.031-.567-.063-2.962-1.827-6.27-2.709-9.641-3.308-1.008-.189-2.016-.221-3.025-.315-1.67-.158-2.394 1.008-1.701 2.836.031.031.095.063.095.126.851 3.151 3.497 4.253 6.081 5.419.189.095.378.158.662.284-.189.378-.41.756-.536 1.134-.063.252 0 .536 0 .788.221-.095.473-.189.788-.315.977.315 1.008.315 1.323-1.103 1.355.378 2.678.725 4.001 1.166.252.095.567.504.567.756 0 .221-.378.567-.63.63-.851.189-1.764.347-2.646.378-2.426.063-4.883.158-7.278-.536-.977-.284-1.67-.851-2.016-1.796-.378-1.04-.788-2.111-1.134-3.151-.284-.882-.031-1.638.504-2.363.126-.158.284-.473.221-.63-.693-2.363-2.205-3.97-4.537-4.789-1.229-.441-2.52-.788-3.434-1.796-.536-.567-1.04-1.229-1.323-1.922-.599-1.449.252-2.52 1.796-2.363.347.032.693.189 1.008.284 1.103.378 2.205.725 3.308 1.103 1.512.536 3.056 1.008 4.505 1.67 2.583 1.134 5.104 2.363 7.656 3.56.252.126.504.252.788.315.473.095.788.252 1.071.725.565.975 1.73.943 2.613-.002zM35.581 78.314c.126.126.473.284.599.536.504 1.134.945 2.3 1.386 3.434.063.126-.095.347-.126.536-.158-.063-.378-.063-.441-.158-.725-1.071-1.481-2.111-2.111-3.214-.347-.598-.001-1.134.693-1.134zm56.993-10.397c-.567-.662-.41-1.229-.252-1.764.032-.126.252-.158.378-.252.063.126.158.252.158.378-.063.504-.158.977-.284 1.638z"/><path d="M58.044 97.974c.315.095.599.221 1.103.378-.315.252-.504.441-.693.599-.189-.252-.41-.536-.599-.788l.189-.189z"/></g></svg>