<svg xmlns="http://www.w3.org/2000/svg" viewBox="0 0 1434 521"><path fill="#FFF" d="M137.594 200.146L166.087 285H109.41zM280.026 332H254V181h26.495c18.375 0 30.484 3.909 40.035 15.803 9.545 11.881 12.47 27.318 12.47 50.359v11.991c-1 22.211-3.285 41.148-12.939 53.08C310.407 324.172 298.298 332 280.026 332z"/><path fill="#FFF" d="M366 154.063v34.279c0-.116 1.551-.225 1.486-.341-8.689-15.164-19.566-25.027-34.369-33.477C317.388 145.545 300.422 143 280.495 143H207v132.848L159.239 142H115.95L44 323.25V154.063C44 122.069 73.336 100 105.33 100h205.956C343.273 100 366 122.069 366 154.063zM207 370v-1h-12.575l-15.723-46h-81.9l-15.569 46H47.688c2.903 30 27.605 53 57.642 53h205.956C343.273 422 366 392.013 366 360.019v-43.013c0 .084 1.583.161 1.538.245-8.521 14.822-19.302 28.527-34.009 36.952-15.775 9.03-32.74 15.797-52.564 15.797H207z"/><text transform="translate(410.688 314.89)" fill="#FFF" font-family="Lato" font-size="175.934" font-weight="lighter">AkshatDhabi</text></svg>