<svg xmlns="http://www.w3.org/2000/svg" viewBox="0 0 500 500"><path fill="#f9d440" d="M165.039 173.842L200.686 280h-70.907zM343.231 339H310V150h33.819c22.989 0 37.885 4.908 49.834 19.789C405.594 184.653 409 203.982 409 232.809v15.001c0 27.788-3.857 51.505-15.935 66.434C380.987 329.18 366.091 339 343.231 339z"/><path fill="#f9d440" d="M451 116.336v42.885c0-.145 1.836-.282 1.755-.427-10.87-18.971-24.531-31.058-43.05-41.63C390.026 105.932 368.748 103 343.819 103H252v165.697L192.118 102H137.96L48 328V116.336C48 76.309 84.647 49 124.674 49H382.34C422.359 49 451 76.309 451 116.336zM252 386v-1h-15.861l-19.671-58H114.005l-19.478 58H52.56c3.631 37 34.535 66 72.114 66H382.34c40.019 0 68.66-36.971 68.66-76.998V320.19c0 .105 1.876.201 1.82.306-10.661 18.544-24.2 35.445-42.599 45.986C390.485 377.779 369.207 386 344.407 386H252z"/></svg>