<?xml version="1.0" encoding="utf-8"?>
<!-- Generator: Adobe Illustrator 18.0.0, SVG Export Plug-In . SVG Version: 6.00 Build 0)  -->
<!DOCTYPE svg PUBLIC "-//W3C//DTD SVG 1.0//EN" "http://www.w3.org/TR/2001/REC-SVG-20010904/DTD/svg10.dtd">
<svg version="1.0" id="Laag_1" xmlns="http://www.w3.org/2000/svg" xmlns:xlink="http://www.w3.org/1999/xlink" x="0px" y="0px"
	 viewBox="0 0 3040 3040" enable-background="new 0 0 3040 3040" xml:space="preserve">
<g>
	<polygon fill="#0284A6" points="470.1,-190.3 393.7,-266.6 144.3,-17.2 -105.2,-266.6 -181.5,-190.3 143.7,135 144.3,134.5 
		144.8,135 	"/>
	<polygon fill="#0284A6" points="970.1,-190.3 893.7,-266.6 644.3,-17.2 394.8,-266.6 318.4,-190.3 643.7,135 644.3,134.5 
		644.8,135 	"/>
	<polygon fill="#0284A6" points="1467.6,-190.3 1391.3,-266.6 1141.8,-17.2 892.4,-266.6 816,-190.3 1141.3,135 1141.8,134.5 
		1142.4,135 	"/>
	<polygon fill="#0284A6" points="1967.6,-190.3 1891.3,-266.6 1641.8,-17.2 1392.4,-266.6 1316,-190.3 1641.3,135 1641.8,134.5 
		1642.4,135 	"/>
	<polygon fill="#0284A6" points="2466.6,-190.3 2390.3,-266.6 2140.8,-17.2 1891.4,-266.6 1815,-190.3 2140.3,135 2140.8,134.5 
		2141.4,135 	"/>
	<polygon fill="#0284A6" points="2966.6,-190.3 2890.3,-266.6 2640.8,-17.2 2391.4,-266.6 2315,-190.3 2640.3,135 2640.8,134.5 
		2641.4,135 	"/>
	<polygon fill="#0284A6" points="3465.6,-190.3 3389.3,-266.6 3139.8,-17.2 2890.4,-266.6 2814,-190.3 3139.3,135 3139.8,134.5 
		3140.4,135 	"/>
</g>
<g>
	<polygon fill="#0284A6" points="470,109.8 393.6,33.4 144.2,282.8 -105.3,33.4 -181.7,109.8 143.6,435 144.2,434.5 144.7,435 	"/>
	<polygon fill="#0284A6" points="970,109.8 893.6,33.4 644.1,282.8 394.7,33.4 318.3,109.8 643.6,435 644.1,434.5 644.7,435 	"/>
	<polygon fill="#0284A6" points="1467.5,109.8 1391.2,33.4 1141.7,282.8 892.3,33.4 815.9,109.8 1141.2,435 1141.7,434.5 
		1142.3,435 	"/>
	<polygon fill="#0284A6" points="1967.5,109.8 1891.1,33.4 1641.7,282.8 1392.2,33.4 1315.9,109.8 1641.1,435 1641.7,434.5 
		1642.2,435 	"/>
	<polygon fill="#0284A6" points="2466.5,109.8 2390.2,33.4 2140.7,282.8 1891.3,33.4 1814.9,109.8 2140.2,435 2140.7,434.5 
		2141.3,435 	"/>
	<polygon fill="#0284A6" points="2966.5,109.8 2890.1,33.4 2640.7,282.8 2391.2,33.4 2314.9,109.8 2640.1,435 2640.7,434.5 
		2641.2,435 	"/>
	<polygon fill="#0284A6" points="3465.5,109.8 3389.1,33.4 3139.7,282.8 2890.2,33.4 2813.9,109.8 3139.1,435 3139.7,434.5 
		3140.2,435 	"/>
</g>
<g>
	<polygon fill="#0284A6" points="469.7,412.8 393.3,336.4 143.9,585.9 -105.6,336.4 -182,412.8 143.3,738.1 143.9,737.5 
		144.4,738.1 	"/>
	<polygon fill="#0284A6" points="969.7,412.8 893.3,336.4 643.8,585.9 394.4,336.4 318,412.8 643.3,738.1 643.8,737.5 644.4,738.1 	
		"/>
	<polygon fill="#0284A6" points="1467.2,412.8 1390.9,336.4 1141.4,585.9 891.9,336.4 815.6,412.8 1140.9,738.1 1141.4,737.5 
		1142,738.1 	"/>
	<polygon fill="#0284A6" points="1967.2,412.8 1890.8,336.4 1641.4,585.9 1391.9,336.4 1315.6,412.8 1640.8,738.1 1641.4,737.5 
		1641.9,738.1 	"/>
	<polygon fill="#0284A6" points="2466.2,412.8 2389.9,336.4 2140.4,585.9 1890.9,336.4 1814.6,412.8 2139.8,738.1 2140.4,737.5 
		2141,738.1 	"/>
	<polygon fill="#0284A6" points="2966.2,412.8 2889.8,336.4 2640.4,585.9 2390.9,336.4 2314.6,412.8 2639.8,738.1 2640.4,737.5 
		2640.9,738.1 	"/>
	<polygon fill="#0284A6" points="3465.2,412.8 3388.8,336.4 3139.4,585.9 2889.9,336.4 2813.6,412.8 3138.8,738.1 3139.4,737.5 
		3139.9,738.1 	"/>
</g>
<g>
	<polygon fill="#0284A6" points="469.6,712.8 393.2,636.5 143.7,885.9 -105.7,636.5 -182.1,712.8 143.2,1038.1 143.7,1037.5 
		144.3,1038.1 	"/>
	<polygon fill="#0284A6" points="969.5,712.8 893.2,636.5 643.7,885.9 394.3,636.5 317.9,712.8 643.2,1038.1 643.7,1037.5 
		644.3,1038.1 	"/>
	<polygon fill="#0284A6" points="1467.1,712.8 1390.7,636.5 1141.3,885.9 891.8,636.5 815.5,712.8 1140.7,1038.1 1141.3,1037.5 
		1141.8,1038.1 	"/>
	<polygon fill="#0284A6" points="1967.1,712.8 1890.7,636.5 1641.3,885.9 1391.8,636.5 1315.4,712.8 1640.7,1038.1 1641.3,1037.5 
		1641.8,1038.1 	"/>
	<polygon fill="#0284A6" points="2466.1,712.8 2389.7,636.5 2140.3,885.9 1890.8,636.5 1814.5,712.8 2139.7,1038.1 2140.3,1037.5 
		2140.8,1038.1 	"/>
	<polygon fill="#0284A6" points="2966.1,712.8 2889.7,636.5 2640.3,885.9 2390.8,636.5 2314.4,712.8 2639.7,1038.1 2640.3,1037.5 
		2640.8,1038.1 	"/>
	<polygon fill="#0284A6" points="3465.1,712.8 3388.7,636.5 3139.3,885.9 2889.8,636.5 2813.4,712.8 3138.7,1038.1 3139.3,1037.5 
		3139.8,1038.1 	"/>
</g>
<g>
	<polygon fill="#0284A6" points="469.5,1015.9 393.1,939.5 143.7,1188.9 -105.8,939.5 -182.2,1015.9 143.1,1341.1 143.7,1340.6 
		144.2,1341.1 	"/>
	<polygon fill="#0284A6" points="969.4,1015.9 893.1,939.5 643.6,1188.9 394.2,939.5 317.8,1015.9 643.1,1341.1 643.6,1340.6 
		644.2,1341.1 	"/>
	<polygon fill="#0284A6" points="1467,1015.9 1390.6,939.5 1141.2,1188.9 891.7,939.5 815.4,1015.9 1140.6,1341.1 1141.2,1340.6 
		1141.7,1341.1 	"/>
	<polygon fill="#0284A6" points="1967,1015.9 1890.6,939.5 1641.2,1188.9 1391.7,939.5 1315.3,1015.9 1640.6,1341.1 1641.2,1340.6 
		1641.7,1341.1 	"/>
	<polygon fill="#0284A6" points="2466,1015.9 2389.6,939.5 2140.2,1188.9 1890.7,939.5 1814.4,1015.9 2139.6,1341.1 2140.2,1340.6 
		2140.7,1341.1 	"/>
	<polygon fill="#0284A6" points="2966,1015.9 2889.6,939.5 2640.2,1188.9 2390.7,939.5 2314.3,1015.9 2639.6,1341.1 2640.2,1340.6 
		2640.7,1341.1 	"/>
	<polygon fill="#0284A6" points="3465,1015.9 3388.6,939.5 3139.2,1188.9 2889.7,939.5 2813.3,1015.9 3138.6,1341.1 3139.2,1340.6 
		3139.7,1341.1 	"/>
</g>
<g>
	<polygon fill="#0284A6" points="469.3,1315.9 393,1239.5 143.5,1489 -105.9,1239.5 -182.3,1315.9 143,1641.2 143.5,1640.6 
		144.1,1641.2 	"/>
	<polygon fill="#0284A6" points="969.3,1315.9 893,1239.5 643.5,1489 394.1,1239.5 317.7,1315.9 643,1641.2 643.5,1640.6 
		644.1,1641.2 	"/>
	<polygon fill="#0284A6" points="1466.9,1315.9 1390.5,1239.5 1141.1,1489 891.6,1239.5 815.2,1315.9 1140.5,1641.2 1141.1,1640.6 
		1141.6,1641.2 	"/>
	<polygon fill="#0284A6" points="1966.9,1315.9 1890.5,1239.5 1641,1489 1391.6,1239.5 1315.2,1315.9 1640.5,1641.2 1641,1640.6 
		1641.6,1641.2 	"/>
	<polygon fill="#0284A6" points="2465.9,1315.9 2389.5,1239.5 2140.1,1489 1890.6,1239.5 1814.2,1315.9 2139.5,1641.2 
		2140.1,1640.6 2140.6,1641.2 	"/>
	<polygon fill="#0284A6" points="2965.9,1315.9 2889.5,1239.5 2640,1489 2390.6,1239.5 2314.2,1315.9 2639.5,1641.2 2640,1640.6 
		2640.6,1641.2 	"/>
	<polygon fill="#0284A6" points="3464.9,1315.9 3388.5,1239.5 3139,1489 2889.6,1239.5 2813.2,1315.9 3138.5,1641.2 3139,1640.6 
		3139.6,1641.2 	"/>
</g>
<g>
	<polygon fill="#0284A6" points="469,1618.9 392.7,1542.5 143.2,1792 -106.2,1542.5 -182.6,1618.9 142.7,1944.2 143.2,1943.6 
		143.8,1944.2 	"/>
	<polygon fill="#0284A6" points="969,1618.9 892.7,1542.5 643.2,1792 393.7,1542.5 317.4,1618.9 642.6,1944.2 643.2,1943.6 
		643.8,1944.2 	"/>
	<polygon fill="#0284A6" points="1466.6,1618.9 1390.2,1542.5 1140.8,1792 891.3,1542.5 814.9,1618.9 1140.2,1944.2 1140.8,1943.6 
		1141.3,1944.2 	"/>
	<polygon fill="#0284A6" points="1966.6,1618.9 1890.2,1542.5 1640.7,1792 1391.3,1542.5 1314.9,1618.9 1640.2,1944.2 
		1640.7,1943.6 1641.3,1944.2 	"/>
	<polygon fill="#0284A6" points="2465.6,1618.9 2389.2,1542.5 2139.8,1792 1890.3,1542.5 1813.9,1618.9 2139.2,1944.2 
		2139.8,1943.6 2140.3,1944.2 	"/>
	<polygon fill="#0284A6" points="2965.6,1618.9 2889.2,1542.5 2639.7,1792 2390.3,1542.5 2313.9,1618.9 2639.2,1944.2 
		2639.7,1943.6 2640.3,1944.2 	"/>
	<polygon fill="#0284A6" points="3464.6,1618.9 3388.2,1542.5 3138.7,1792 2889.3,1542.5 2812.9,1618.9 3138.2,1944.2 
		3138.7,1943.6 3139.3,1944.2 	"/>
</g>
<g>
	<polygon fill="#0284A6" points="468.9,1918.9 392.6,1842.6 143.1,2092 -106.4,1842.6 -182.7,1918.9 142.6,2244.2 143.1,2243.7 
		143.7,2244.2 	"/>
	<polygon fill="#0284A6" points="968.9,1918.9 892.5,1842.6 643.1,2092 393.6,1842.6 317.3,1918.9 642.5,2244.2 643.1,2243.7 
		643.6,2244.2 	"/>
	<polygon fill="#0284A6" points="1466.5,1918.9 1390.1,1842.6 1140.6,2092 891.2,1842.6 814.8,1918.9 1140.1,2244.2 1140.6,2243.7 
		1141.2,2244.2 	"/>
	<polygon fill="#0284A6" points="1966.4,1918.9 1890.1,1842.6 1640.6,2092 1391.2,1842.6 1314.8,1918.9 1640.1,2244.2 
		1640.6,2243.7 1641.2,2244.2 	"/>
	<polygon fill="#0284A6" points="2465.5,1918.9 2389.1,1842.6 2139.6,2092 1890.2,1842.6 1813.8,1918.9 2139.1,2244.2 
		2139.6,2243.7 2140.2,2244.2 	"/>
	<polygon fill="#0284A6" points="2965.4,1918.9 2889.1,1842.6 2639.6,2092 2390.2,1842.6 2313.8,1918.9 2639.1,2244.2 
		2639.6,2243.7 2640.2,2244.2 	"/>
	<polygon fill="#0284A6" points="3464.4,1918.9 3388.1,1842.6 3138.6,2092 2889.2,1842.6 2812.8,1918.9 3138.1,2244.2 
		3138.6,2243.7 3139.2,2244.2 	"/>
</g>
<g>
	<polygon fill="#0284A6" points="468.6,2218.9 392.2,2142.5 142.8,2392 -106.7,2142.5 -183,2218.9 142.2,2544.2 142.8,2543.6 
		143.3,2544.2 	"/>
	<polygon fill="#0284A6" points="968.6,2218.9 892.2,2142.5 642.8,2392 393.3,2142.5 317,2218.9 642.2,2544.2 642.8,2543.6 
		643.3,2544.2 	"/>
	<polygon fill="#0284A6" points="1466.2,2218.9 1389.8,2142.5 1140.3,2392 890.9,2142.5 814.5,2218.9 1139.8,2544.2 1140.3,2543.6 
		1140.9,2544.2 	"/>
	<polygon fill="#0284A6" points="1966.1,2218.9 1889.8,2142.5 1640.3,2392 1390.9,2142.5 1314.5,2218.9 1639.8,2544.2 
		1640.3,2543.6 1640.9,2544.2 	"/>
	<polygon fill="#0284A6" points="2465.2,2218.9 2388.8,2142.5 2139.3,2392 1889.9,2142.5 1813.5,2218.9 2138.8,2544.2 
		2139.3,2543.6 2139.9,2544.2 	"/>
	<polygon fill="#0284A6" points="2965.1,2218.9 2888.8,2142.5 2639.3,2392 2389.9,2142.5 2313.5,2218.9 2638.8,2544.2 
		2639.3,2543.6 2639.9,2544.2 	"/>
	<polygon fill="#0284A6" points="3464.1,2218.9 3387.8,2142.5 3138.3,2392 2888.9,2142.5 2812.5,2218.9 3137.8,2544.2 
		3138.3,2543.6 3138.9,2544.2 	"/>
</g>
<g>
	<polygon fill="#0284A6" points="468.5,2518.9 392.1,2442.6 142.7,2692 -106.8,2442.6 -183.1,2518.9 142.1,2844.2 142.7,2843.7 
		143.2,2844.2 	"/>
	<polygon fill="#0284A6" points="968.5,2518.9 892.1,2442.6 642.7,2692 393.2,2442.6 316.8,2518.9 642.1,2844.2 642.7,2843.7 
		643.2,2844.2 	"/>
	<polygon fill="#0284A6" points="1466,2518.9 1389.7,2442.6 1140.2,2692 890.8,2442.6 814.4,2518.9 1139.7,2844.2 1140.2,2843.7 
		1140.8,2844.2 	"/>
	<polygon fill="#0284A6" points="1966,2518.9 1889.6,2442.6 1640.2,2692 1390.7,2442.6 1314.4,2518.9 1639.6,2844.2 1640.2,2843.7 
		1640.7,2844.2 	"/>
	<polygon fill="#0284A6" points="2465,2518.9 2388.7,2442.6 2139.2,2692 1889.8,2442.6 1813.4,2518.9 2138.7,2844.2 2139.2,2843.7 
		2139.8,2844.2 	"/>
	<polygon fill="#0284A6" points="2965,2518.9 2888.6,2442.6 2639.2,2692 2389.7,2442.6 2313.4,2518.9 2638.6,2844.2 2639.2,2843.7 
		2639.7,2844.2 	"/>
	<polygon fill="#0284A6" points="3464,2518.9 3387.6,2442.6 3138.2,2692 2888.7,2442.6 2812.4,2518.9 3137.6,2844.2 3138.2,2843.7 
		3138.7,2844.2 	"/>
</g>
<g>
	<polygon fill="#0284A6" points="469.7,2816.2 393.4,2739.9 143.9,2989.3 -105.5,2739.9 -181.9,2816.2 143.4,3141.5 143.9,3140.9 
		144.5,3141.5 	"/>
	<polygon fill="#0284A6" points="969.7,2816.2 893.4,2739.9 643.9,2989.3 394.4,2739.9 318.1,2816.2 643.3,3141.5 643.9,3140.9 
		644.5,3141.5 	"/>
	<polygon fill="#0284A6" points="1467.3,2816.2 1390.9,2739.9 1141.5,2989.3 892,2739.9 815.6,2816.2 1140.9,3141.5 1141.5,3140.9 
		1142,3141.5 	"/>
	<polygon fill="#0284A6" points="1967.3,2816.2 1890.9,2739.9 1641.4,2989.3 1392,2739.9 1315.6,2816.2 1640.9,3141.5 
		1641.4,3140.9 1642,3141.5 	"/>
	<polygon fill="#0284A6" points="2466.3,2816.2 2389.9,2739.9 2140.5,2989.3 1891,2739.9 1814.6,2816.2 2139.9,3141.5 
		2140.5,3140.9 2141,3141.5 	"/>
	<polygon fill="#0284A6" points="2966.3,2816.2 2889.9,2739.9 2640.4,2989.3 2391,2739.9 2314.6,2816.2 2639.9,3141.5 
		2640.4,3140.9 2641,3141.5 	"/>
	<polygon fill="#0284A6" points="3465.3,2816.2 3388.9,2739.9 3139.4,2989.3 2890,2739.9 2813.6,2816.2 3138.9,3141.5 
		3139.4,3140.9 3140,3141.5 	"/>
</g>
<g>
	<g>
		<polygon fill="#0AA1C4" points="469.9,-39.2 393.5,-115.5 144,133.9 -105.4,-115.5 -181.8,-39.2 143.5,286.1 144,285.5 
			144.6,286.1 		"/>
		<polygon fill="#0AA1C4" points="969.8,-39.2 893.5,-115.5 644,133.9 394.6,-115.5 318.2,-39.2 643.5,286.1 644,285.5 644.6,286.1 
					"/>
		<polygon fill="#0AA1C4" points="1467.4,-39.2 1391,-115.5 1141.6,133.9 892.1,-115.5 815.8,-39.2 1141,286.1 1141.6,285.5 
			1142.1,286.1 		"/>
		<polygon fill="#0AA1C4" points="1967.4,-39.2 1891,-115.5 1641.6,133.9 1392.1,-115.5 1315.7,-39.2 1641,286.1 1641.6,285.5 
			1642.1,286.1 		"/>
		<polygon fill="#0AA1C4" points="2466.4,-39.2 2390,-115.5 2140.6,133.9 1891.1,-115.5 1814.8,-39.2 2140,286.1 2140.6,285.5 
			2141.1,286.1 		"/>
		<polygon fill="#0AA1C4" points="2966.4,-39.2 2890,-115.5 2640.6,133.9 2391.1,-115.5 2314.7,-39.2 2640,286.1 2640.6,285.5 
			2641.1,286.1 		"/>
		<polygon fill="#0AA1C4" points="3465.4,-39.2 3389,-115.5 3139.6,133.9 2890.1,-115.5 2813.7,-39.2 3139,286.1 3139.6,285.5 
			3140.1,286.1 		"/>
	</g>
	<g>
		<polygon fill="#0AA1C4" points="469.7,260.9 393.4,184.5 143.9,433.9 -105.5,184.5 -181.9,260.9 143.4,586.1 143.9,585.6 
			144.5,586.1 		"/>
		<polygon fill="#0AA1C4" points="969.7,260.9 893.4,184.5 643.9,433.9 394.4,184.5 318.1,260.9 643.3,586.1 643.9,585.6 
			644.5,586.1 		"/>
		<polygon fill="#0AA1C4" points="1467.3,260.9 1390.9,184.5 1141.5,433.9 892,184.5 815.6,260.9 1140.9,586.1 1141.5,585.6 
			1142,586.1 		"/>
		<polygon fill="#0AA1C4" points="1967.3,260.9 1890.9,184.5 1641.4,433.9 1392,184.5 1315.6,260.9 1640.9,586.1 1641.4,585.6 
			1642,586.1 		"/>
		<polygon fill="#0AA1C4" points="2466.3,260.9 2389.9,184.5 2140.5,433.9 1891,184.5 1814.6,260.9 2139.9,586.1 2140.5,585.6 
			2141,586.1 		"/>
		<polygon fill="#0AA1C4" points="2966.3,260.9 2889.9,184.5 2640.4,433.9 2391,184.5 2314.6,260.9 2639.9,586.1 2640.4,585.6 
			2641,586.1 		"/>
		<polygon fill="#0AA1C4" points="3465.3,260.9 3388.9,184.5 3139.4,433.9 2890,184.5 2813.6,260.9 3138.9,586.1 3139.4,585.6 
			3140,586.1 		"/>
	</g>
	<g>
		<polygon fill="#0AA1C4" points="469.4,563.9 393.1,487.5 143.6,737 -105.8,487.5 -182.2,563.9 143.1,889.2 143.6,888.6 
			144.2,889.2 		"/>
		<polygon fill="#0AA1C4" points="969.4,563.9 893,487.5 643.6,737 394.1,487.5 317.8,563.9 643,889.2 643.6,888.6 644.1,889.2 		
			"/>
		<polygon fill="#0AA1C4" points="1467,563.9 1390.6,487.5 1141.2,737 891.7,487.5 815.3,563.9 1140.6,889.2 1141.2,888.6 
			1141.7,889.2 		"/>
		<polygon fill="#0AA1C4" points="1967,563.9 1890.6,487.5 1641.1,737 1391.7,487.5 1315.3,563.9 1640.6,889.2 1641.1,888.6 
			1641.7,889.2 		"/>
		<polygon fill="#0AA1C4" points="2466,563.9 2389.6,487.5 2140.2,737 1890.7,487.5 1814.3,563.9 2139.6,889.2 2140.2,888.6 
			2140.7,889.2 		"/>
		<polygon fill="#0AA1C4" points="2966,563.9 2889.6,487.5 2640.1,737 2390.7,487.5 2314.3,563.9 2639.6,889.2 2640.1,888.6 
			2640.7,889.2 		"/>
		<polygon fill="#0AA1C4" points="3465,563.9 3388.6,487.5 3139.1,737 2889.7,487.5 2813.3,563.9 3138.6,889.2 3139.1,888.6 
			3139.7,889.2 		"/>
	</g>
	<g>
		<polygon fill="#0AA1C4" points="469.3,863.9 393,787.5 143.5,1037 -106,787.5 -182.3,863.9 142.9,1189.2 143.5,1188.6 144,1189.2 
					"/>
		<polygon fill="#0AA1C4" points="969.3,863.9 892.9,787.5 643.5,1037 394,787.5 317.7,863.9 642.9,1189.2 643.5,1188.6 644,1189.2 
					"/>
		<polygon fill="#0AA1C4" points="1466.9,863.9 1390.5,787.5 1141,1037 891.6,787.5 815.2,863.9 1140.5,1189.2 1141,1188.6 
			1141.6,1189.2 		"/>
		<polygon fill="#0AA1C4" points="1966.8,863.9 1890.5,787.5 1641,1037 1391.6,787.5 1315.2,863.9 1640.5,1189.2 1641,1188.6 
			1641.6,1189.2 		"/>
		<polygon fill="#0AA1C4" points="2465.9,863.9 2389.5,787.5 2140,1037 1890.6,787.5 1814.2,863.9 2139.5,1189.2 2140,1188.6 
			2140.6,1189.2 		"/>
		<polygon fill="#0AA1C4" points="2965.8,863.9 2889.5,787.5 2640,1037 2390.6,787.5 2314.2,863.9 2639.5,1189.2 2640,1188.6 
			2640.6,1189.2 		"/>
		<polygon fill="#0AA1C4" points="3464.8,863.9 3388.5,787.5 3139,1037 2889.6,787.5 2813.2,863.9 3138.5,1189.2 3139,1188.6 
			3139.6,1189.2 		"/>
	</g>
	<g>
		<polygon fill="#0AA1C4" points="469.2,1166.9 392.9,1090.6 143.4,1340 -106,1090.6 -182.4,1166.9 142.9,1492.2 143.4,1491.7 
			144,1492.2 		"/>
		<polygon fill="#0AA1C4" points="969.2,1166.9 892.8,1090.6 643.4,1340 393.9,1090.6 317.6,1166.9 642.8,1492.2 643.4,1491.7 
			643.9,1492.2 		"/>
		<polygon fill="#0AA1C4" points="1466.8,1166.9 1390.4,1090.6 1140.9,1340 891.5,1090.6 815.1,1166.9 1140.4,1492.2 1140.9,1491.7 
			1141.5,1492.2 		"/>
		<polygon fill="#0AA1C4" points="1966.7,1166.9 1890.4,1090.6 1640.9,1340 1391.5,1090.6 1315.1,1166.9 1640.4,1492.2 
			1640.9,1491.7 1641.5,1492.2 		"/>
		<polygon fill="#0AA1C4" points="2465.8,1166.9 2389.4,1090.6 2139.9,1340 1890.5,1090.6 1814.1,1166.9 2139.4,1492.2 
			2139.9,1491.7 2140.5,1492.2 		"/>
		<polygon fill="#0AA1C4" points="2965.7,1166.9 2889.4,1090.6 2639.9,1340 2390.5,1090.6 2314.1,1166.9 2639.4,1492.2 
			2639.9,1491.7 2640.5,1492.2 		"/>
		<polygon fill="#0AA1C4" points="3464.7,1166.9 3388.4,1090.6 3138.9,1340 2889.5,1090.6 2813.1,1166.9 3138.4,1492.2 
			3138.9,1491.7 3139.5,1492.2 		"/>
	</g>
	<g>
		<polygon fill="#0AA1C4" points="469.1,1467 392.7,1390.6 143.3,1640.1 -106.2,1390.6 -182.5,1467 142.7,1792.2 143.3,1791.7 
			143.8,1792.2 		"/>
		<polygon fill="#0AA1C4" points="969.1,1467 892.7,1390.6 643.3,1640.1 393.8,1390.6 317.4,1467 642.7,1792.2 643.3,1791.7 
			643.8,1792.2 		"/>
		<polygon fill="#0AA1C4" points="1466.6,1467 1390.3,1390.6 1140.8,1640.1 891.4,1390.6 815,1467 1140.3,1792.2 1140.8,1791.7 
			1141.4,1792.2 		"/>
		<polygon fill="#0AA1C4" points="1966.6,1467 1890.2,1390.6 1640.8,1640.1 1391.3,1390.6 1315,1467 1640.2,1792.2 1640.8,1791.7 
			1641.3,1792.2 		"/>
		<polygon fill="#0AA1C4" points="2465.6,1467 2389.3,1390.6 2139.8,1640.1 1890.4,1390.6 1814,1467 2139.3,1792.2 2139.8,1791.7 
			2140.4,1792.2 		"/>
		<polygon fill="#0AA1C4" points="2965.6,1467 2889.2,1390.6 2639.8,1640.1 2390.3,1390.6 2314,1467 2639.2,1792.2 2639.8,1791.7 
			2640.3,1792.2 		"/>
		<polygon fill="#0AA1C4" points="3464.6,1467 3388.2,1390.6 3138.8,1640.1 2889.3,1390.6 2813,1467 3138.2,1792.2 3138.8,1791.7 
			3139.3,1792.2 		"/>
	</g>
	<g>
		<polygon fill="#0AA1C4" points="468.8,1770 392.4,1693.6 143,1943.1 -106.5,1693.6 -182.8,1770 142.4,2095.3 143,2094.7 
			143.5,2095.3 		"/>
		<polygon fill="#0AA1C4" points="968.8,1770 892.4,1693.6 643,1943.1 393.5,1693.6 317.1,1770 642.4,2095.3 643,2094.7 
			643.5,2095.3 		"/>
		<polygon fill="#0AA1C4" points="1466.3,1770 1390,1693.6 1140.5,1943.1 891.1,1693.6 814.7,1770 1140,2095.3 1140.5,2094.7 
			1141.1,2095.3 		"/>
		<polygon fill="#0AA1C4" points="1966.3,1770 1889.9,1693.6 1640.5,1943.1 1391,1693.6 1314.7,1770 1639.9,2095.3 1640.5,2094.7 
			1641,2095.3 		"/>
		<polygon fill="#0AA1C4" points="2465.3,1770 2389,1693.6 2139.5,1943.1 1890.1,1693.6 1813.7,1770 2139,2095.3 2139.5,2094.7 
			2140.1,2095.3 		"/>
		<polygon fill="#0AA1C4" points="2965.3,1770 2888.9,1693.6 2639.5,1943.1 2390,1693.6 2313.7,1770 2638.9,2095.3 2639.5,2094.7 
			2640,2095.3 		"/>
		<polygon fill="#0AA1C4" points="3464.3,1770 3387.9,1693.6 3138.5,1943.1 2889,1693.6 2812.7,1770 3137.9,2095.3 3138.5,2094.7 
			3139,2095.3 		"/>
	</g>
	<g>
		<polygon fill="#0AA1C4" points="468.7,2070 392.3,1993.7 142.9,2243.1 -106.6,1993.7 -183,2070 142.3,2395.3 142.9,2394.8 
			143.4,2395.3 		"/>
		<polygon fill="#0AA1C4" points="968.7,2070 892.3,1993.7 642.8,2243.1 393.4,1993.7 317,2070 642.3,2395.3 642.8,2394.8 
			643.4,2395.3 		"/>
		<polygon fill="#0AA1C4" points="1466.2,2070 1389.8,1993.7 1140.4,2243.1 890.9,1993.7 814.6,2070 1139.8,2395.3 1140.4,2394.8 
			1140.9,2395.3 		"/>
		<polygon fill="#0AA1C4" points="1966.2,2070 1889.8,1993.7 1640.4,2243.1 1390.9,1993.7 1314.6,2070 1639.8,2395.3 1640.4,2394.8 
			1640.9,2395.3 		"/>
		<polygon fill="#0AA1C4" points="2465.2,2070 2388.8,1993.7 2139.4,2243.1 1889.9,1993.7 1813.6,2070 2138.8,2395.3 2139.4,2394.8 
			2139.9,2395.3 		"/>
		<polygon fill="#0AA1C4" points="2965.2,2070 2888.8,1993.7 2639.4,2243.1 2389.9,1993.7 2313.6,2070 2638.8,2395.3 2639.4,2394.8 
			2639.9,2395.3 		"/>
		<polygon fill="#0AA1C4" points="3464.2,2070 3387.8,1993.7 3138.4,2243.1 2888.9,1993.7 2812.6,2070 3137.8,2395.3 3138.4,2394.8 
			3138.9,2395.3 		"/>
	</g>
	<g>
		<polygon fill="#0AA1C4" points="468.4,2370 392,2293.6 142.6,2543.1 -106.9,2293.6 -183.3,2370 142,2695.3 142.6,2694.7 
			143.1,2695.3 		"/>
		<polygon fill="#0AA1C4" points="968.3,2370 892,2293.6 642.5,2543.1 393.1,2293.6 316.7,2370 642,2695.3 642.5,2694.7 
			643.1,2695.3 		"/>
		<polygon fill="#0AA1C4" points="1465.9,2370 1389.5,2293.6 1140.1,2543.1 890.6,2293.6 814.3,2370 1139.5,2695.3 1140.1,2694.7 
			1140.6,2695.3 		"/>
		<polygon fill="#0AA1C4" points="1965.9,2370 1889.5,2293.6 1640.1,2543.1 1390.6,2293.6 1314.2,2370 1639.5,2695.3 1640.1,2694.7 
			1640.6,2695.3 		"/>
		<polygon fill="#0AA1C4" points="2464.9,2370 2388.5,2293.6 2139.1,2543.1 1889.6,2293.6 1813.3,2370 2138.5,2695.3 2139.1,2694.7 
			2139.6,2695.3 		"/>
		<polygon fill="#0AA1C4" points="2964.9,2370 2888.5,2293.6 2639.1,2543.1 2389.6,2293.6 2313.2,2370 2638.5,2695.3 2639.1,2694.7 
			2639.6,2695.3 		"/>
		<polygon fill="#0AA1C4" points="3463.9,2370 3387.5,2293.6 3138.1,2543.1 2888.6,2293.6 2812.2,2370 3137.5,2695.3 3138.1,2694.7 
			3138.6,2695.3 		"/>
	</g>
	<g>
		<polygon fill="#0AA1C4" points="468.3,2670 391.9,2593.7 142.4,2843.1 -107,2593.7 -183.4,2670 141.9,2995.3 142.4,2994.8 
			143,2995.3 		"/>
		<polygon fill="#0AA1C4" points="968.2,2670 891.9,2593.7 642.4,2843.1 393,2593.7 316.6,2670 641.9,2995.3 642.4,2994.8 
			643,2995.3 		"/>
		<polygon fill="#0AA1C4" points="1465.8,2670 1389.4,2593.7 1140,2843.1 890.5,2593.7 814.1,2670 1139.4,2995.3 1140,2994.8 
			1140.5,2995.3 		"/>
		<polygon fill="#0AA1C4" points="1965.8,2670 1889.4,2593.7 1639.9,2843.1 1390.5,2593.7 1314.1,2670 1639.4,2995.3 1639.9,2994.8 
			1640.5,2995.3 		"/>
		<polygon fill="#0AA1C4" points="2464.8,2670 2388.4,2593.7 2139,2843.1 1889.5,2593.7 1813.1,2670 2138.4,2995.3 2139,2994.8 
			2139.5,2995.3 		"/>
		<polygon fill="#0AA1C4" points="2964.8,2670 2888.4,2593.7 2638.9,2843.1 2389.5,2593.7 2313.1,2670 2638.4,2995.3 2638.9,2994.8 
			2639.5,2995.3 		"/>
		<polygon fill="#0AA1C4" points="3463.8,2670 3387.4,2593.7 3137.9,2843.1 2888.5,2593.7 2812.1,2670 3137.4,2995.3 3137.9,2994.8 
			3138.5,2995.3 		"/>
	</g>
	<g>
		<polygon fill="#0AA1C4" points="469.5,2967.3 393.1,2890.9 143.7,3140.4 -105.8,2890.9 -182.1,2967.3 143.1,3292.6 143.7,3292 
			144.2,3292.6 		"/>
		<polygon fill="#0AA1C4" points="969.5,2967.3 893.1,2890.9 643.7,3140.4 394.2,2890.9 317.8,2967.3 643.1,3292.6 643.7,3292 
			644.2,3292.6 		"/>
		<polygon fill="#0AA1C4" points="1467,2967.3 1390.7,2890.9 1141.2,3140.4 891.8,2890.9 815.4,2967.3 1140.7,3292.6 1141.2,3292 
			1141.8,3292.6 		"/>
		<polygon fill="#0AA1C4" points="1967,2967.3 1890.6,2890.9 1641.2,3140.4 1391.7,2890.9 1315.4,2967.3 1640.6,3292.6 1641.2,3292 
			1641.7,3292.6 		"/>
		<polygon fill="#0AA1C4" points="2466,2967.3 2389.7,2890.9 2140.2,3140.4 1890.8,2890.9 1814.4,2967.3 2139.7,3292.6 2140.2,3292 
			2140.8,3292.6 		"/>
		<polygon fill="#0AA1C4" points="2966,2967.3 2889.6,2890.9 2640.2,3140.4 2390.7,2890.9 2314.4,2967.3 2639.6,3292.6 2640.2,3292 
			2640.7,3292.6 		"/>
		<polygon fill="#0AA1C4" points="3465,2967.3 3388.6,2890.9 3139.2,3140.4 2889.7,2890.9 2813.4,2967.3 3138.6,3292.6 3139.2,3292 
			3139.7,3292.6 		"/>
	</g>
</g>
</svg>
