<?xml version="1.0" encoding="utf-8"?>
<!-- Generator: Adobe Illustrator 18.0.0, SVG Export Plug-In . SVG Version: 6.00 Build 0)  -->
<!DOCTYPE svg PUBLIC "-//W3C//DTD SVG 1.1//EN" "http://www.w3.org/Graphics/SVG/1.1/DTD/svg11.dtd">
<svg version="1.1" id="Layer_1" xmlns="http://www.w3.org/2000/svg" xmlns:xlink="http://www.w3.org/1999/xlink" x="0px" y="0px"
	 viewBox="0 0 1000 1000" enable-background="new 0 0 1000 1000" xml:space="preserve">
<title>Abstract background</title>
<desc>author: David Zydd</desc>
<rect fill="#FFFFFF" width="1000" height="1000"/>
<g>
	<g id="all_7">
		<path fill="#1146B3" d="M0,0h120L87.273,134.545L0,125.455V0z"/>
		<path fill="#0063C4" d="M120,0h24.545l70,54.545l-127.272,80L120,0z"/>
		<path fill="#007CB5" d="M144.545,0h94.546l41.818,62.727l-66.364-8.182L144.545,0z"/>
		<path fill="#076CDA" d="M239.091,0h161.818l2.727,111.818L280.909,62.727L239.091,0z"/>
		<path fill="#004CA8" d="M400.909,0h78.182l2.728,110.909l-78.183,0.909L400.909,0z"/>
		<path fill="#0E6DB0" d="M479.091,0h31.818l34.546,101.818l-63.637,9.091L479.091,0z"/>
		<path fill="#0074D9" d="M510.909,0h94.546l62.727,81.818l-122.727,20L510.909,0z"/>
		<path fill="#1778CD" d="M605.455,0h143.636l-43.636,90.909l-37.273-9.091L605.455,0z"/>
		<path fill="#0068BB" d="M749.091,0h31.818l38.182,128.182L705.455,90.909L749.091,0z"/>
		<path fill="#1784EA" d="M780.909,0h120.909l49.091,58.182l-131.818,70L780.909,0z"/>
		<path fill="#0881E0" d="M901.818,0H1000v55.455l-49.091,2.727L901.818,0z"/>
		<path fill="#003BB5" d="M0,125.455l87.273,9.09l2.727,10L0,156.364V125.455z"/>
		<path fill="#006BBB" d="M87.273,134.545l127.272-80l-41.818,104.546L90,144.545L87.273,134.545z"/>
		<path fill="#0050A7" d="M214.545,54.545l66.364,8.182L277.273,190l-104.546-30.909L214.545,54.545z"/>
		<path fill="#003CD5" d="M280.909,62.727l122.726,49.091l-59.091,79.091L277.273,190L280.909,62.727z"/>
		<path fill="#0045B4" d="M403.636,111.818l78.183-0.909L450,158.182l-105.455,32.727L403.636,111.818z"/>
		<path fill="#004BD8" d="M481.818,110.909l63.637-9.091l-10,119.091L450,158.182L481.818,110.909z"/>
		<path fill="#1C64B4" d="M545.455,101.818l122.727-20l6.363,120l-139.09,19.091L545.455,101.818z"/>
		<path fill="#0045AD" d="M668.182,81.818l37.273,9.091l16.363,50l-47.273,60.909L668.182,81.818z"/>
		<path fill="#0069D3" d="M705.455,90.909l113.636,37.273l21.818,84.545l-119.091-71.818L705.455,90.909z"/>
		<path fill="#1578D8" d="M819.091,128.182l131.818-70l-67.273,134.545l-42.727,20L819.091,128.182z"/>
		<path fill="#0B5AE2" d="M950.909,58.182L1000,55.455V210l-116.364-17.273L950.909,58.182z"/>
		<path fill="#0063DA" d="M0,156.364l90-11.819l15.455,113.637L0,268.182V156.364z"/>
		<path fill="#0463D1" d="M90,144.545l82.727,14.546l3.637,109.091l-70.909-10L90,144.545z"/>
		<path fill="#0054C7" d="M172.727,159.091L277.273,190l-12.728,120.909l-88.181-42.727L172.727,159.091z"/>
		<path fill="#006AC0" d="M277.273,190l67.272,0.909l52.729,60.909l-132.729,59.091L277.273,190z"/>
		<path fill="#265DEB" d="M344.545,190.909L450,158.182l24.545,106.363l-77.271-12.727L344.545,190.909z"/>
		<path fill="#004BC3" d="M450,158.182l85.455,62.727l-9.091,80.909l-51.819-37.273L450,158.182z"/>
		<path fill="#0944D1" d="M535.455,220.909l139.09-19.091l-47.271,70.909l-100.909,29.091L535.455,220.909z"/>
		<path fill="#075DBF" d="M674.545,201.818l47.273-60.909l-3.637,165.455l-90.908-33.637L674.545,201.818z"/>
		<path fill="#1377E9" d="M721.818,140.909l119.091,71.818l-53.636,100l-69.092-6.363L721.818,140.909z"/>
		<path fill="#004E9E" d="M840.909,212.727l42.727-20l67.273,50.909l-163.636,69.091L840.909,212.727z"/>
		<path fill="#0A83BF" d="M883.636,192.727L1000,210v83.636l-49.091-50L883.636,192.727z"/>
		<path fill="#006BA9" d="M0,268.182l105.455-10l6.363,107.273L0,384.545V268.182z"/>
		<path fill="#00419F" d="M105.455,258.182l70.909,10L204.545,360l-92.727,5.455L105.455,258.182z"/>
		<path fill="#0060C8" d="M176.364,268.182l88.181,42.727l43.637,93.636L204.545,360L176.364,268.182z"/>
		<path fill="#0770D4" d="M264.545,310.909l132.729-59.091l-32.729,110.909l-56.363,41.818L264.545,310.909z"/>
		<path fill="#0E4EE1" d="M397.273,251.818l77.271,12.727l-27.271,56.364l-82.729,41.818L397.273,251.818z"/>
		<path fill="#0985D6" d="M474.545,264.545l51.819,37.273l60,19.091H447.273L474.545,264.545z"/>
		<path fill="#0053DA" d="M526.364,301.818l100.909-29.091l-34.547,85.455l-6.362-37.273L526.364,301.818z"/>
		<path fill="#0072CD" d="M627.273,272.727l90.908,33.637l42.728,81.818l-168.183-30L627.273,272.727z"/>
		<path fill="#0085C9" d="M718.182,306.364l69.092,6.363l25.453,93.637l-51.817-18.182L718.182,306.364z"/>
		<path fill="#1078C2" d="M787.273,312.727l163.636-69.091l-84.545,122.729l-53.638,40L787.273,312.727z"/>
		<path fill="#0062D6" d="M950.909,243.636l49.091,50v65.455l-133.636,7.273L950.909,243.636z"/>
		<path fill="#0F89E1" d="M0,384.545l111.818-19.09l-24.545,79.09L0,418.182V384.545z"/>
		<path fill="#1E64D2" d="M111.818,365.455L204.545,360l-57.272,52.727l-60,31.818L111.818,365.455z"/>
		<path fill="#00539E" d="M204.545,360l103.637,44.545L300,447.273l-152.727-34.547L204.545,360z"/>
		<path fill="#0252BB" d="M308.182,404.545l56.363-41.818L400,411.818l-100,35.455L308.182,404.545z"/>
		<path fill="#004FAB" d="M364.545,362.727l82.729-41.818l-15.455,160.909l-31.818-70L364.545,362.727z"/>
		<path fill="#005FC5" d="M447.273,320.909h139.091l-70,111.817l-84.546,49.092L447.273,320.909z"/>
		<path fill="#0070C3" d="M586.364,320.909l6.362,37.273l45.455,80l-121.817-5.455L586.364,320.909z"/>
		<path fill="#0C89EE" d="M592.727,358.182l168.183,30L740,452.727l-101.818-14.545L592.727,358.182z"/>
		<path fill="#0062CA" d="M760.909,388.182l51.817,18.182l-5.453,65.454L740,452.727L760.909,388.182z"/>
		<path fill="#0B74D9" d="M812.727,406.364l53.638-40l5.454,82.727l-64.545,22.728L812.727,406.364z"/>
		<path fill="#1D74D7" d="M866.364,366.364L1000,359.091v97.273l-128.182-7.273L866.364,366.364z"/>
		<path fill="#1A77DE" d="M0,418.182l87.273,26.363l10.909,117.273L0,509.091V418.182z"/>
		<path fill="#268BCD" d="M87.273,444.545l60-31.818l10,168.183l-59.091-19.091L87.273,444.545z"/>
		<path fill="#116BD7" d="M147.273,412.727L300,447.273l4.545,58.182l-147.272,75.454L147.273,412.727z"/>
		<path fill="#0160A0" d="M300,447.273l100-35.455l-7.273,142.727l-88.182-49.09L300,447.273z"/>
		<path fill="#1272E4" d="M400,411.818l31.818,70l64.546,66.363l-103.638,6.363L400,411.818z"/>
		<path fill="#1B62BE" d="M431.818,481.818l84.546-49.092l41.817,94.547l-61.817,20.908L431.818,481.818z"/>
		<path fill="#0044BD" d="M516.364,432.727l121.817,5.455l14.545,140l-94.545-50.908L516.364,432.727z"/>
		<path fill="#0356EC" d="M638.182,438.182L740,452.727l-19.091,112.728l-68.183,12.727L638.182,438.182z"/>
		<path fill="#005CA5" d="M740,452.727l67.273,19.092l30,102.727l-116.364-9.09L740,452.727z"/>
		<path fill="#0387CB" d="M807.273,471.818l64.545-22.728l73.637,110l-108.182,15.454L807.273,471.818z"/>
		<path fill="#0065BA" d="M871.818,449.091L1000,456.364v68.181l-54.545,34.546L871.818,449.091z"/>
		<path fill="#026CEE" d="M0,509.091l98.182,52.728l23.636,44.546L0,650.909V509.091z"/>
		<path fill="#0054B5" d="M98.182,561.818l59.091,19.091l56.363,84.546l-91.818-59.091L98.182,561.818z"/>
		<path fill="#005BC7" d="M157.273,580.909l147.272-75.454L300,646.364l-86.364,19.091L157.273,580.909z"/>
		<path fill="#0F68D8" d="M304.545,505.455l88.182,49.09l-70.908,124.546L300,646.364L304.545,505.455z"/>
		<path fill="#0069A5" d="M392.727,554.545l103.638-6.363l-54.546,125.454l-120,5.455L392.727,554.545z"/>
		<path fill="#0094DB" d="M496.364,548.182l61.817-20.908l-43.637,143.636l-72.727,2.727L496.364,548.182z"/>
		<path fill="#0043A6" d="M558.182,527.273l94.545,50.908l-39.091,90l-99.091,2.728L558.182,527.273z"/>
		<path fill="#1F86E0" d="M652.727,578.182l68.183-12.727l48.182,52.727l-155.455,50L652.727,578.182z"/>
		<path fill="#186FDE" d="M720.909,565.455l116.364,9.09l-44.547,31.819l-23.636,11.817L720.909,565.455z"/>
		<path fill="#0E89BF" d="M837.273,574.545l108.182-15.454l-56.364,114.545l-96.364-67.271L837.273,574.545z"/>
		<path fill="#0041A1" d="M945.455,559.091L1000,524.545V630l-110.909,43.636L945.455,559.091z"/>
		<path fill="#0085D0" d="M0,650.909l121.818-44.545L48.182,733.636L0,757.273V650.909z"/>
		<path fill="#005ECE" d="M121.818,606.364l91.818,59.091l-7.272,67.272l-158.182,0.909L121.818,606.364z"/>
		<path fill="#0060C3" d="M213.636,665.455L300,646.364l-35.455,111.817l-58.181-25.455L213.636,665.455z"/>
		<path fill="#1E53B8" d="M300,646.364l21.818,32.727l19.091,86.364l-76.364-7.273L300,646.364z"/>
		<path fill="#0065A9" d="M321.818,679.091l120-5.455l-20,76.364l-80.909,15.455L321.818,679.091z"/>
		<path fill="#0C6DAC" d="M441.818,673.636l72.727-2.727l23.637,82.727L421.818,750L441.818,673.636z"/>
		<path fill="#047EDD" d="M514.545,670.909l99.091-2.728l61.819,17.273l-137.273,68.181L514.545,670.909z"/>
		<path fill="#0C4DBE" d="M613.636,668.182l155.455-50l-80.909,144.545l-12.727-77.272L613.636,668.182z"/>
		<path fill="#0C8ED1" d="M769.091,618.182l23.636-11.817l33.638,112.727l-138.183,43.636L769.091,618.182z"/>
		<path fill="#0058A6" d="M792.727,606.364l96.364,67.271l55.454,10l-118.181,35.455L792.727,606.364z"/>
		<path fill="#247FE0" d="M889.091,673.636L1000,630v53.636h-55.455L889.091,673.636z"/>
		<path fill="#005CDF" d="M0,757.273l48.182-23.638L120,831.818L0,818.182V757.273z"/>
		<path fill="#006CB5" d="M48.182,733.636l158.182-0.909l-5.455,115.455L120,831.818L48.182,733.636z"/>
		<path fill="#0958BC" d="M206.364,732.727l58.181,25.455l-0.909,62.728l-62.727,27.272L206.364,732.727z"/>
		<path fill="#006D9F" d="M264.545,758.182l76.364,7.273L340,790l-76.364,30.909L264.545,758.182z"/>
		<path fill="#0052B7" d="M340.909,765.455L421.818,750l-6.363,91.818L340,790L340.909,765.455z"/>
		<path fill="#0959E9" d="M421.818,750l116.363,3.636L520,840.909l-104.545,0.909L421.818,750z"/>
		<path fill="#006DB6" d="M538.182,753.636l137.273-68.181l-34.546,99.09L520,840.909L538.182,753.636z"/>
		<path fill="#006AAD" d="M675.455,685.455l12.727,77.272l30.909,40l-78.182-18.182L675.455,685.455z"/>
		<path fill="#005FAB" d="M688.182,762.727l138.183-43.636L830,803.636l-110.909-0.909L688.182,762.727z"/>
		<path fill="#1060CB" d="M826.364,719.091l118.181-35.455l-30,146.364L830,803.636L826.364,719.091z"/>
		<path fill="#1169D7" d="M944.545,683.636H1000v172.729L914.545,830L944.545,683.636z"/>
		<path fill="#1976D1" d="M0,818.182l120,13.637L50.909,880L0,874.545V818.182z"/>
		<path fill="#0046BA" d="M120,831.818l80.909,16.363l-25.454,55.454L50.909,880L120,831.818z"/>
		<path fill="#0F82D0" d="M200.909,848.182l62.727-27.272l12.729,77.272l-100.909,5.454L200.909,848.182z"/>
		<path fill="#007ADB" d="M263.636,820.909L340,790l45.455,117.273l-109.091-9.092L263.636,820.909z"/>
		<path fill="#156EB0" d="M340,790l75.455,51.818l72.726,85.455l-102.726-20L340,790z"/>
		<path fill="#217BE5" d="M415.455,841.818L520,840.909l6.364,70l-38.183,16.364L415.455,841.818z"/>
		<path fill="#064EBE" d="M520,840.909l120.909-56.364l22.727,159.091l-137.271-32.727L520,840.909z"/>
		<path fill="#2168C2" d="M640.909,784.545l78.182,18.182l32.728,88.183l-88.183,52.727L640.909,784.545z"/>
		<path fill="#0077DF" d="M719.091,802.727L830,803.636l-50,122.729l-28.182-35.455L719.091,802.727z"/>
		<path fill="#075FC7" d="M830,803.636L914.545,830l38.182,84.545L780,926.364L830,803.636z"/>
		<path fill="#006CCD" d="M914.545,830L1000,856.364v86.362l-47.273-28.182L914.545,830z"/>
		<path fill="#1F75D0" d="M0,874.545L50.909,880l26.364,120H0V874.545z"/>
		<path fill="#006DCA" d="M50.909,880l124.546,23.636L189.091,1000H77.273L50.909,880z"/>
		<path fill="#1790C4" d="M175.455,903.636l100.909-5.454L250,1000h-60.909L175.455,903.636z"/>
		<path fill="#0461BA" d="M276.364,898.182l109.091,9.092L361.818,1000H250L276.364,898.182z"/>
		<path fill="#0F5FC2" d="M385.455,907.273l102.726,20l5.454,72.727H361.818L385.455,907.273z"/>
		<path fill="#0072CA" d="M488.182,927.273l38.183-16.364L543.636,1000h-50L488.182,927.273z"/>
		<path fill="#0071B1" d="M526.364,910.909l137.271,32.727l10,56.364h-130L526.364,910.909z"/>
		<path fill="#00439B" d="M663.636,943.636l88.183-52.727L754.545,1000h-80.909L663.636,943.636z"/>
		<path fill="#0069DC" d="M751.818,890.909L780,926.364l8.182,73.636h-33.637L751.818,890.909z"/>
		<path fill="#0159B4" d="M780,926.364l172.727-11.819L881.818,1000h-93.637L780,926.364z"/>
		<path fill="#0067B9" d="M952.727,914.545L1000,942.727V1000H881.818L952.727,914.545z"/>
	</g>
</g>
</svg>
