<?xml version="1.0" encoding="utf-8"?>
<!-- Generator: Adobe Illustrator 18.0.0, SVG Export Plug-In . SVG Version: 6.00 Build 0)  -->
<!DOCTYPE svg PUBLIC "-//W3C//DTD SVG 1.1//EN" "http://www.w3.org/Graphics/SVG/1.1/DTD/svg11.dtd">
<svg version="1.1" id="Layer_1" xmlns="http://www.w3.org/2000/svg" xmlns:xlink="http://www.w3.org/1999/xlink" x="0px" y="0px"
	 viewBox="0 0 2000 1500" enable-background="new 0 0 2000 1500" xml:space="preserve">
<g>
	<defs>
		<rect id="SVGID_1_" x="0" y="0" width="2000" height="1500"/>
	</defs>
	<clipPath id="SVGID_2_">
		<use xlink:href="#SVGID_1_"  overflow="visible"/>
	</clipPath>
	<g clip-path="url(#SVGID_2_)">
		<polygon fill="#0075D2" points="61.635,-62.651 90.959,-11.861 120.282,38.93 61.635,38.93 2.985,38.93 32.312,-11.861 		"/>
		<polygon fill="#007AD7" points="178.93,-62.651 208.253,-11.861 237.578,38.93 178.93,38.93 120.282,38.93 149.607,-11.861 		"/>
		<polygon fill="#007DDC" points="296.226,-62.651 325.549,-11.861 354.875,38.93 296.226,38.93 237.578,38.93 266.901,-11.861 		
			"/>
		<polygon fill="#007FDF" points="413.522,-62.651 442.846,-11.861 472.168,38.93 413.522,38.93 354.875,38.93 384.198,-11.861 		
			"/>
		<polygon fill="#0084E2" points="530.816,-62.651 560.141,-11.861 589.465,38.93 530.816,38.93 472.168,38.93 501.494,-11.861 		
			"/>
		<polygon fill="#0088E4" points="648.112,-62.651 677.437,-11.861 706.76,38.93 648.112,38.93 589.465,38.93 618.789,-11.861 		"/>
		<polygon fill="#008DE7" points="765.409,-62.651 794.732,-11.861 824.057,38.93 765.409,38.93 706.76,38.93 736.084,-11.861 		"/>
		<polygon fill="#0093EA" points="882.705,-62.651 912.028,-11.861 941.352,38.93 882.705,38.93 824.057,38.93 853.382,-11.861 		
			"/>
		<polygon fill="#0098EC" points="1000,-62.651 1029.324,-11.861 1058.648,38.93 1000,38.93 941.352,38.93 970.676,-11.861 		"/>
		<polygon fill="#009CEE" points="1117.295,-62.651 1146.619,-11.861 1175.943,38.93 1117.295,38.93 1058.648,38.93 
			1087.973,-11.861 		"/>
		<polygon fill="#009EEE" points="1234.592,-62.651 1263.914,-11.861 1293.238,38.93 1234.592,38.93 1175.943,38.93 
			1205.268,-11.861 		"/>
		<polygon fill="#009FEF" points="1351.889,-62.651 1381.211,-11.861 1410.534,38.93 1351.889,38.93 1293.238,38.93 
			1322.564,-11.861 		"/>
		<polygon fill="#00A3F0" points="1469.184,-62.651 1498.507,-11.861 1527.832,38.93 1469.184,38.93 1410.534,38.93 
			1439.859,-11.861 		"/>
		<polygon fill="#00A7F2" points="1586.479,-62.651 1615.803,-11.861 1645.126,38.93 1586.479,38.93 1527.832,38.93 
			1557.154,-11.861 		"/>
		<polygon fill="#00A7F1" points="1703.773,-62.651 1733.098,-11.861 1762.422,38.93 1703.773,38.93 1645.126,38.93 
			1674.451,-11.861 		"/>
		<polygon fill="#00ABF1" points="1821.07,-62.651 1850.395,-11.861 1879.718,38.93 1821.07,38.93 1762.422,38.93 1791.748,-11.861 
					"/>
		<polygon fill="#00AAF1" points="1938.367,-62.651 1967.689,-11.861 1997.015,38.93 1938.367,38.93 1879.718,38.93 
			1909.042,-11.861 		"/>
		<polygon fill="#00A8EE" points="2055.66,-62.651 2084.984,-11.861 2114.31,38.93 2055.66,38.93 1997.015,38.93 2026.338,-11.861 
					"/>
		<polygon fill="#007CDA" points="2.985,38.93 32.309,89.72 61.635,140.512 2.985,140.512 -55.661,140.512 -26.338,89.72 		"/>
		<polygon fill="#0082DF" points="120.282,38.93 149.605,89.72 178.93,140.512 120.282,140.512 61.635,140.512 90.959,89.72 		"/>
		<polygon fill="#0088E4" points="237.578,38.93 266.901,89.72 296.226,140.512 237.578,140.512 178.93,140.512 208.256,89.72 		"/>
		<polygon fill="#008BE8" points="354.875,38.93 384.197,89.72 413.522,140.512 354.875,140.512 296.226,140.512 325.551,89.72 		
			"/>
		<polygon fill="#0090EC" points="472.168,38.93 501.492,89.72 530.816,140.512 472.168,140.512 413.522,140.512 442.846,89.72 		
			"/>
		<polygon fill="#0094EE" points="589.465,38.93 618.789,89.72 648.112,140.512 589.465,140.512 530.816,140.512 560.143,89.72 		
			"/>
		<polygon fill="#0098F1" points="706.76,38.93 736.084,89.72 765.409,140.512 706.76,140.512 648.112,140.512 677.438,89.72 		"/>
		<polygon fill="#009EF3" points="824.057,38.93 853.381,89.72 882.705,140.512 824.057,140.512 765.409,140.512 794.732,89.72 		
			"/>
		<polygon fill="#00A1F3" points="941.352,38.93 970.676,89.72 1000,140.512 941.352,140.512 882.705,140.512 912.028,89.72 		"/>
		<polygon fill="#00A5F5" points="1058.648,38.93 1087.973,89.72 1117.295,140.512 1058.648,140.512 1000,140.512 1029.324,89.72 		
			"/>
		<polygon fill="#00AAF6" points="1175.943,38.93 1205.267,89.72 1234.592,140.512 1175.943,140.512 1117.295,140.512 
			1146.62,89.72 		"/>
		<polygon fill="#00B2F9" points="1293.238,38.93 1322.563,89.72 1351.889,140.512 1293.238,140.512 1234.592,140.512 
			1263.917,89.72 		"/>
		<polygon fill="#00B1F8" points="1410.534,38.93 1439.859,89.72 1469.184,140.512 1410.534,140.512 1351.889,140.512 
			1381.211,89.72 		"/>
		<polygon fill="#00B0F8" points="1527.832,38.93 1557.154,89.72 1586.479,140.512 1527.832,140.512 1469.184,140.512 
			1498.508,89.72 		"/>
		<polygon fill="#00AFF7" points="1645.126,38.93 1674.45,89.72 1703.773,140.512 1645.126,140.512 1586.479,140.512 
			1615.803,89.72 		"/>
		<polygon fill="#00B3F8" points="1762.422,38.93 1791.745,89.72 1821.07,140.512 1762.422,140.512 1703.773,140.512 
			1733.098,89.72 		"/>
		<polygon fill="#00B7F9" points="1879.718,38.93 1909.042,89.72 1938.367,140.512 1879.718,140.512 1821.07,140.512 
			1850.395,89.72 		"/>
		<polygon fill="#06C1FF" points="1997.015,38.93 2026.338,89.72 2055.66,140.512 1997.015,140.512 1938.367,140.512 
			1967.691,89.72 		"/>
		<polygon fill="#0076D2" points="2.985,38.93 32.309,-11.861 61.635,-62.651 2.985,-62.651 -55.661,-62.651 -26.338,-11.861 		"/>
		<polygon fill="#007BD6" points="120.282,38.93 149.605,-11.861 178.93,-62.651 120.282,-62.651 61.635,-62.651 90.959,-11.861 		
			"/>
		<polygon fill="#007EDC" points="237.578,38.93 266.901,-11.861 296.226,-62.651 237.578,-62.651 178.93,-62.651 208.256,-11.861 
					"/>
		<polygon fill="#0081E0" points="354.875,38.93 384.197,-11.861 413.522,-62.651 354.875,-62.651 296.226,-62.651 325.551,-11.861 
					"/>
		<polygon fill="#0085E3" points="472.168,38.93 501.492,-11.861 530.816,-62.651 472.168,-62.651 413.522,-62.651 442.846,-11.861 
					"/>
		<polygon fill="#008AE5" points="589.465,38.93 618.789,-11.861 648.112,-62.651 589.465,-62.651 530.816,-62.651 560.143,-11.861 
					"/>
		<polygon fill="#008DE8" points="706.76,38.93 736.084,-11.861 765.409,-62.651 706.76,-62.651 648.112,-62.651 677.438,-11.861 		
			"/>
		<polygon fill="#0094EB" points="824.057,38.93 853.381,-11.861 882.705,-62.651 824.057,-62.651 765.409,-62.651 794.732,-11.861 
					"/>
		<polygon fill="#0099ED" points="941.352,38.93 970.676,-11.861 1000,-62.651 941.352,-62.651 882.705,-62.651 912.028,-11.861 		
			"/>
		<polygon fill="#009CEE" points="1058.648,38.93 1087.973,-11.861 1117.295,-62.651 1058.648,-62.651 1000,-62.651 
			1029.324,-11.861 		"/>
		<polygon fill="#00A2F1" points="1175.943,38.93 1205.267,-11.861 1234.592,-62.651 1175.943,-62.651 1117.295,-62.651 
			1146.62,-11.861 		"/>
		<polygon fill="#00A1F0" points="1293.238,38.93 1322.563,-11.861 1351.889,-62.651 1293.238,-62.651 1234.592,-62.651 
			1263.917,-11.861 		"/>
		<polygon fill="#00A4F1" points="1410.534,38.93 1439.859,-11.861 1469.184,-62.651 1410.534,-62.651 1351.889,-62.651 
			1381.211,-11.861 		"/>
		<polygon fill="#00AAF3" points="1527.832,38.93 1557.154,-11.861 1586.479,-62.651 1527.832,-62.651 1469.184,-62.651 
			1498.508,-11.861 		"/>
		<polygon fill="#00A9F3" points="1645.126,38.93 1674.45,-11.861 1703.773,-62.651 1645.126,-62.651 1586.479,-62.651 
			1615.803,-11.861 		"/>
		<polygon fill="#00ACF3" points="1762.422,38.93 1791.745,-11.861 1821.07,-62.651 1762.422,-62.651 1703.773,-62.651 
			1733.098,-11.861 		"/>
		<polygon fill="#00ACF2" points="1879.718,38.93 1909.042,-11.861 1938.367,-62.651 1879.718,-62.651 1821.07,-62.651 
			1850.395,-11.861 		"/>
		<polygon fill="#00ADF3" points="1997.015,38.93 2026.338,-11.861 2055.66,-62.651 1997.015,-62.651 1938.367,-62.651 
			1967.691,-11.861 		"/>
		<polygon fill="#007EDD" points="-55.661,140.512 -26.338,89.72 2.985,38.93 -55.661,38.93 -114.31,38.93 -84.985,89.72 		"/>
		<polygon fill="#0084E1" points="61.635,140.512 90.959,89.72 120.282,38.93 61.635,38.93 2.985,38.93 32.312,89.72 		"/>
		<polygon fill="#008CE7" points="178.93,140.512 208.253,89.72 237.578,38.93 178.93,38.93 120.282,38.93 149.607,89.72 		"/>
		<polygon fill="#0091EC" points="296.226,140.512 325.549,89.72 354.875,38.93 296.226,38.93 237.578,38.93 266.901,89.72 		"/>
		<polygon fill="#0095F0" points="413.522,140.512 442.846,89.72 472.168,38.93 413.522,38.93 354.875,38.93 384.198,89.72 		"/>
		<polygon fill="#0099F2" points="530.816,140.512 560.141,89.72 589.465,38.93 530.816,38.93 472.168,38.93 501.494,89.72 		"/>
		<polygon fill="#009DF3" points="648.112,140.512 677.437,89.72 706.76,38.93 648.112,38.93 589.465,38.93 618.789,89.72 		"/>
		<polygon fill="#00A0F4" points="765.409,140.512 794.732,89.72 824.057,38.93 765.409,38.93 706.76,38.93 736.084,89.72 		"/>
		<polygon fill="#00A4F6" points="882.705,140.512 912.028,89.72 941.352,38.93 882.705,38.93 824.057,38.93 853.382,89.72 		"/>
		<polygon fill="#00A9F8" points="1000,140.512 1029.324,89.72 1058.648,38.93 1000,38.93 941.352,38.93 970.676,89.72 		"/>
		<polygon fill="#00AFF9" points="1117.295,140.512 1146.619,89.72 1175.943,38.93 1117.295,38.93 1058.648,38.93 1087.973,89.72 		
			"/>
		<polygon fill="#00BAFD" points="1234.592,140.512 1263.914,89.72 1293.238,38.93 1234.592,38.93 1175.943,38.93 1205.268,89.72 		
			"/>
		<polygon fill="#00BBFF" points="1351.889,140.512 1381.211,89.72 1410.534,38.93 1351.889,38.93 1293.238,38.93 1322.564,89.72 		
			"/>
		<polygon fill="#00B8FD" points="1469.184,140.512 1498.507,89.72 1527.832,38.93 1469.184,38.93 1410.534,38.93 1439.859,89.72 		
			"/>
		<polygon fill="#00B4FB" points="1586.479,140.512 1615.803,89.72 1645.126,38.93 1586.479,38.93 1527.832,38.93 1557.154,89.72 		
			"/>
		<polygon fill="#00B5FB" points="1703.773,140.512 1733.098,89.72 1762.422,38.93 1703.773,38.93 1645.126,38.93 1674.451,89.72 		
			"/>
		<polygon fill="#00BDFD" points="1821.07,140.512 1850.395,89.72 1879.718,38.93 1821.07,38.93 1762.422,38.93 1791.748,89.72 		
			"/>
		<polygon fill="#0BC4FF" points="1938.367,140.512 1967.689,89.72 1997.015,38.93 1938.367,38.93 1879.718,38.93 1909.042,89.72 		
			"/>
		<polygon fill="#0091EC" points="61.635,140.512 90.959,191.302 120.282,242.094 61.635,242.094 2.985,242.094 32.312,191.302 		
			"/>
		<polygon fill="#0097F0" points="178.93,140.512 208.253,191.302 237.578,242.094 178.93,242.094 120.282,242.094 149.607,191.302 
					"/>
		<polygon fill="#009BF3" points="296.226,140.512 325.549,191.302 354.875,242.094 296.226,242.094 237.578,242.094 
			266.901,191.302 		"/>
		<polygon fill="#00A0F5" points="413.522,140.512 442.846,191.302 472.168,242.094 413.522,242.094 354.875,242.094 
			384.198,191.302 		"/>
		<polygon fill="#00A5F8" points="530.816,140.512 560.141,191.302 589.465,242.094 530.816,242.094 472.168,242.094 
			501.494,191.302 		"/>
		<polygon fill="#00ABFA" points="648.112,140.512 677.437,191.302 706.76,242.094 648.112,242.094 589.465,242.094 
			618.789,191.302 		"/>
		<polygon fill="#00B2FD" points="765.409,140.512 794.732,191.302 824.057,242.094 765.409,242.094 706.76,242.094 
			736.084,191.302 		"/>
		<polygon fill="#00B5FE" points="882.705,140.512 912.028,191.302 941.352,242.094 882.705,242.094 824.057,242.094 
			853.382,191.302 		"/>
		<polygon fill="#01BAFF" points="1000,140.512 1029.324,191.302 1058.648,242.094 1000,242.094 941.352,242.094 970.676,191.302 		
			"/>
		<polygon fill="#04BDFF" points="1117.295,140.512 1146.619,191.302 1175.943,242.094 1117.295,242.094 1058.648,242.094 
			1087.973,191.302 		"/>
		<polygon fill="#27C3FF" points="1234.592,140.512 1263.914,191.302 1293.238,242.094 1234.592,242.094 1175.943,242.094 
			1205.268,191.302 		"/>
		<polygon fill="#30C5FF" points="1351.889,140.512 1381.211,191.302 1410.534,242.094 1351.889,242.094 1293.238,242.094 
			1322.564,191.302 		"/>
		<polygon fill="#1FC5FF" points="1469.184,140.512 1498.507,191.302 1527.832,242.094 1469.184,242.094 1410.534,242.094 
			1439.859,191.302 		"/>
		<polygon fill="#14C3FF" points="1586.479,140.512 1615.803,191.302 1645.126,242.094 1586.479,242.094 1527.832,242.094 
			1557.154,191.302 		"/>
		<polygon fill="#17C6FF" points="1703.773,140.512 1733.098,191.302 1762.422,242.094 1703.773,242.094 1645.126,242.094 
			1674.451,191.302 		"/>
		<polygon fill="#28CBFF" points="1821.07,140.512 1850.395,191.302 1879.718,242.094 1821.07,242.094 1762.422,242.094 
			1791.748,191.302 		"/>
		<polygon fill="#4CCFFF" points="1938.367,140.512 1967.689,191.302 1997.015,242.094 1938.367,242.094 1879.718,242.094 
			1909.042,191.302 		"/>
		<polygon fill="#53D1FF" points="2055.66,140.512 2084.984,191.302 2114.31,242.094 2055.66,242.094 1997.015,242.094 
			2026.338,191.302 		"/>
		<polygon fill="#009EF3" points="2.985,242.094 32.309,292.883 61.635,343.674 2.985,343.674 -55.661,343.674 -26.338,292.883 		
			"/>
		<polygon fill="#00A5F7" points="120.282,242.094 149.605,292.883 178.93,343.674 120.282,343.674 61.635,343.674 90.959,292.883 
					"/>
		<polygon fill="#00A9FA" points="237.578,242.094 266.901,292.883 296.226,343.674 237.578,343.674 178.93,343.674 
			208.256,292.883 		"/>
		<polygon fill="#00ADFC" points="354.875,242.094 384.197,292.883 413.522,343.674 354.875,343.674 296.226,343.674 
			325.551,292.883 		"/>
		<polygon fill="#00B2FF" points="472.168,242.094 501.492,292.883 530.816,343.674 472.168,343.674 413.522,343.674 
			442.846,292.883 		"/>
		<polygon fill="#02B6FF" points="589.465,242.094 618.789,292.883 648.112,343.674 589.465,343.674 530.816,343.674 
			560.143,292.883 		"/>
		<polygon fill="#04BBFF" points="706.76,242.094 736.084,292.883 765.409,343.674 706.76,343.674 648.112,343.674 677.438,292.883 
					"/>
		<polygon fill="#0BBFFF" points="824.057,242.094 853.381,292.883 882.705,343.674 824.057,343.674 765.409,343.674 
			794.732,292.883 		"/>
		<polygon fill="#1FC2FF" points="941.352,242.094 970.676,292.883 1000,343.674 941.352,343.674 882.705,343.674 912.028,292.883 
					"/>
		<polygon fill="#3AC4FF" points="1058.648,242.094 1087.973,292.883 1117.295,343.674 1058.648,343.674 1000,343.674 
			1029.324,292.883 		"/>
		<polygon fill="#4FC8FF" points="1175.943,242.094 1205.267,292.883 1234.592,343.674 1175.943,343.674 1117.295,343.674 
			1146.62,292.883 		"/>
		<polygon fill="#5DCCFF" points="1293.238,242.094 1322.563,292.883 1351.889,343.674 1293.238,343.674 1234.592,343.674 
			1263.917,292.883 		"/>
		<polygon fill="#70D2FF" points="1410.534,242.094 1439.859,292.883 1469.184,343.674 1410.534,343.674 1351.889,343.674 
			1381.211,292.883 		"/>
		<polygon fill="#74D5FF" points="1527.832,242.094 1557.154,292.883 1586.479,343.674 1527.832,343.674 1469.184,343.674 
			1498.508,292.883 		"/>
		<polygon fill="#8CDFFF" points="1645.126,242.094 1674.45,292.883 1703.773,343.674 1645.126,343.674 1586.479,343.674 
			1615.803,292.883 		"/>
		<polygon fill="#87DFFF" points="1762.422,242.094 1791.745,292.883 1821.07,343.674 1762.422,343.674 1703.773,343.674 
			1733.098,292.883 		"/>
		<polygon fill="#8CE2FF" points="1879.718,242.094 1909.042,292.883 1938.367,343.674 1879.718,343.674 1821.07,343.674 
			1850.395,292.883 		"/>
		<polygon fill="#A9E8FA" points="1997.015,242.094 2026.338,292.883 2055.66,343.674 1997.015,343.674 1938.367,343.674 
			1967.691,292.883 		"/>
		<polygon fill="#0092ED" points="2.985,242.094 32.309,191.302 61.635,140.512 2.985,140.512 -55.661,140.512 -26.338,191.302 		
			"/>
		<polygon fill="#0099F2" points="120.282,242.094 149.605,191.302 178.93,140.512 120.282,140.512 61.635,140.512 90.959,191.302 
					"/>
		<polygon fill="#009EF5" points="237.578,242.094 266.901,191.302 296.226,140.512 237.578,140.512 178.93,140.512 
			208.256,191.302 		"/>
		<polygon fill="#00A2F7" points="354.875,242.094 384.197,191.302 413.522,140.512 354.875,140.512 296.226,140.512 
			325.551,191.302 		"/>
		<polygon fill="#00A7FA" points="472.168,242.094 501.492,191.302 530.816,140.512 472.168,140.512 413.522,140.512 
			442.846,191.302 		"/>
		<polygon fill="#00ADFC" points="589.465,242.094 618.789,191.302 648.112,140.512 589.465,140.512 530.816,140.512 
			560.143,191.302 		"/>
		<polygon fill="#00B5FF" points="706.76,242.094 736.084,191.302 765.409,140.512 706.76,140.512 648.112,140.512 677.438,191.302 
					"/>
		<polygon fill="#02B9FF" points="824.057,242.094 853.381,191.302 882.705,140.512 824.057,140.512 765.409,140.512 
			794.732,191.302 		"/>
		<polygon fill="#02BCFF" points="941.352,242.094 970.676,191.302 1000,140.512 941.352,140.512 882.705,140.512 912.028,191.302 
					"/>
		<polygon fill="#0BC0FF" points="1058.648,242.094 1087.973,191.302 1117.295,140.512 1058.648,140.512 1000,140.512 
			1029.324,191.302 		"/>
		<polygon fill="#22C3FF" points="1175.943,242.094 1205.267,191.302 1234.592,140.512 1175.943,140.512 1117.295,140.512 
			1146.62,191.302 		"/>
		<polygon fill="#4DC9FF" points="1293.238,242.094 1322.563,191.302 1351.889,140.512 1293.238,140.512 1234.592,140.512 
			1263.917,191.302 		"/>
		<polygon fill="#43C8FF" points="1410.534,242.094 1439.859,191.302 1469.184,140.512 1410.534,140.512 1351.889,140.512 
			1381.211,191.302 		"/>
		<polygon fill="#2DC7FF" points="1527.832,242.094 1557.154,191.302 1586.479,140.512 1527.832,140.512 1469.184,140.512 
			1498.508,191.302 		"/>
		<polygon fill="#3ECAFF" points="1645.126,242.094 1674.45,191.302 1703.773,140.512 1645.126,140.512 1586.479,140.512 
			1615.803,191.302 		"/>
		<polygon fill="#52D0FF" points="1762.422,242.094 1791.745,191.302 1821.07,140.512 1762.422,140.512 1703.773,140.512 
			1733.098,191.302 		"/>
		<polygon fill="#5FD4FF" points="1879.718,242.094 1909.042,191.302 1938.367,140.512 1879.718,140.512 1821.07,140.512 
			1850.395,191.302 		"/>
		<polygon fill="#6ED7FF" points="1997.015,242.094 2026.338,191.302 2055.66,140.512 1997.015,140.512 1938.367,140.512 
			1967.691,191.302 		"/>
		<polygon fill="#00A0F4" points="-55.661,343.674 -26.338,292.883 2.985,242.094 -55.661,242.094 -114.31,242.094 -84.985,292.883 
					"/>
		<polygon fill="#00A6F7" points="61.635,343.674 90.959,292.883 120.282,242.094 61.635,242.094 2.985,242.094 32.312,292.883 		
			"/>
		<polygon fill="#00ACFA" points="178.93,343.674 208.253,292.883 237.578,242.094 178.93,242.094 120.282,242.094 149.607,292.883 
					"/>
		<polygon fill="#00B1FD" points="296.226,343.674 325.549,292.883 354.875,242.094 296.226,242.094 237.578,242.094 
			266.901,292.883 		"/>
		<polygon fill="#01B5FF" points="413.522,343.674 442.846,292.883 472.168,242.094 413.522,242.094 354.875,242.094 
			384.198,292.883 		"/>
		<polygon fill="#03B8FF" points="530.816,343.674 560.141,292.883 589.465,242.094 530.816,242.094 472.168,242.094 
			501.494,292.883 		"/>
		<polygon fill="#08BCFF" points="648.112,343.674 677.437,292.883 706.76,242.094 648.112,242.094 589.465,242.094 
			618.789,292.883 		"/>
		<polygon fill="#14BFFF" points="765.409,343.674 794.732,292.883 824.057,242.094 765.409,242.094 706.76,242.094 
			736.084,292.883 		"/>
		<polygon fill="#34C2FF" points="882.705,343.674 912.028,292.883 941.352,242.094 882.705,242.094 824.057,242.094 
			853.382,292.883 		"/>
		<polygon fill="#46C6FF" points="1000,343.674 1029.324,292.883 1058.648,242.094 1000,242.094 941.352,242.094 970.676,292.883 		
			"/>
		<polygon fill="#5ECCFF" points="1117.295,343.674 1146.619,292.883 1175.943,242.094 1117.295,242.094 1058.648,242.094 
			1087.973,292.883 		"/>
		<polygon fill="#6BCFFF" points="1234.592,343.674 1263.914,292.883 1293.238,242.094 1234.592,242.094 1175.943,242.094 
			1205.268,292.883 		"/>
		<polygon fill="#7ED9FF" points="1351.889,343.674 1381.211,292.883 1410.534,242.094 1351.889,242.094 1293.238,242.094 
			1322.564,292.883 		"/>
		<polygon fill="#82DAFF" points="1469.184,343.674 1498.507,292.883 1527.832,242.094 1469.184,242.094 1410.534,242.094 
			1439.859,292.883 		"/>
		<polygon fill="#89DEFF" points="1586.479,343.674 1615.803,292.883 1645.126,242.094 1586.479,242.094 1527.832,242.094 
			1557.154,292.883 		"/>
		<polygon fill="#96E5FD" points="1703.773,343.674 1733.098,292.883 1762.422,242.094 1703.773,242.094 1645.126,242.094 
			1674.451,292.883 		"/>
		<polygon fill="#9DE8FD" points="1821.07,343.674 1850.395,292.883 1879.718,242.094 1821.07,242.094 1762.422,242.094 
			1791.748,292.883 		"/>
		<polygon fill="#B9EDF6" points="1938.367,343.674 1967.689,292.883 1997.015,242.094 1938.367,242.094 1879.718,242.094 
			1909.042,292.883 		"/>
		<polygon fill="#00B3FA" points="61.635,343.675 90.959,394.465 120.282,445.255 61.635,445.255 2.985,445.255 32.312,394.465 		
			"/>
		<polygon fill="#03BBFF" points="178.93,343.675 208.253,394.465 237.578,445.255 178.93,445.255 120.282,445.255 149.607,394.465 
					"/>
		<polygon fill="#0FBEFF" points="296.226,343.675 325.549,394.465 354.875,445.255 296.226,445.255 237.578,445.255 
			266.901,394.465 		"/>
		<polygon fill="#28BFFF" points="413.522,343.675 442.846,394.465 472.168,445.255 413.522,445.255 354.875,445.255 
			384.198,394.465 		"/>
		<polygon fill="#3AC1FF" points="530.816,343.675 560.141,394.465 589.465,445.255 530.816,445.255 472.168,445.255 
			501.494,394.465 		"/>
		<polygon fill="#46C4FF" points="648.112,343.675 677.437,394.465 706.76,445.255 648.112,445.255 589.465,445.255 
			618.789,394.465 		"/>
		<polygon fill="#56C8FF" points="765.409,343.675 794.732,394.465 824.057,445.255 765.409,445.255 706.76,445.255 
			736.084,394.465 		"/>
		<polygon fill="#69CFFC" points="882.705,343.675 912.028,394.465 941.352,445.255 882.705,445.255 824.057,445.255 
			853.382,394.465 		"/>
		<polygon fill="#83D5F5" points="1000,343.675 1029.324,394.465 1058.648,445.255 1000,445.255 941.352,445.255 970.676,394.465 		
			"/>
		<polygon fill="#9EDBEF" points="1117.295,343.675 1146.619,394.465 1175.943,445.255 1117.295,445.255 1058.648,445.255 
			1087.973,394.465 		"/>
		<polygon fill="#B0E1E8" points="1234.592,343.675 1263.914,394.465 1293.238,445.255 1234.592,445.255 1175.943,445.255 
			1205.268,394.465 		"/>
		<polygon fill="#BEE6E5" points="1351.889,343.675 1381.211,394.465 1410.534,445.255 1351.889,445.255 1293.238,445.255 
			1322.564,394.465 		"/>
		<polygon fill="#BFE7E7" points="1469.184,343.675 1498.507,394.465 1527.832,445.255 1469.184,445.255 1410.534,445.255 
			1439.859,394.465 		"/>
		<polygon fill="#CAEAE5" points="1586.479,343.675 1615.803,394.465 1645.126,445.255 1586.479,445.255 1527.832,445.255 
			1557.154,394.465 		"/>
		<polygon fill="#C5ECE7" points="1703.773,343.675 1733.098,394.465 1762.422,445.255 1703.773,445.255 1645.126,445.255 
			1674.451,394.465 		"/>
		<polygon fill="#CAEDE5" points="1821.07,343.675 1850.395,394.465 1879.718,445.255 1821.07,445.255 1762.422,445.255 
			1791.748,394.465 		"/>
		<polygon fill="#D2EDE5" points="1938.367,343.675 1967.689,394.465 1997.015,445.255 1938.367,445.255 1879.718,445.255 
			1909.042,394.465 		"/>
		<polygon fill="#CAEEEC" points="2055.66,343.675 2084.984,394.465 2114.31,445.255 2055.66,445.255 1997.015,445.255 
			2026.338,394.465 		"/>
		<polygon fill="#61C2E5" points="2.985,445.255 32.309,496.046 61.635,546.837 2.985,546.837 -55.661,546.837 -26.338,496.046 		
			"/>
		<polygon fill="#7DC7DD" points="120.282,445.255 149.605,496.046 178.93,546.837 120.282,546.837 61.635,546.837 90.959,496.046 
					"/>
		<polygon fill="#95CAD4" points="237.578,445.255 266.901,496.046 296.226,546.837 237.578,546.837 178.93,546.837 
			208.256,496.046 		"/>
		<polygon fill="#A4CCCE" points="354.875,445.255 384.197,496.046 413.522,546.837 354.875,546.837 296.226,546.837 
			325.551,496.046 		"/>
		<polygon fill="#B3CFC7" points="472.168,445.255 501.492,496.046 530.816,546.837 472.168,546.837 413.522,546.837 
			442.846,496.046 		"/>
		<polygon fill="#BFD1C1" points="589.465,445.255 618.789,496.046 648.112,546.837 589.465,546.837 530.816,546.837 
			560.143,496.046 		"/>
		<polygon fill="#D4D5B6" points="706.76,445.255 736.084,496.046 765.409,546.837 706.76,546.837 648.112,546.837 677.438,496.046 
					"/>
		<polygon fill="#DAD8B2" points="824.057,445.255 853.381,496.046 882.705,546.837 824.057,546.837 765.409,546.837 
			794.732,496.046 		"/>
		<polygon fill="#ECDBAA" points="941.352,445.255 970.676,496.046 1000,546.837 941.352,546.837 882.705,546.837 912.028,496.046 
					"/>
		<polygon fill="#F5DCA8" points="1058.648,445.255 1087.973,496.046 1117.295,546.837 1058.648,546.837 1000,546.837 
			1029.324,496.046 		"/>
		<polygon fill="#FBE0AE" points="1175.943,445.255 1205.267,496.046 1234.592,546.837 1175.943,546.837 1117.295,546.837 
			1146.62,496.046 		"/>
		<polygon fill="#F9E4B3" points="1293.238,445.255 1322.563,496.046 1351.889,546.837 1293.238,546.837 1234.592,546.837 
			1263.917,496.046 		"/>
		<polygon fill="#FAE6B7" points="1410.534,445.255 1439.859,496.046 1469.184,546.837 1410.534,546.837 1351.889,546.837 
			1381.211,496.046 		"/>
		<polygon fill="#FAE9BB" points="1527.832,445.255 1557.154,496.046 1586.479,546.837 1527.832,546.837 1469.184,546.837 
			1498.508,496.046 		"/>
		<polygon fill="#FCEBBE" points="1645.126,445.255 1674.45,496.046 1703.773,546.837 1645.126,546.837 1586.479,546.837 
			1615.803,496.046 		"/>
		<polygon fill="#FCECC3" points="1762.422,445.255 1791.745,496.046 1821.07,546.837 1762.422,546.837 1703.773,546.837 
			1733.098,496.046 		"/>
		<polygon fill="#FBEECA" points="1879.718,445.255 1909.042,496.046 1938.367,546.837 1879.718,546.837 1821.07,546.837 
			1850.395,496.046 		"/>
		<polygon fill="#FBEDCA" points="1997.015,445.255 2026.338,496.046 2055.66,546.837 1997.015,546.837 1938.367,546.837 
			1967.691,496.046 		"/>
		<polygon fill="#00B9FE" points="2.985,445.255 32.309,394.465 61.635,343.675 2.985,343.675 -55.661,343.675 -26.338,394.465 		
			"/>
		<polygon fill="#10BDFF" points="120.282,445.255 149.605,394.465 178.93,343.675 120.282,343.675 61.635,343.675 90.959,394.465 
					"/>
		<polygon fill="#1DC0FF" points="237.578,445.255 266.901,394.465 296.226,343.675 237.578,343.675 178.93,343.675 
			208.256,394.465 		"/>
		<polygon fill="#33C0FF" points="354.875,445.255 384.197,394.465 413.522,343.675 354.875,343.675 296.226,343.675 
			325.551,394.465 		"/>
		<polygon fill="#44C4FF" points="472.168,445.255 501.492,394.465 530.816,343.675 472.168,343.675 413.522,343.675 
			442.846,394.465 		"/>
		<polygon fill="#50C7FF" points="589.465,445.255 618.789,394.465 648.112,343.675 589.465,343.675 530.816,343.675 
			560.143,394.465 		"/>
		<polygon fill="#68CBF7" points="706.76,445.255 736.084,394.465 765.409,343.675 706.76,343.675 648.112,343.675 677.438,394.465 
					"/>
		<polygon fill="#8DD0E9" points="824.057,445.255 853.381,394.465 882.705,343.675 824.057,343.675 765.409,343.675 
			794.732,394.465 		"/>
		<polygon fill="#ADD7DE" points="941.352,445.255 970.676,394.465 1000,343.675 941.352,343.675 882.705,343.675 912.028,394.465 
					"/>
		<polygon fill="#C1DED6" points="1058.648,445.255 1087.973,394.465 1117.295,343.675 1058.648,343.675 1000,343.675 
			1029.324,394.465 		"/>
		<polygon fill="#CDE2D3" points="1175.943,445.255 1205.267,394.465 1234.592,343.675 1175.943,343.675 1117.295,343.675 
			1146.62,394.465 		"/>
		<polygon fill="#D4E4D1" points="1293.238,445.255 1322.563,394.465 1351.889,343.675 1293.238,343.675 1234.592,343.675 
			1263.917,394.465 		"/>
		<polygon fill="#D8E8D2" points="1410.534,445.255 1439.859,394.465 1469.184,343.675 1410.534,343.675 1351.889,343.675 
			1381.211,394.465 		"/>
		<polygon fill="#DCEAD4" points="1527.832,445.255 1557.154,394.465 1586.479,343.675 1527.832,343.675 1469.184,343.675 
			1498.508,394.465 		"/>
		<polygon fill="#E1EDD6" points="1645.126,445.255 1674.45,394.465 1703.773,343.675 1645.126,343.675 1586.479,343.675 
			1615.803,394.465 		"/>
		<polygon fill="#DCEDD8" points="1762.422,445.255 1791.745,394.465 1821.07,343.675 1762.422,343.675 1703.773,343.675 
			1733.098,394.465 		"/>
		<polygon fill="#DAEDD8" points="1879.718,445.255 1909.042,394.465 1938.367,343.675 1879.718,343.675 1821.07,343.675 
			1850.395,394.465 		"/>
		<polygon fill="#DFEDD8" points="1997.015,445.255 2026.338,394.465 2055.66,343.675 1997.015,343.675 1938.367,343.675 
			1967.691,394.465 		"/>
		<polygon fill="#A6BCB8" points="-55.661,546.837 -26.338,496.046 2.985,445.255 -55.661,445.255 -114.31,445.255 -84.985,496.046 
					"/>
		<polygon fill="#B1C3B6" points="61.635,546.837 90.959,496.046 120.282,445.255 61.635,445.255 2.985,445.255 32.312,496.046 		
			"/>
		<polygon fill="#BEC8B3" points="178.93,546.837 208.253,496.046 237.578,445.255 178.93,445.255 120.282,445.255 149.607,496.046 
					"/>
		<polygon fill="#CDCCAD" points="296.226,546.837 325.549,496.046 354.875,445.255 296.226,445.255 237.578,445.255 
			266.901,496.046 		"/>
		<polygon fill="#DBCFA8" points="413.522,546.837 442.846,496.046 472.168,445.255 413.522,445.255 354.875,445.255 
			384.198,496.046 		"/>
		<polygon fill="#E4D2A3" points="530.816,546.837 560.141,496.046 589.465,445.255 530.816,445.255 472.168,445.255 
			501.494,496.046 		"/>
		<polygon fill="#EDD49E" points="648.112,546.837 677.437,496.046 706.76,445.255 648.112,445.255 589.465,445.255 
			618.789,496.046 		"/>
		<polygon fill="#F2D49D" points="765.409,546.837 794.732,496.046 824.057,445.255 765.409,445.255 706.76,445.255 
			736.084,496.046 		"/>
		<polygon fill="#F8D79B" points="882.705,546.837 912.028,496.046 941.352,445.255 882.705,445.255 824.057,445.255 
			853.382,496.046 		"/>
		<polygon fill="#FCD99B" points="1000,546.837 1029.324,496.046 1058.648,445.255 1000,445.255 941.352,445.255 970.676,496.046 		
			"/>
		<polygon fill="#FFDA9D" points="1117.295,546.837 1146.619,496.046 1175.943,445.255 1117.295,445.255 1058.648,445.255 
			1087.973,496.046 		"/>
		<polygon fill="#FEDCA1" points="1234.592,546.837 1263.914,496.046 1293.238,445.255 1234.592,445.255 1175.943,445.255 
			1205.268,496.046 		"/>
		<polygon fill="#FEE0A5" points="1351.889,546.837 1381.211,496.046 1410.534,445.255 1351.889,445.255 1293.238,445.255 
			1322.564,496.046 		"/>
		<polygon fill="#FEE1AA" points="1469.184,546.837 1498.507,496.046 1527.832,445.255 1469.184,445.255 1410.534,445.255 
			1439.859,496.046 		"/>
		<polygon fill="#FDE3AF" points="1586.479,546.837 1615.803,496.046 1645.126,445.255 1586.479,445.255 1527.832,445.255 
			1557.154,496.046 		"/>
		<polygon fill="#FDE5B0" points="1703.773,546.837 1733.098,496.046 1762.422,445.255 1703.773,445.255 1645.126,445.255 
			1674.451,496.046 		"/>
		<polygon fill="#FDE8B6" points="1821.07,546.837 1850.395,496.046 1879.718,445.255 1821.07,445.255 1762.422,445.255 
			1791.748,496.046 		"/>
		<polygon fill="#FDE8B7" points="1938.367,546.837 1967.689,496.046 1997.015,445.255 1938.367,445.255 1879.718,445.255 
			1909.042,496.046 		"/>
		<polygon fill="#E6AE81" points="61.635,546.837 90.959,597.628 120.282,648.419 61.635,648.419 2.985,648.419 32.312,597.628 		
			"/>
		<polygon fill="#F0B07F" points="178.93,546.837 208.253,597.628 237.578,648.419 178.93,648.419 120.282,648.419 149.607,597.628 
					"/>
		<polygon fill="#F9B57C" points="296.226,546.837 325.549,597.628 354.875,648.419 296.226,648.419 237.578,648.419 
			266.901,597.628 		"/>
		<polygon fill="#FFBA7B" points="413.522,546.837 442.846,597.628 472.168,648.419 413.522,648.419 354.875,648.419 
			384.198,597.628 		"/>
		<polygon fill="#FFBD7D" points="530.816,546.837 560.141,597.628 589.465,648.419 530.816,648.419 472.168,648.419 
			501.494,597.628 		"/>
		<polygon fill="#FFBF7C" points="648.112,546.837 677.437,597.628 706.76,648.419 648.112,648.419 589.465,648.419 
			618.789,597.628 		"/>
		<polygon fill="#FFC17C" points="765.409,546.837 794.732,597.628 824.057,648.419 765.409,648.419 706.76,648.419 
			736.084,597.628 		"/>
		<polygon fill="#FFC47C" points="882.705,546.837 912.028,597.628 941.352,648.419 882.705,648.419 824.057,648.419 
			853.382,597.628 		"/>
		<polygon fill="#FFC67C" points="1000,546.837 1029.324,597.628 1058.648,648.419 1000,648.419 941.352,648.419 970.676,597.628 		
			"/>
		<polygon fill="#FFC77B" points="1117.295,546.837 1146.619,597.628 1175.943,648.419 1117.295,648.419 1058.648,648.419 
			1087.973,597.628 		"/>
		<polygon fill="#FFC87A" points="1234.592,546.837 1263.914,597.628 1293.238,648.419 1234.592,648.419 1175.943,648.419 
			1205.268,597.628 		"/>
		<polygon fill="#FFC978" points="1351.889,546.837 1381.211,597.628 1410.534,648.419 1351.889,648.419 1293.238,648.419 
			1322.564,597.628 		"/>
		<polygon fill="#FFCA75" points="1469.184,546.837 1498.507,597.628 1527.832,648.419 1469.184,648.419 1410.534,648.419 
			1439.859,597.628 		"/>
		<polygon fill="#FFCB75" points="1586.479,546.837 1615.803,597.628 1645.126,648.419 1586.479,648.419 1527.832,648.419 
			1557.154,597.628 		"/>
		<polygon fill="#FFCD71" points="1703.773,546.837 1733.098,597.628 1762.422,648.419 1703.773,648.419 1645.126,648.419 
			1674.451,597.628 		"/>
		<polygon fill="#FFCF6D" points="1821.07,546.837 1850.395,597.628 1879.718,648.419 1821.07,648.419 1762.422,648.419 
			1791.748,597.628 		"/>
		<polygon fill="#FFCF6C" points="1938.367,546.837 1967.689,597.628 1997.015,648.419 1938.367,648.419 1879.718,648.419 
			1909.042,597.628 		"/>
		<polygon fill="#FFDB7A" points="2055.66,546.837 2084.984,597.628 2114.31,648.419 2055.66,648.419 1997.015,648.419 
			2026.338,597.628 		"/>
		<polygon fill="#775E4A" points="2.985,648.419 32.309,699.21 61.635,749.999 2.985,749.999 -55.661,749.999 -26.338,699.21 		"/>
		<polygon fill="#89684D" points="120.282,648.419 149.605,699.21 178.93,749.999 120.282,749.999 61.635,749.999 90.959,699.21 		
			"/>
		<polygon fill="#8C6748" points="237.578,648.419 266.901,699.21 296.226,749.999 237.578,749.999 178.93,749.999 208.256,699.21 
					"/>
		<polygon fill="#996C43" points="354.875,648.419 384.197,699.21 413.522,749.999 354.875,749.999 296.226,749.999 325.551,699.21 
					"/>
		<polygon fill="#AC7744" points="472.168,648.419 501.492,699.21 530.816,749.999 472.168,749.999 413.522,749.999 442.846,699.21 
					"/>
		<polygon fill="#AC7843" points="589.465,648.419 618.789,699.21 648.112,749.999 589.465,749.999 530.816,749.999 560.143,699.21 
					"/>
		<polygon fill="#B0793D" points="706.76,648.419 736.084,699.21 765.409,749.999 706.76,749.999 648.112,749.999 677.438,699.21 		
			"/>
		<polygon fill="#BF823C" points="824.057,648.419 853.381,699.21 882.705,749.999 824.057,749.999 765.409,749.999 794.732,699.21 
					"/>
		<polygon fill="#C18335" points="941.352,648.419 970.676,699.21 1000,749.999 941.352,749.999 882.705,749.999 912.028,699.21 		
			"/>
		<polygon fill="#C68633" points="1058.648,648.419 1087.973,699.21 1117.295,749.999 1058.648,749.999 1000,749.999 
			1029.324,699.21 		"/>
		<polygon fill="#C8842E" points="1175.943,648.419 1205.267,699.21 1234.592,749.999 1175.943,749.999 1117.295,749.999 
			1146.62,699.21 		"/>
		<polygon fill="#C0822C" points="1293.238,648.419 1322.563,699.21 1351.889,749.999 1293.238,749.999 1234.592,749.999 
			1263.917,699.21 		"/>
		<polygon fill="#C38228" points="1410.534,648.419 1439.859,699.21 1469.184,749.999 1410.534,749.999 1351.889,749.999 
			1381.211,699.21 		"/>
		<polygon fill="#C78428" points="1527.832,648.419 1557.154,699.21 1586.479,749.999 1527.832,749.999 1469.184,749.999 
			1498.508,699.21 		"/>
		<polygon fill="#DA8F24" points="1645.126,648.419 1674.45,699.21 1703.773,749.999 1645.126,749.999 1586.479,749.999 
			1615.803,699.21 		"/>
		<polygon fill="#D88C1F" points="1762.422,648.419 1791.745,699.21 1821.07,749.999 1762.422,749.999 1703.773,749.999 
			1733.098,699.21 		"/>
		<polygon fill="#D68B1F" points="1879.718,648.419 1909.042,699.21 1938.367,749.999 1879.718,749.999 1821.07,749.999 
			1850.395,699.21 		"/>
		<polygon fill="#D6891C" points="1997.015,648.419 2026.338,699.21 2055.66,749.999 1997.015,749.999 1938.367,749.999 
			1967.691,699.21 		"/>
		<polygon fill="#C89586" points="2.985,648.419 32.309,597.628 61.635,546.837 2.985,546.837 -55.661,546.837 -26.338,597.628 		
			"/>
		<polygon fill="#CF9B83" points="120.282,648.419 149.605,597.628 178.93,546.837 120.282,546.837 61.635,546.837 90.959,597.628 
					"/>
		<polygon fill="#CA9A81" points="237.578,648.419 266.901,597.628 296.226,546.837 237.578,546.837 178.93,546.837 
			208.256,597.628 		"/>
		<polygon fill="#F3A876" points="354.875,648.419 384.197,597.628 413.522,546.837 354.875,546.837 296.226,546.837 
			325.551,597.628 		"/>
		<polygon fill="#FFB175" points="472.168,648.419 501.492,597.628 530.816,546.837 472.168,546.837 413.522,546.837 
			442.846,597.628 		"/>
		<polygon fill="#FFB474" points="589.465,648.419 618.789,597.628 648.112,546.837 589.465,546.837 530.816,546.837 
			560.143,597.628 		"/>
		<polygon fill="#FFB672" points="706.76,648.419 736.084,597.628 765.409,546.837 706.76,546.837 648.112,546.837 677.438,597.628 
					"/>
		<polygon fill="#FFB76E" points="824.057,648.419 853.381,597.628 882.705,546.837 824.057,546.837 765.409,546.837 
			794.732,597.628 		"/>
		<polygon fill="#FFB96C" points="941.352,648.419 970.676,597.628 1000,546.837 941.352,546.837 882.705,546.837 912.028,597.628 
					"/>
		<polygon fill="#FDB867" points="1058.648,648.419 1087.973,597.628 1117.295,546.837 1058.648,546.837 1000,546.837 
			1029.324,597.628 		"/>
		<polygon fill="#FAB864" points="1175.943,648.419 1205.267,597.628 1234.592,546.837 1175.943,546.837 1117.295,546.837 
			1146.62,597.628 		"/>
		<polygon fill="#FAB762" points="1293.238,648.419 1322.563,597.628 1351.889,546.837 1293.238,546.837 1234.592,546.837 
			1263.917,597.628 		"/>
		<polygon fill="#F9B65F" points="1410.534,648.419 1439.859,597.628 1469.184,546.837 1410.534,546.837 1351.889,546.837 
			1381.211,597.628 		"/>
		<polygon fill="#F7B55B" points="1527.832,648.419 1557.154,597.628 1586.479,546.837 1527.832,546.837 1469.184,546.837 
			1498.508,597.628 		"/>
		<polygon fill="#FBB858" points="1645.126,648.419 1674.45,597.628 1703.773,546.837 1645.126,546.837 1586.479,546.837 
			1615.803,597.628 		"/>
		<polygon fill="#FCB853" points="1762.422,648.419 1791.745,597.628 1821.07,546.837 1762.422,546.837 1703.773,546.837 
			1733.098,597.628 		"/>
		<polygon fill="#FCB84F" points="1879.718,648.419 1909.042,597.628 1938.367,546.837 1879.718,546.837 1821.07,546.837 
			1850.395,597.628 		"/>
		<polygon fill="#FFBD53" points="1997.015,648.419 2026.338,597.628 2055.66,546.837 1997.015,546.837 1938.367,546.837 
			1967.691,597.628 		"/>
		<polygon fill="#8B725B" points="-55.661,749.999 -26.338,699.21 2.985,648.419 -55.661,648.419 -114.31,648.419 -84.985,699.21 		
			"/>
		<polygon fill="#997958" points="61.635,749.999 90.959,699.21 120.282,648.419 61.635,648.419 2.985,648.419 32.312,699.21 		"/>
		<polygon fill="#A47F56" points="178.93,749.999 208.253,699.21 237.578,648.419 178.93,648.419 120.282,648.419 149.607,699.21 		
			"/>
		<polygon fill="#AF8252" points="296.226,749.999 325.549,699.21 354.875,648.419 296.226,648.419 237.578,648.419 266.901,699.21 
					"/>
		<polygon fill="#BF8B50" points="413.522,749.999 442.846,699.21 472.168,648.419 413.522,648.419 354.875,648.419 384.198,699.21 
					"/>
		<polygon fill="#C58D4A" points="530.816,749.999 560.141,699.21 589.465,648.419 530.816,648.419 472.168,648.419 501.494,699.21 
					"/>
		<polygon fill="#CC9046" points="648.112,749.999 677.437,699.21 706.76,648.419 648.112,648.419 589.465,648.419 618.789,699.21 
					"/>
		<polygon fill="#D89845" points="765.409,749.999 794.732,699.21 824.057,648.419 765.409,648.419 706.76,648.419 736.084,699.21 
					"/>
		<polygon fill="#E09E3F" points="882.705,749.999 912.028,699.21 941.352,648.419 882.705,648.419 824.057,648.419 853.382,699.21 
					"/>
		<polygon fill="#E8A238" points="1000,749.999 1029.324,699.21 1058.648,648.419 1000,648.419 941.352,648.419 970.676,699.21 		
			"/>
		<polygon fill="#ECA334" points="1117.295,749.999 1146.619,699.21 1175.943,648.419 1117.295,648.419 1058.648,648.419 
			1087.973,699.21 		"/>
		<polygon fill="#D89833" points="1234.592,749.999 1263.914,699.21 1293.238,648.419 1234.592,648.419 1175.943,648.419 
			1205.268,699.21 		"/>
		<polygon fill="#D49531" points="1351.889,749.999 1381.211,699.21 1410.534,648.419 1351.889,648.419 1293.238,648.419 
			1322.564,699.21 		"/>
		<polygon fill="#D99829" points="1469.184,749.999 1498.507,699.21 1527.832,648.419 1469.184,648.419 1410.534,648.419 
			1439.859,699.21 		"/>
		<polygon fill="#EBA22A" points="1586.479,749.999 1615.803,699.21 1645.126,648.419 1586.479,648.419 1527.832,648.419 
			1557.154,699.21 		"/>
		<polygon fill="#F2A729" points="1703.773,749.999 1733.098,699.21 1762.422,648.419 1703.773,648.419 1645.126,648.419 
			1674.451,699.21 		"/>
		<polygon fill="#E69E25" points="1821.07,749.999 1850.395,699.21 1879.718,648.419 1821.07,648.419 1762.422,648.419 
			1791.748,699.21 		"/>
		<polygon fill="#E29D26" points="1938.367,749.999 1967.689,699.21 1997.015,648.419 1938.367,648.419 1879.718,648.419 
			1909.042,699.21 		"/>
		<polygon fill="#B3C0B0" points="61.635,750 90.959,800.791 120.282,851.581 61.635,851.581 2.985,851.581 32.312,800.791 		"/>
		<polygon fill="#B9C3AE" points="178.93,750 208.253,800.791 237.578,851.581 178.93,851.581 120.282,851.581 149.607,800.791 		
			"/>
		<polygon fill="#C0C4A1" points="296.226,750 325.549,800.791 354.875,851.581 296.226,851.581 237.578,851.581 266.901,800.791 		
			"/>
		<polygon fill="#CDC89F" points="413.522,750 442.846,800.791 472.168,851.581 413.522,851.581 354.875,851.581 384.198,800.791 		
			"/>
		<polygon fill="#DACC97" points="530.816,750 560.141,800.791 589.465,851.581 530.816,851.581 472.168,851.581 501.494,800.791 		
			"/>
		<polygon fill="#E8D095" points="648.112,750 677.437,800.791 706.76,851.581 648.112,851.581 589.465,851.581 618.789,800.791 		
			"/>
		<polygon fill="#E2C888" points="765.409,750 794.732,800.791 824.057,851.581 765.409,851.581 706.76,851.581 736.084,800.791 		
			"/>
		<polygon fill="#D8BC78" points="882.705,750 912.028,800.791 941.352,851.581 882.705,851.581 824.057,851.581 853.382,800.791 		
			"/>
		<polygon fill="#F4CA74" points="1000,750 1029.324,800.791 1058.648,851.581 1000,851.581 941.352,851.581 970.676,800.791 		"/>
		<polygon fill="#F7C86E" points="1117.295,750 1146.619,800.791 1175.943,851.581 1117.295,851.581 1058.648,851.581 
			1087.973,800.791 		"/>
		<polygon fill="#F9C86A" points="1234.592,750 1263.914,800.791 1293.238,851.581 1234.592,851.581 1175.943,851.581 
			1205.268,800.791 		"/>
		<polygon fill="#FECB69" points="1351.889,750 1381.211,800.791 1410.534,851.581 1351.889,851.581 1293.238,851.581 
			1322.564,800.791 		"/>
		<polygon fill="#FECE71" points="1469.184,750 1498.507,800.791 1527.832,851.581 1469.184,851.581 1410.534,851.581 
			1439.859,800.791 		"/>
		<polygon fill="#FECB65" points="1586.479,750 1615.803,800.791 1645.126,851.581 1586.479,851.581 1527.832,851.581 
			1557.154,800.791 		"/>
		<polygon fill="#FECB61" points="1703.773,750 1733.098,800.791 1762.422,851.581 1703.773,851.581 1645.126,851.581 
			1674.451,800.791 		"/>
		<polygon fill="#FDCC61" points="1821.07,750 1850.395,800.791 1879.718,851.581 1821.07,851.581 1762.422,851.581 
			1791.748,800.791 		"/>
		<polygon fill="#F5C564" points="1938.367,750 1967.689,800.791 1997.015,851.581 1938.367,851.581 1879.718,851.581 
			1909.042,800.791 		"/>
		<polygon fill="#DCB258" points="2055.66,750 2084.984,800.791 2114.31,851.581 2055.66,851.581 1997.015,851.581 
			2026.338,800.791 		"/>
		<polygon fill="#00A6E4" points="2.985,851.581 32.309,902.372 61.635,953.162 2.985,953.162 -55.661,953.162 -26.338,902.372 		
			"/>
		<polygon fill="#00B0EA" points="120.282,851.581 149.605,902.372 178.93,953.162 120.282,953.162 61.635,953.162 90.959,902.372 
					"/>
		<polygon fill="#00B7F0" points="237.578,851.581 266.901,902.372 296.226,953.162 237.578,953.162 178.93,953.162 
			208.256,902.372 		"/>
		<polygon fill="#00BFF9" points="354.875,851.581 384.197,902.372 413.522,953.162 354.875,953.162 296.226,953.162 
			325.551,902.372 		"/>
		<polygon fill="#4DB7C7" points="472.168,851.581 501.492,902.372 530.816,953.162 472.168,953.162 413.522,953.162 
			442.846,902.372 		"/>
		<polygon fill="#638481" points="589.465,851.581 618.789,902.372 648.112,953.162 589.465,953.162 530.816,953.162 
			560.143,902.372 		"/>
		<polygon fill="#2A5C73" points="706.76,851.581 736.084,902.372 765.409,953.162 706.76,953.162 648.112,953.162 677.438,902.372 
					"/>
		<polygon fill="#475E79" points="824.057,851.581 853.381,902.372 882.705,953.162 824.057,953.162 765.409,953.162 
			794.732,902.372 		"/>
		<polygon fill="#335D79" points="941.352,851.581 970.676,902.372 1000,953.162 941.352,953.162 882.705,953.162 912.028,902.372 
					"/>
		<polygon fill="#A9D2BA" points="1058.648,851.581 1087.973,902.372 1117.295,953.162 1058.648,953.162 1000,953.162 
			1029.324,902.372 		"/>
		<polygon fill="#B8D8B7" points="1175.943,851.581 1205.267,902.372 1234.592,953.162 1175.943,953.162 1117.295,953.162 
			1146.62,902.372 		"/>
		<polygon fill="#C2D7AC" points="1293.238,851.581 1322.563,902.372 1351.889,953.162 1293.238,953.162 1234.592,953.162 
			1263.917,902.372 		"/>
		<polygon fill="#B8DBAE" points="1410.534,851.581 1439.859,902.372 1469.184,953.162 1410.534,953.162 1351.889,953.162 
			1381.211,902.372 		"/>
		<polygon fill="#C1DEAA" points="1527.832,851.581 1557.154,902.372 1586.479,953.162 1527.832,953.162 1469.184,953.162 
			1498.508,902.372 		"/>
		<polygon fill="#C2DEA5" points="1645.126,851.581 1674.45,902.372 1703.773,953.162 1645.126,953.162 1586.479,953.162 
			1615.803,902.372 		"/>
		<polygon fill="#B9DDA9" points="1762.422,851.581 1791.745,902.372 1821.07,953.162 1762.422,953.162 1703.773,953.162 
			1733.098,902.372 		"/>
		<polygon fill="#B9DEAA" points="1879.718,851.581 1909.042,902.372 1938.367,953.162 1879.718,953.162 1821.07,953.162 
			1850.395,902.372 		"/>
		<polygon fill="#C8E0AD" points="1997.015,851.581 2026.338,902.372 2055.66,953.162 1997.015,953.162 1938.367,953.162 
			1967.691,902.372 		"/>
		<polygon fill="#5BBEDD" points="2.985,851.581 32.309,800.791 61.635,750 2.985,750 -55.661,750 -26.338,800.791 		"/>
		<polygon fill="#71C1D4" points="120.282,851.581 149.605,800.791 178.93,750 120.282,750 61.635,750 90.959,800.791 		"/>
		<polygon fill="#88C5CE" points="237.578,851.581 266.901,800.791 296.226,750 237.578,750 178.93,750 208.256,800.791 		"/>
		<polygon fill="#9CC9C7" points="354.875,851.581 384.197,800.791 413.522,750 354.875,750 296.226,750 325.551,800.791 		"/>
		<polygon fill="#A8C7BB" points="472.168,851.581 501.492,800.791 530.816,750 472.168,750 413.522,750 442.846,800.791 		"/>
		<polygon fill="#B9CEB7" points="589.465,851.581 618.789,800.791 648.112,750 589.465,750 530.816,750 560.143,800.791 		"/>
		<polygon fill="#ABB493" points="706.76,851.581 736.084,800.791 765.409,750 706.76,750 648.112,750 677.438,800.791 		"/>
		<polygon fill="#799289" points="824.057,851.581 853.381,800.791 882.705,750 824.057,750 765.409,750 794.732,800.791 		"/>
		<polygon fill="#BBB888" points="941.352,851.581 970.676,800.791 1000,750 941.352,750 882.705,750 912.028,800.791 		"/>
		<polygon fill="#EFCE7F" points="1058.648,851.581 1087.973,800.791 1117.295,750 1058.648,750 1000,750 1029.324,800.791 		"/>
		<polygon fill="#F7D182" points="1175.943,851.581 1205.267,800.791 1234.592,750 1175.943,750 1117.295,750 1146.62,800.791 		"/>
		<polygon fill="#F6D482" points="1293.238,851.581 1322.563,800.791 1351.889,750 1293.238,750 1234.592,750 1263.917,800.791 		
			"/>
		<polygon fill="#F8D380" points="1410.534,851.581 1439.859,800.791 1469.184,750 1410.534,750 1351.889,750 1381.211,800.791 		
			"/>
		<polygon fill="#FBD984" points="1527.832,851.581 1557.154,800.791 1586.479,750 1527.832,750 1469.184,750 1498.508,800.791 		
			"/>
		<polygon fill="#FAD47E" points="1645.126,851.581 1674.45,800.791 1703.773,750 1645.126,750 1586.479,750 1615.803,800.791 		"/>
		<polygon fill="#FDD77F" points="1762.422,851.581 1791.745,800.791 1821.07,750 1762.422,750 1703.773,750 1733.098,800.791 		"/>
		<polygon fill="#FED883" points="1879.718,851.581 1909.042,800.791 1938.367,750 1879.718,750 1821.07,750 1850.395,800.791 		"/>
		<polygon fill="#F8D27E" points="1997.015,851.581 2026.338,800.791 2055.66,750 1997.015,750 1938.367,750 1967.691,800.791 		"/>
		<polygon fill="#0097E1" points="-55.661,953.162 -26.338,902.372 2.985,851.581 -55.661,851.581 -114.31,851.581 -84.985,902.372 
					"/>
		<polygon fill="#009FE3" points="61.635,953.162 90.959,902.372 120.282,851.581 61.635,851.581 2.985,851.581 32.312,902.372 		
			"/>
		<polygon fill="#00A5E5" points="178.93,953.162 208.253,902.372 237.578,851.581 178.93,851.581 120.282,851.581 149.607,902.372 
					"/>
		<polygon fill="#00AFEC" points="296.226,953.162 325.549,902.372 354.875,851.581 296.226,851.581 237.578,851.581 
			266.901,902.372 		"/>
		<polygon fill="#76A790" points="413.522,953.162 442.846,902.372 472.168,851.581 413.522,851.581 354.875,851.581 
			384.198,902.372 		"/>
		<polygon fill="#4C6B6A" points="530.816,953.162 560.141,902.372 589.465,851.581 530.816,851.581 472.168,851.581 
			501.494,902.372 		"/>
		<polygon fill="#1A688C" points="648.112,953.162 677.437,902.372 706.76,851.581 648.112,851.581 589.465,851.581 
			618.789,902.372 		"/>
		<polygon fill="#305673" points="765.409,953.162 794.732,902.372 824.057,851.581 765.409,851.581 706.76,851.581 
			736.084,902.372 		"/>
		<polygon fill="#2C5469" points="882.705,953.162 912.028,902.372 941.352,851.581 882.705,851.581 824.057,851.581 
			853.382,902.372 		"/>
		<polygon fill="#83B1A1" points="1000,953.162 1029.324,902.372 1058.648,851.581 1000,851.581 941.352,851.581 970.676,902.372 		
			"/>
		<polygon fill="#70D4E1" points="1117.295,953.162 1146.619,902.372 1175.943,851.581 1117.295,851.581 1058.648,851.581 
			1087.973,902.372 		"/>
		<polygon fill="#88D6D6" points="1234.592,953.162 1263.914,902.372 1293.238,851.581 1234.592,851.581 1175.943,851.581 
			1205.268,902.372 		"/>
		<polygon fill="#92D8CD" points="1351.889,953.162 1381.211,902.372 1410.534,851.581 1351.889,851.581 1293.238,851.581 
			1322.564,902.372 		"/>
		<polygon fill="#8AD8CF" points="1469.184,953.162 1498.507,902.372 1527.832,851.581 1469.184,851.581 1410.534,851.581 
			1439.859,902.372 		"/>
		<polygon fill="#97DAC9" points="1586.479,953.162 1615.803,902.372 1645.126,851.581 1586.479,851.581 1527.832,851.581 
			1557.154,902.372 		"/>
		<polygon fill="#8ED3BA" points="1703.773,953.162 1733.098,902.372 1762.422,851.581 1703.773,851.581 1645.126,851.581 
			1674.451,902.372 		"/>
		<polygon fill="#93DDC4" points="1821.07,953.162 1850.395,902.372 1879.718,851.581 1821.07,851.581 1762.422,851.581 
			1791.748,902.372 		"/>
		<polygon fill="#A5DCC1" points="1938.367,953.162 1967.689,902.372 1997.015,851.581 1938.367,851.581 1879.718,851.581 
			1909.042,902.372 		"/>
		<polygon fill="#0090DC" points="61.635,953.163 90.959,1003.954 120.282,1054.744 61.635,1054.744 2.985,1054.744 
			32.312,1003.954 		"/>
		<polygon fill="#0094DE" points="178.93,953.163 208.253,1003.954 237.578,1054.744 178.93,1054.744 120.282,1054.744 
			149.607,1003.954 		"/>
		<polygon fill="#5298B9" points="296.226,953.163 325.549,1003.954 354.875,1054.744 296.226,1054.744 237.578,1054.744 
			266.901,1003.954 		"/>
		<polygon fill="#85818B" points="413.522,953.163 442.846,1003.954 472.168,1054.744 413.522,1054.744 354.875,1054.744 
			384.198,1003.954 		"/>
		<polygon fill="#938589" points="530.816,953.163 560.141,1003.954 589.465,1054.744 530.816,1054.744 472.168,1054.744 
			501.494,1003.954 		"/>
		<polygon fill="#A08E8F" points="648.112,953.163 677.437,1003.954 706.76,1054.744 648.112,1054.744 589.465,1054.744 
			618.789,1003.954 		"/>
		<polygon fill="#989488" points="765.409,953.163 794.732,1003.954 824.057,1054.744 765.409,1054.744 706.76,1054.744 
			736.084,1003.954 		"/>
		<polygon fill="#AF995B" points="882.705,953.163 912.028,1003.954 941.352,1054.744 882.705,1054.744 824.057,1054.744 
			853.382,1003.954 		"/>
		<polygon fill="#67AA8A" points="1000,953.163 1029.324,1003.954 1058.648,1054.744 1000,1054.744 941.352,1054.744 
			970.676,1003.954 		"/>
		<polygon fill="#05CBFF" points="1117.295,953.163 1146.619,1003.954 1175.943,1054.744 1117.295,1054.744 1058.648,1054.744 
			1087.973,1003.954 		"/>
		<polygon fill="#04CCFF" points="1234.592,953.163 1263.914,1003.954 1293.238,1054.744 1234.592,1054.744 1175.943,1054.744 
			1205.268,1003.954 		"/>
		<polygon fill="#11D3FF" points="1351.889,953.163 1381.211,1003.954 1410.534,1054.744 1351.889,1054.744 1293.238,1054.744 
			1322.564,1003.954 		"/>
		<polygon fill="#07D1FF" points="1469.184,953.163 1498.507,1003.954 1527.832,1054.744 1469.184,1054.744 1410.534,1054.744 
			1439.859,1003.954 		"/>
		<polygon fill="#17D6FF" points="1586.479,953.163 1615.803,1003.954 1645.126,1054.744 1586.479,1054.744 1527.832,1054.744 
			1557.154,1003.954 		"/>
		<polygon fill="#1ED9FF" points="1703.773,953.163 1733.098,1003.954 1762.422,1054.744 1703.773,1054.744 1645.126,1054.744 
			1674.451,1003.954 		"/>
		<polygon fill="#41E1F7" points="1821.07,953.163 1850.395,1003.954 1879.718,1054.744 1821.07,1054.744 1762.422,1054.744 
			1791.748,1003.954 		"/>
		<polygon fill="#7CE2EA" points="1938.367,953.163 1967.689,1003.954 1997.015,1054.744 1938.367,1054.744 1879.718,1054.744 
			1909.042,1003.954 		"/>
		<polygon fill="#8BE5E3" points="2055.66,953.163 2084.984,1003.954 2114.31,1054.744 2055.66,1054.744 1997.015,1054.744 
			2026.338,1003.954 		"/>
		<polygon fill="#0A68A7" points="2.985,1054.744 32.309,1105.535 61.635,1156.325 2.985,1156.325 -55.661,1156.325 
			-26.338,1105.535 		"/>
		<polygon fill="#0C669A" points="120.282,1054.744 149.605,1105.535 178.93,1156.325 120.282,1156.325 61.635,1156.325 
			90.959,1105.535 		"/>
		<polygon fill="#125F8A" points="237.578,1054.744 266.901,1105.535 296.226,1156.325 237.578,1156.325 178.93,1156.325 
			208.256,1105.535 		"/>
		<polygon fill="#155982" points="354.875,1054.744 384.197,1105.535 413.522,1156.325 354.875,1156.325 296.226,1156.325 
			325.551,1105.535 		"/>
		<polygon fill="#B78132" points="472.168,1054.744 501.492,1105.535 530.816,1156.325 472.168,1156.325 413.522,1156.325 
			442.846,1105.535 		"/>
		<polygon fill="#E79127" points="589.465,1054.744 618.789,1105.535 648.112,1156.325 589.465,1156.325 530.816,1156.325 
			560.143,1105.535 		"/>
		<polygon fill="#C97319" points="706.76,1054.744 736.084,1105.535 765.409,1156.325 706.76,1156.325 648.112,1156.325 
			677.438,1105.535 		"/>
		<polygon fill="#684624" points="824.057,1054.744 853.381,1105.535 882.705,1156.325 824.057,1156.325 765.409,1156.325 
			794.732,1105.535 		"/>
		<polygon fill="#AE5E05" points="941.352,1054.744 970.676,1105.535 1000,1156.325 941.352,1156.325 882.705,1156.325 
			912.028,1105.535 		"/>
		<polygon fill="#00AAEB" points="1058.648,1054.744 1087.973,1105.535 1117.295,1156.325 1058.648,1156.325 1000,1156.325 
			1029.324,1105.535 		"/>
		<polygon fill="#00ADE5" points="1175.943,1054.744 1205.267,1105.535 1234.592,1156.325 1175.943,1156.325 1117.295,1156.325 
			1146.62,1105.535 		"/>
		<polygon fill="#00B2E5" points="1293.238,1054.744 1322.563,1105.535 1351.889,1156.325 1293.238,1156.325 1234.592,1156.325 
			1263.917,1105.535 		"/>
		<polygon fill="#00A8DF" points="1410.534,1054.744 1439.859,1105.535 1469.184,1156.325 1410.534,1156.325 1351.889,1156.325 
			1381.211,1105.535 		"/>
		<polygon fill="#00A3DB" points="1527.832,1054.744 1557.154,1105.535 1586.479,1156.325 1527.832,1156.325 1469.184,1156.325 
			1498.508,1105.535 		"/>
		<polygon fill="#00ADDE" points="1645.126,1054.744 1674.45,1105.535 1703.773,1156.325 1645.126,1156.325 1586.479,1156.325 
			1615.803,1105.535 		"/>
		<polygon fill="#00BCE7" points="1762.422,1054.744 1791.745,1105.535 1821.07,1156.325 1762.422,1156.325 1703.773,1156.325 
			1733.098,1105.535 		"/>
		<polygon fill="#00BDE7" points="1879.718,1054.744 1909.042,1105.535 1938.367,1156.325 1879.718,1156.325 1821.07,1156.325 
			1850.395,1105.535 		"/>
		<polygon fill="#00CEF8" points="1997.015,1054.744 2026.338,1105.535 2055.66,1156.325 1997.015,1156.325 1938.367,1156.325 
			1967.691,1105.535 		"/>
		<polygon fill="#0088DC" points="2.985,1054.744 32.309,1003.954 61.635,953.163 2.985,953.163 -55.661,953.163 -26.338,1003.954 
					"/>
		<polygon fill="#0090E1" points="120.282,1054.744 149.605,1003.954 178.93,953.163 120.282,953.163 61.635,953.163 
			90.959,1003.954 		"/>
		<polygon fill="#0095E6" points="237.578,1054.744 266.901,1003.954 296.226,953.163 237.578,953.163 178.93,953.163 
			208.256,1003.954 		"/>
		<polygon fill="#326D8C" points="354.875,1054.744 384.197,1003.954 413.522,953.163 354.875,953.163 296.226,953.163 
			325.551,1003.954 		"/>
		<polygon fill="#786C5C" points="472.168,1054.744 501.492,1003.954 530.816,953.163 472.168,953.163 413.522,953.163 
			442.846,1003.954 		"/>
		<polygon fill="#74695F" points="589.465,1054.744 618.789,1003.954 648.112,953.163 589.465,953.163 530.816,953.163 
			560.143,1003.954 		"/>
		<polygon fill="#9D724F" points="706.76,1054.744 736.084,1003.954 765.409,953.163 706.76,953.163 648.112,953.163 
			677.438,1003.954 		"/>
		<polygon fill="#DF9328" points="824.057,1054.744 853.381,1003.954 882.705,953.163 824.057,953.163 765.409,953.163 
			794.732,1003.954 		"/>
		<polygon fill="#C37F16" points="941.352,1054.744 970.676,1003.954 1000,953.163 941.352,953.163 882.705,953.163 
			912.028,1003.954 		"/>
		<polygon fill="#00C2F5" points="1058.648,1054.744 1087.973,1003.954 1117.295,953.163 1058.648,953.163 1000,953.163 
			1029.324,1003.954 		"/>
		<polygon fill="#00BFF0" points="1175.943,1054.744 1205.267,1003.954 1234.592,953.163 1175.943,953.163 1117.295,953.163 
			1146.62,1003.954 		"/>
		<polygon fill="#00C0EE" points="1293.238,1054.744 1322.563,1003.954 1351.889,953.163 1293.238,953.163 1234.592,953.163 
			1263.917,1003.954 		"/>
		<polygon fill="#00C1F0" points="1410.534,1054.744 1439.859,1003.954 1469.184,953.163 1410.534,953.163 1351.889,953.163 
			1381.211,1003.954 		"/>
		<polygon fill="#00C6F2" points="1527.832,1054.744 1557.154,1003.954 1586.479,953.163 1527.832,953.163 1469.184,953.163 
			1498.508,1003.954 		"/>
		<polygon fill="#0ED6FF" points="1645.126,1054.744 1674.45,1003.954 1703.773,953.163 1645.126,953.163 1586.479,953.163 
			1615.803,1003.954 		"/>
		<polygon fill="#00D6FF" points="1762.422,1054.744 1791.745,1003.954 1821.07,953.163 1762.422,953.163 1703.773,953.163 
			1733.098,1003.954 		"/>
		<polygon fill="#22DEFE" points="1879.718,1054.744 1909.042,1003.954 1938.367,953.163 1879.718,953.163 1821.07,953.163 
			1850.395,1003.954 		"/>
		<polygon fill="#58E1F4" points="1997.015,1054.744 2026.338,1003.954 2055.66,953.163 1997.015,953.163 1938.367,953.163 
			1967.691,1003.954 		"/>
		<polygon fill="#1B4C76" points="-55.661,1156.325 -26.338,1105.535 2.985,1054.744 -55.661,1054.744 -114.31,1054.744 
			-84.985,1105.535 		"/>
		<polygon fill="#17557A" points="61.635,1156.325 90.959,1105.535 120.282,1054.744 61.635,1054.744 2.985,1054.744 
			32.312,1105.535 		"/>
		<polygon fill="#1E4A65" points="178.93,1156.325 208.253,1105.535 237.578,1054.744 178.93,1054.744 120.282,1054.744 
			149.607,1105.535 		"/>
		<polygon fill="#254254" points="296.226,1156.325 325.549,1105.535 354.875,1054.744 296.226,1054.744 237.578,1054.744 
			266.901,1105.535 		"/>
		<polygon fill="#255268" points="413.522,1156.325 442.846,1105.535 472.168,1054.744 413.522,1054.744 354.875,1054.744 
			384.198,1105.535 		"/>
		<polygon fill="#FEA521" points="530.816,1156.325 560.141,1105.535 589.465,1054.744 530.816,1054.744 472.168,1054.744 
			501.494,1105.535 		"/>
		<polygon fill="#C7761A" points="648.112,1156.325 677.437,1105.535 706.76,1054.744 648.112,1054.744 589.465,1054.744 
			618.789,1105.535 		"/>
		<polygon fill="#543E2B" points="765.409,1156.325 794.732,1105.535 824.057,1054.744 765.409,1054.744 706.76,1054.744 
			736.084,1105.535 		"/>
		<polygon fill="#634122" points="882.705,1156.325 912.028,1105.535 941.352,1054.744 882.705,1054.744 824.057,1054.744 
			853.382,1105.535 		"/>
		<polygon fill="#3093AA" points="1000,1156.325 1029.324,1105.535 1058.648,1054.744 1000,1054.744 941.352,1054.744 
			970.676,1105.535 		"/>
		<polygon fill="#00A5E5" points="1117.295,1156.325 1146.619,1105.535 1175.943,1054.744 1117.295,1054.744 1058.648,1054.744 
			1087.973,1105.535 		"/>
		<polygon fill="#00AAE2" points="1234.592,1156.325 1263.914,1105.535 1293.238,1054.744 1234.592,1054.744 1175.943,1054.744 
			1205.268,1105.535 		"/>
		<polygon fill="#00A6DE" points="1351.889,1156.325 1381.211,1105.535 1410.534,1054.744 1351.889,1054.744 1293.238,1054.744 
			1322.564,1105.535 		"/>
		<polygon fill="#009AD7" points="1469.184,1156.325 1498.507,1105.535 1527.832,1054.744 1469.184,1054.744 1410.534,1054.744 
			1439.859,1105.535 		"/>
		<polygon fill="#0098D5" points="1586.479,1156.325 1615.803,1105.535 1645.126,1054.744 1586.479,1054.744 1527.832,1054.744 
			1557.154,1105.535 		"/>
		<polygon fill="#00B5E6" points="1703.773,1156.325 1733.098,1105.535 1762.422,1054.744 1703.773,1054.744 1645.126,1054.744 
			1674.451,1105.535 		"/>
		<polygon fill="#00B4E4" points="1821.07,1156.325 1850.395,1105.535 1879.718,1054.744 1821.07,1054.744 1762.422,1054.744 
			1791.748,1105.535 		"/>
		<polygon fill="#00BEEB" points="1938.367,1156.325 1967.689,1105.535 1997.015,1054.744 1938.367,1054.744 1879.718,1054.744 
			1909.042,1105.535 		"/>
		<polygon fill="#0F5A8B" points="61.635,1156.326 90.959,1207.116 120.282,1257.907 61.635,1257.907 2.985,1257.907 
			32.312,1207.116 		"/>
		<polygon fill="#13567F" points="178.93,1156.326 208.253,1207.116 237.578,1257.907 178.93,1257.907 120.282,1257.907 
			149.607,1207.116 		"/>
		<polygon fill="#1B4C6A" points="296.226,1156.326 325.549,1207.116 354.875,1257.907 296.226,1257.907 237.578,1257.907 
			266.901,1207.116 		"/>
		<polygon fill="#2F4752" points="413.522,1156.326 442.846,1207.116 472.168,1257.907 413.522,1257.907 354.875,1257.907 
			384.198,1207.116 		"/>
		<polygon fill="#EA9817" points="530.816,1156.326 560.141,1207.116 589.465,1257.907 530.816,1257.907 472.168,1257.907 
			501.494,1207.116 		"/>
		<polygon fill="#784B21" points="648.112,1156.326 677.437,1207.116 706.76,1257.907 648.112,1257.907 589.465,1257.907 
			618.789,1207.116 		"/>
		<polygon fill="#54412E" points="765.409,1156.326 794.732,1207.116 824.057,1257.907 765.409,1257.907 706.76,1257.907 
			736.084,1207.116 		"/>
		<polygon fill="#654626" points="882.705,1156.326 912.028,1207.116 941.352,1257.907 882.705,1257.907 824.057,1257.907 
			853.382,1207.116 		"/>
		<polygon fill="#3092A1" points="1000,1156.326 1029.324,1207.116 1058.648,1257.907 1000,1257.907 941.352,1257.907 
			970.676,1207.116 		"/>
		<polygon fill="#0092D0" points="1117.295,1156.326 1146.619,1207.116 1175.943,1257.907 1117.295,1257.907 1058.648,1257.907 
			1087.973,1207.116 		"/>
		<polygon fill="#0095D3" points="1234.592,1156.326 1263.914,1207.116 1293.238,1257.907 1234.592,1257.907 1175.943,1257.907 
			1205.268,1207.116 		"/>
		<polygon fill="#0095D2" points="1351.889,1156.326 1381.211,1207.116 1410.534,1257.907 1351.889,1257.907 1293.238,1257.907 
			1322.564,1207.116 		"/>
		<polygon fill="#009DDC" points="1469.184,1156.326 1498.507,1207.116 1527.832,1257.907 1469.184,1257.907 1410.534,1257.907 
			1439.859,1207.116 		"/>
		<polygon fill="#0397D5" points="1586.479,1156.326 1615.803,1207.116 1645.126,1257.907 1586.479,1257.907 1527.832,1257.907 
			1557.154,1207.116 		"/>
		<polygon fill="#009CDC" points="1703.773,1156.326 1733.098,1207.116 1762.422,1257.907 1703.773,1257.907 1645.126,1257.907 
			1674.451,1207.116 		"/>
		<polygon fill="#02AEE3" points="1821.07,1156.326 1850.395,1207.116 1879.718,1257.907 1821.07,1257.907 1762.422,1257.907 
			1791.748,1207.116 		"/>
		<polygon fill="#00A9E5" points="1938.367,1156.326 1967.689,1207.116 1997.015,1257.907 1938.367,1257.907 1879.718,1257.907 
			1909.042,1207.116 		"/>
		<polygon fill="#00C6F5" points="2055.66,1156.326 2084.984,1207.116 2114.31,1257.907 2055.66,1257.907 1997.015,1257.907 
			2026.338,1207.116 		"/>
		<polygon fill="#0077BD" points="2.985,1257.907 32.309,1308.698 61.635,1359.488 2.985,1359.488 -55.661,1359.488 
			-26.338,1308.698 		"/>
		<polygon fill="#0F7CAF" points="120.282,1257.907 149.605,1308.698 178.93,1359.488 120.282,1359.488 61.635,1359.488 
			90.959,1308.698 		"/>
		<polygon fill="#507B93" points="237.578,1257.907 266.901,1308.698 296.226,1359.488 237.578,1359.488 178.93,1359.488 
			208.256,1308.698 		"/>
		<polygon fill="#BE805C" points="354.875,1257.907 384.197,1308.698 413.522,1359.488 354.875,1359.488 296.226,1359.488 
			325.551,1308.698 		"/>
		<polygon fill="#CC8040" points="472.168,1257.907 501.492,1308.698 530.816,1359.488 472.168,1359.488 413.522,1359.488 
			442.846,1308.698 		"/>
		<polygon fill="#A7652E" points="589.465,1257.907 618.789,1308.698 648.112,1359.488 589.465,1359.488 530.816,1359.488 
			560.143,1308.698 		"/>
		<polygon fill="#886137" points="706.76,1257.907 736.084,1308.698 765.409,1359.488 706.76,1359.488 648.112,1359.488 
			677.438,1308.698 		"/>
		<polygon fill="#50402D" points="824.057,1257.907 853.381,1308.698 882.705,1359.488 824.057,1359.488 765.409,1359.488 
			794.732,1308.698 		"/>
		<polygon fill="#456764" points="941.352,1257.907 970.676,1308.698 1000,1359.488 941.352,1359.488 882.705,1359.488 
			912.028,1308.698 		"/>
		<polygon fill="#177A9C" points="1058.648,1257.907 1087.973,1308.698 1117.295,1359.488 1058.648,1359.488 1000,1359.488 
			1029.324,1308.698 		"/>
		<polygon fill="#0581B0" points="1175.943,1257.907 1205.267,1308.698 1234.592,1359.488 1175.943,1359.488 1117.295,1359.488 
			1146.62,1308.698 		"/>
		<polygon fill="#0F83A9" points="1293.238,1257.907 1322.563,1308.698 1351.889,1359.488 1293.238,1359.488 1234.592,1359.488 
			1263.917,1308.698 		"/>
		<polygon fill="#047EAF" points="1410.534,1257.907 1439.859,1308.698 1469.184,1359.488 1410.534,1359.488 1351.889,1359.488 
			1381.211,1308.698 		"/>
		<polygon fill="#0E83AD" points="1527.832,1257.907 1557.154,1308.698 1586.479,1359.488 1527.832,1359.488 1469.184,1359.488 
			1498.508,1308.698 		"/>
		<polygon fill="#2A91A2" points="1645.126,1257.907 1674.45,1308.698 1703.773,1359.488 1645.126,1359.488 1586.479,1359.488 
			1615.803,1308.698 		"/>
		<polygon fill="#08A1C5" points="1762.422,1257.907 1791.745,1308.698 1821.07,1359.488 1762.422,1359.488 1703.773,1359.488 
			1733.098,1308.698 		"/>
		<polygon fill="#008BC3" points="1879.718,1257.907 1909.042,1308.698 1938.367,1359.488 1879.718,1359.488 1821.07,1359.488 
			1850.395,1308.698 		"/>
		<polygon fill="#008DC8" points="1997.015,1257.907 2026.338,1308.698 2055.66,1359.488 1997.015,1359.488 1938.367,1359.488 
			1967.691,1308.698 		"/>
		<polygon fill="#096197" points="2.985,1257.907 32.309,1207.116 61.635,1156.326 2.985,1156.326 -55.661,1156.326 
			-26.338,1207.116 		"/>
		<polygon fill="#09659A" points="120.282,1257.907 149.605,1207.116 178.93,1156.326 120.282,1156.326 61.635,1156.326 
			90.959,1207.116 		"/>
		<polygon fill="#125A84" points="237.578,1257.907 266.901,1207.116 296.226,1156.326 237.578,1156.326 178.93,1156.326 
			208.256,1207.116 		"/>
		<polygon fill="#2F5060" points="354.875,1257.907 384.197,1207.116 413.522,1156.326 354.875,1156.326 296.226,1156.326 
			325.551,1207.116 		"/>
		<polygon fill="#A76822" points="472.168,1257.907 501.492,1207.116 530.816,1156.326 472.168,1156.326 413.522,1156.326 
			442.846,1207.116 		"/>
		<polygon fill="#C37415" points="589.465,1257.907 618.789,1207.116 648.112,1156.326 589.465,1156.326 530.816,1156.326 
			560.143,1207.116 		"/>
		<polygon fill="#5C442B" points="706.76,1257.907 736.084,1207.116 765.409,1156.326 706.76,1156.326 648.112,1156.326 
			677.438,1207.116 		"/>
		<polygon fill="#5F472E" points="824.057,1257.907 853.381,1207.116 882.705,1156.326 824.057,1156.326 765.409,1156.326 
			794.732,1207.116 		"/>
		<polygon fill="#646248" points="941.352,1257.907 970.676,1207.116 1000,1156.326 941.352,1156.326 882.705,1156.326 
			912.028,1207.116 		"/>
		<polygon fill="#0D95BE" points="1058.648,1257.907 1087.973,1207.116 1117.295,1156.326 1058.648,1156.326 1000,1156.326 
			1029.324,1207.116 		"/>
		<polygon fill="#0090C6" points="1175.943,1257.907 1205.267,1207.116 1234.592,1156.326 1175.943,1156.326 1117.295,1156.326 
			1146.62,1207.116 		"/>
		<polygon fill="#008DC5" points="1293.238,1257.907 1322.563,1207.116 1351.889,1156.326 1293.238,1156.326 1234.592,1156.326 
			1263.917,1207.116 		"/>
		<polygon fill="#1AA0C6" points="1410.534,1257.907 1439.859,1207.116 1469.184,1156.326 1410.534,1156.326 1351.889,1156.326 
			1381.211,1207.116 		"/>
		<polygon fill="#46A6B4" points="1527.832,1257.907 1557.154,1207.116 1586.479,1156.326 1527.832,1156.326 1469.184,1156.326 
			1498.508,1207.116 		"/>
		<polygon fill="#28A1C1" points="1645.126,1257.907 1674.45,1207.116 1703.773,1156.326 1645.126,1156.326 1586.479,1156.326 
			1615.803,1207.116 		"/>
		<polygon fill="#30ACC6" points="1762.422,1257.907 1791.745,1207.116 1821.07,1156.326 1762.422,1156.326 1703.773,1156.326 
			1733.098,1207.116 		"/>
		<polygon fill="#0096D4" points="1879.718,1257.907 1909.042,1207.116 1938.367,1156.326 1879.718,1156.326 1821.07,1156.326 
			1850.395,1207.116 		"/>
		<polygon fill="#00A0E1" points="1997.015,1257.907 2026.338,1207.116 2055.66,1156.326 1997.015,1156.326 1938.367,1156.326 
			1967.691,1207.116 		"/>
		<polygon fill="#0667B1" points="-55.661,1359.488 -26.338,1308.698 2.985,1257.907 -55.661,1257.907 -114.31,1257.907 
			-84.985,1308.698 		"/>
		<polygon fill="#1F79AB" points="61.635,1359.488 90.959,1308.698 120.282,1257.907 61.635,1257.907 2.985,1257.907 
			32.312,1308.698 		"/>
		<polygon fill="#3480A6" points="178.93,1359.488 208.253,1308.698 237.578,1257.907 178.93,1257.907 120.282,1257.907 
			149.607,1308.698 		"/>
		<polygon fill="#82878B" points="296.226,1359.488 325.549,1308.698 354.875,1257.907 296.226,1257.907 237.578,1257.907 
			266.901,1308.698 		"/>
		<polygon fill="#B78161" points="413.522,1359.488 442.846,1308.698 472.168,1257.907 413.522,1257.907 354.875,1257.907 
			384.198,1308.698 		"/>
		<polygon fill="#75665C" points="530.816,1359.488 560.141,1308.698 589.465,1257.907 530.816,1257.907 472.168,1257.907 
			501.494,1308.698 		"/>
		<polygon fill="#916537" points="648.112,1359.488 677.437,1308.698 706.76,1257.907 648.112,1257.907 589.465,1257.907 
			618.789,1308.698 		"/>
		<polygon fill="#6A4D33" points="765.409,1359.488 794.732,1308.698 824.057,1257.907 765.409,1257.907 706.76,1257.907 
			736.084,1308.698 		"/>
		<polygon fill="#73532C" points="882.705,1359.488 912.028,1308.698 941.352,1257.907 882.705,1257.907 824.057,1257.907 
			853.382,1308.698 		"/>
		<polygon fill="#37727C" points="1000,1359.488 1029.324,1308.698 1058.648,1257.907 1000,1257.907 941.352,1257.907 
			970.676,1308.698 		"/>
		<polygon fill="#0F759F" points="1117.295,1359.488 1146.619,1308.698 1175.943,1257.907 1117.295,1257.907 1058.648,1257.907 
			1087.973,1308.698 		"/>
		<polygon fill="#2B7B8C" points="1234.592,1359.488 1263.914,1308.698 1293.238,1257.907 1234.592,1257.907 1175.943,1257.907 
			1205.268,1308.698 		"/>
		<polygon fill="#0F7AA1" points="1351.889,1359.488 1381.211,1308.698 1410.534,1257.907 1351.889,1257.907 1293.238,1257.907 
			1322.564,1308.698 		"/>
		<polygon fill="#0776A6" points="1469.184,1359.488 1498.507,1308.698 1527.832,1257.907 1469.184,1257.907 1410.534,1257.907 
			1439.859,1308.698 		"/>
		<polygon fill="#0277AA" points="1586.479,1359.488 1615.803,1308.698 1645.126,1257.907 1586.479,1257.907 1527.832,1257.907 
			1557.154,1308.698 		"/>
		<polygon fill="#0582B1" points="1703.773,1359.488 1733.098,1308.698 1762.422,1257.907 1703.773,1257.907 1645.126,1257.907 
			1674.451,1308.698 		"/>
		<polygon fill="#008BBB" points="1821.07,1359.488 1850.395,1308.698 1879.718,1257.907 1821.07,1257.907 1762.422,1257.907 
			1791.748,1308.698 		"/>
		<polygon fill="#008AC1" points="1938.367,1359.488 1967.689,1308.698 1997.015,1257.907 1938.367,1257.907 1879.718,1257.907 
			1909.042,1308.698 		"/>
		<polygon fill="#7B788A" points="61.635,1359.49 90.959,1410.28 120.282,1461.07 61.635,1461.07 2.985,1461.07 32.312,1410.28 		
			"/>
		<polygon fill="#5A7A9B" points="178.93,1359.49 208.253,1410.28 237.578,1461.07 178.93,1461.07 120.282,1461.07 149.607,1410.28 
					"/>
		<polygon fill="#6D839A" points="296.226,1359.49 325.549,1410.28 354.875,1461.07 296.226,1461.07 237.578,1461.07 
			266.901,1410.28 		"/>
		<polygon fill="#806C6D" points="413.522,1359.49 442.846,1410.28 472.168,1461.07 413.522,1461.07 354.875,1461.07 
			384.198,1410.28 		"/>
		<polygon fill="#9A664A" points="530.816,1359.49 560.141,1410.28 589.465,1461.07 530.816,1461.07 472.168,1461.07 
			501.494,1410.28 		"/>
		<polygon fill="#50515A" points="648.112,1359.49 677.437,1410.28 706.76,1461.07 648.112,1461.07 589.465,1461.07 
			618.789,1410.28 		"/>
		<polygon fill="#454C4E" points="765.409,1359.49 794.732,1410.28 824.057,1461.07 765.409,1461.07 706.76,1461.07 
			736.084,1410.28 		"/>
		<polygon fill="#5A4B39" points="882.705,1359.49 912.028,1410.28 941.352,1461.07 882.705,1461.07 824.057,1461.07 
			853.382,1410.28 		"/>
		<polygon fill="#4F5D56" points="1000,1359.49 1029.324,1410.28 1058.648,1461.07 1000,1461.07 941.352,1461.07 970.676,1410.28 		
			"/>
		<polygon fill="#3F676F" points="1117.295,1359.49 1146.619,1410.28 1175.943,1461.07 1117.295,1461.07 1058.648,1461.07 
			1087.973,1410.28 		"/>
		<polygon fill="#236481" points="1234.592,1359.49 1263.914,1410.28 1293.238,1461.07 1234.592,1461.07 1175.943,1461.07 
			1205.268,1410.28 		"/>
		<polygon fill="#356E7C" points="1351.889,1359.49 1381.211,1410.28 1410.534,1461.07 1351.889,1461.07 1293.238,1461.07 
			1322.564,1410.28 		"/>
		<polygon fill="#276782" points="1469.184,1359.49 1498.507,1410.28 1527.832,1461.07 1469.184,1461.07 1410.534,1461.07 
			1439.859,1410.28 		"/>
		<polygon fill="#126590" points="1586.479,1359.49 1615.803,1410.28 1645.126,1461.07 1586.479,1461.07 1527.832,1461.07 
			1557.154,1410.28 		"/>
		<polygon fill="#04659C" points="1703.773,1359.49 1733.098,1410.28 1762.422,1461.07 1703.773,1461.07 1645.126,1461.07 
			1674.451,1410.28 		"/>
		<polygon fill="#016EA5" points="1821.07,1359.49 1850.395,1410.28 1879.718,1461.07 1821.07,1461.07 1762.422,1461.07 
			1791.748,1410.28 		"/>
		<polygon fill="#007AAF" points="1938.367,1359.49 1967.689,1410.28 1997.015,1461.07 1938.367,1461.07 1879.718,1461.07 
			1909.042,1410.28 		"/>
		<polygon fill="#0085BA" points="2055.66,1359.49 2084.984,1410.28 2114.31,1461.07 2055.66,1461.07 1997.015,1461.07 
			2026.338,1410.28 		"/>
		<polygon fill="#7A837C" points="2.985,1461.07 32.309,1511.861 61.635,1562.652 2.985,1562.652 -55.661,1562.652 
			-26.338,1511.861 		"/>
		<polygon fill="#268494" points="120.282,1461.07 149.605,1511.861 178.93,1562.652 120.282,1562.652 61.635,1562.652 
			90.959,1511.861 		"/>
		<polygon fill="#7E785E" points="237.578,1461.07 266.901,1511.861 296.226,1562.652 237.578,1562.652 178.93,1562.652 
			208.256,1511.861 		"/>
		<polygon fill="#59746A" points="354.875,1461.07 384.197,1511.861 413.522,1562.652 354.875,1562.652 296.226,1562.652 
			325.551,1511.861 		"/>
		<polygon fill="#806E4B" points="472.168,1461.07 501.492,1511.861 530.816,1562.652 472.168,1562.652 413.522,1562.652 
			442.846,1511.861 		"/>
		<polygon fill="#45544E" points="589.465,1461.07 618.789,1511.861 648.112,1562.652 589.465,1562.652 530.816,1562.652 
			560.143,1511.861 		"/>
		<polygon fill="#545D52" points="706.76,1461.07 736.084,1511.861 765.409,1562.652 706.76,1562.652 648.112,1562.652 
			677.438,1511.861 		"/>
		<polygon fill="#726A45" points="824.057,1461.07 853.381,1511.861 882.705,1562.652 824.057,1562.652 765.409,1562.652 
			794.732,1511.861 		"/>
		<polygon fill="#3C7871" points="941.352,1461.07 970.676,1511.861 1000,1562.652 941.352,1562.652 882.705,1562.652 
			912.028,1511.861 		"/>
		<polygon fill="#544C33" points="1058.648,1461.07 1087.973,1511.861 1117.295,1562.652 1058.648,1562.652 1000,1562.652 
			1029.324,1511.861 		"/>
		<polygon fill="#546240" points="1175.943,1461.07 1205.267,1511.861 1234.592,1562.652 1175.943,1562.652 1117.295,1562.652 
			1146.62,1511.861 		"/>
		<polygon fill="#315B57" points="1293.238,1461.07 1322.563,1511.861 1351.889,1562.652 1293.238,1562.652 1234.592,1562.652 
			1263.917,1511.861 		"/>
		<polygon fill="#275E65" points="1410.534,1461.07 1439.859,1511.861 1469.184,1562.652 1410.534,1562.652 1351.889,1562.652 
			1381.211,1511.861 		"/>
		<polygon fill="#1C576C" points="1527.832,1461.07 1557.154,1511.861 1586.479,1562.652 1527.832,1562.652 1469.184,1562.652 
			1498.508,1511.861 		"/>
		<polygon fill="#1A5970" points="1645.126,1461.07 1674.45,1511.861 1703.773,1562.652 1645.126,1562.652 1586.479,1562.652 
			1615.803,1511.861 		"/>
		<polygon fill="#155F79" points="1762.422,1461.07 1791.745,1511.861 1821.07,1562.652 1762.422,1562.652 1703.773,1562.652 
			1733.098,1511.861 		"/>
		<polygon fill="#11617C" points="1879.718,1461.07 1909.042,1511.861 1938.367,1562.652 1879.718,1562.652 1821.07,1562.652 
			1850.395,1511.861 		"/>
		<polygon fill="#105D80" points="1997.015,1461.07 2026.338,1511.861 2055.66,1562.652 1997.015,1562.652 1938.367,1562.652 
			1967.691,1511.861 		"/>
		<polygon fill="#587AA4" points="2.985,1461.07 32.309,1410.28 61.635,1359.49 2.985,1359.49 -55.661,1359.49 -26.338,1410.28 		
			"/>
		<polygon fill="#5A6B7C" points="120.282,1461.07 149.605,1410.28 178.93,1359.49 120.282,1359.49 61.635,1359.49 90.959,1410.28 
					"/>
		<polygon fill="#707C8C" points="237.578,1461.07 266.901,1410.28 296.226,1359.49 237.578,1359.49 178.93,1359.49 
			208.256,1410.28 		"/>
		<polygon fill="#75747C" points="354.875,1461.07 384.197,1410.28 413.522,1359.49 354.875,1359.49 296.226,1359.49 
			325.551,1410.28 		"/>
		<polygon fill="#84665B" points="472.168,1461.07 501.492,1410.28 530.816,1359.49 472.168,1359.49 413.522,1359.49 
			442.846,1410.28 		"/>
		<polygon fill="#7F614E" points="589.465,1461.07 618.789,1410.28 648.112,1359.49 589.465,1359.49 530.816,1359.49 
			560.143,1410.28 		"/>
		<polygon fill="#4E5A64" points="706.76,1461.07 736.084,1410.28 765.409,1359.49 706.76,1359.49 648.112,1359.49 677.438,1410.28 
					"/>
		<polygon fill="#67573F" points="824.057,1461.07 853.381,1410.28 882.705,1359.49 824.057,1359.49 765.409,1359.49 
			794.732,1410.28 		"/>
		<polygon fill="#59574A" points="941.352,1461.07 970.676,1410.28 1000,1359.49 941.352,1359.49 882.705,1359.49 912.028,1410.28 
					"/>
		<polygon fill="#605944" points="1058.648,1461.07 1087.973,1410.28 1117.295,1359.49 1058.648,1359.49 1000,1359.49 
			1029.324,1410.28 		"/>
		<polygon fill="#466763" points="1175.943,1461.07 1205.267,1410.28 1234.592,1359.49 1175.943,1359.49 1117.295,1359.49 
			1146.62,1410.28 		"/>
		<polygon fill="#3A6A6F" points="1293.238,1461.07 1322.563,1410.28 1351.889,1359.49 1293.238,1359.49 1234.592,1359.49 
			1263.917,1410.28 		"/>
		<polygon fill="#366872" points="1410.534,1461.07 1439.859,1410.28 1469.184,1359.49 1410.534,1359.49 1351.889,1359.49 
			1381.211,1410.28 		"/>
		<polygon fill="#28647C" points="1527.832,1461.07 1557.154,1410.28 1586.479,1359.49 1527.832,1359.49 1469.184,1359.49 
			1498.508,1410.28 		"/>
		<polygon fill="#11648C" points="1645.126,1461.07 1674.45,1410.28 1703.773,1359.49 1645.126,1359.49 1586.479,1359.49 
			1615.803,1410.28 		"/>
		<polygon fill="#086494" points="1762.422,1461.07 1791.745,1410.28 1821.07,1359.49 1762.422,1359.49 1703.773,1359.49 
			1733.098,1410.28 		"/>
		<polygon fill="#04679C" points="1879.718,1461.07 1909.042,1410.28 1938.367,1359.49 1879.718,1359.49 1821.07,1359.49 
			1850.395,1410.28 		"/>
		<polygon fill="#0072A9" points="1997.015,1461.07 2026.338,1410.28 2055.66,1359.49 1997.015,1359.49 1938.367,1359.49 
			1967.691,1410.28 		"/>
		<polygon fill="#A5765E" points="-55.661,1562.652 -26.338,1511.861 2.985,1461.07 -55.661,1461.07 -114.31,1461.07 
			-84.985,1511.861 		"/>
		<polygon fill="#648279" points="61.635,1562.652 90.959,1511.861 120.282,1461.07 61.635,1461.07 2.985,1461.07 32.312,1511.861 
					"/>
		<polygon fill="#6E7A68" points="178.93,1562.652 208.253,1511.861 237.578,1461.07 178.93,1461.07 120.282,1461.07 
			149.607,1511.861 		"/>
		<polygon fill="#6B775D" points="296.226,1562.652 325.549,1511.861 354.875,1461.07 296.226,1461.07 237.578,1461.07 
			266.901,1511.861 		"/>
		<polygon fill="#6C7254" points="413.522,1562.652 442.846,1511.861 472.168,1461.07 413.522,1461.07 354.875,1461.07 
			384.198,1511.861 		"/>
		<polygon fill="#5F5D41" points="530.816,1562.652 560.141,1511.861 589.465,1461.07 530.816,1461.07 472.168,1461.07 
			501.494,1511.861 		"/>
		<polygon fill="#60664B" points="648.112,1562.652 677.437,1511.861 706.76,1461.07 648.112,1461.07 589.465,1461.07 
			618.789,1511.861 		"/>
		<polygon fill="#5B5B45" points="765.409,1562.652 794.732,1511.861 824.057,1461.07 765.409,1461.07 706.76,1461.07 
			736.084,1511.861 		"/>
		<polygon fill="#717147" points="882.705,1562.652 912.028,1511.861 941.352,1461.07 882.705,1461.07 824.057,1461.07 
			853.382,1511.861 		"/>
		<polygon fill="#3D5A4B" points="1000,1562.652 1029.324,1511.861 1058.648,1461.07 1000,1461.07 941.352,1461.07 
			970.676,1511.861 		"/>
		<polygon fill="#5F5D39" points="1117.295,1562.652 1146.619,1511.861 1175.943,1461.07 1117.295,1461.07 1058.648,1461.07 
			1087.973,1511.861 		"/>
		<polygon fill="#546142" points="1234.592,1562.652 1263.914,1511.861 1293.238,1461.07 1234.592,1461.07 1175.943,1461.07 
			1205.268,1511.861 		"/>
		<polygon fill="#435C4A" points="1351.889,1562.652 1381.211,1511.861 1410.534,1461.07 1351.889,1461.07 1293.238,1461.07 
			1322.564,1511.861 		"/>
		<polygon fill="#3A6354" points="1469.184,1562.652 1498.507,1511.861 1527.832,1461.07 1469.184,1461.07 1410.534,1461.07 
			1439.859,1511.861 		"/>
		<polygon fill="#1E5D6B" points="1586.479,1562.652 1615.803,1511.861 1645.126,1461.07 1586.479,1461.07 1527.832,1461.07 
			1557.154,1511.861 		"/>
		<polygon fill="#1A5A6D" points="1703.773,1562.652 1733.098,1511.861 1762.422,1461.07 1703.773,1461.07 1645.126,1461.07 
			1674.451,1511.861 		"/>
		<polygon fill="#195B70" points="1821.07,1562.652 1850.395,1511.861 1879.718,1461.07 1821.07,1461.07 1762.422,1461.07 
			1791.748,1511.861 		"/>
		<polygon fill="#145C76" points="1938.367,1562.652 1967.689,1511.861 1997.015,1461.07 1938.367,1461.07 1879.718,1461.07 
			1909.042,1511.861 		"/>
	</g>
</g>
</svg>
