<?xml version="1.0" encoding="utf-8"?>
<!-- Generator: Adobe Illustrator 18.0.0, SVG Export Plug-In . SVG Version: 6.00 Build 0)  -->
<!DOCTYPE svg PUBLIC "-//W3C//DTD SVG 1.1//EN" "http://www.w3.org/Graphics/SVG/1.1/DTD/svg11.dtd">
<svg version="1.1" xmlns="http://www.w3.org/2000/svg" xmlns:xlink="http://www.w3.org/1999/xlink" x="0px" y="0px"
	 viewBox="0 0 1920 1080" enable-background="new 0 0 1920 1080" xml:space="preserve">
<g id="Layer_1">
	<rect x="-20" y="-11.25" fill="#1e2749" stroke="#000000" stroke-miterlimit="10" width="1960" height="1102.5"/>
</g>
<g id="Layer_2">
	<g>
		<g>
			<path fill="#0d1f22" d="M929.448,804.417c-0.915,1.303-1.561,2.997-2.791,3.843c-6.048,4.161-12.013,8.55-18.486,11.948
				c-4.127,2.166-8.209,4.38-12.22,6.748c-4.615,2.725-6.589,2.383-10.092-1.614c-0.16-0.183-0.305-0.378-0.467-0.559
				c-2.314-2.573-4.409-4.786-8.574-2.731c-3.146,1.553-6.741,2.406-10.577,1.597c-1.186-0.25-3.005,1.225-4.153,2.312
				c-3.465,3.283-6.996,6.23-12.191,5.85c-0.344-0.025-0.781,0.139-1.053,0.364c-4.487,3.707-9.56,6.259-15.211,7.603
				c-0.717,0.171-1.66-0.128-2.365-0.478c-1.531-0.76-2.975-1.694-4.455-2.557c-0.189,0.246-0.378,0.492-0.567,0.738
				c0.908,0.585,1.816,1.169,2.724,1.754c-0.19,0.257-0.38,0.515-0.57,0.772c-3.259-0.465-6.732-0.399-8.835-4.462
				c-1.241,6.128-7.017,6.591-10.61,9.558c-2.22,1.833-5.02,1.309-6.763-0.919c-4.387-5.61-10.747-7.841-16.899-10.481
				c-0.485-0.208-1.208-0.166-1.716,0.029c-4.269,1.643-8.48,3.443-12.786,4.981c-1.293,0.462-2.827,0.249-4.638,0.372
				c0.499-0.906,0.777-1.411,1.43-2.597c-1.53,0.387-2.455,0.62-3.699,0.934c-1.924-1.277-2.91-3.644-2.436-6.237
				c0.099-0.543-0.037-1.335-0.388-1.719c-1.348-1.475-2.78-2.884-4.27-4.218c-1.627-1.457-3.397-1.513-5.365-0.495
				c-1.278,0.661-2.722,1.04-4.129,1.405c-2.924,0.759-4.579-0.262-6.03-2.946c-1.434-2.651-3.616-4.392-6.897-4.525
				c-2.283-0.092-4.551-0.575-6.619-0.855c0.162-1.195,0.444-1.925,0.275-2.528c-0.1-0.357-1.119-0.848-1.36-0.697
				c-0.548,0.344-0.871,1.047-1.419,1.783c-6.079-3.567-10.782-8.664-12.952-15.513c-2.36-7.45-3.672-15.232-5.998-22.695
				c-3.074-9.859-2.586-19.616-0.405-29.47c0.681-3.078,1.312-6.169,2.102-9.219c0.152-0.586,0.909-1.049,1.452-1.488
				c0.391-0.316,0.89-0.498,1.341-0.74c-0.43-0.462-0.861-0.923-1.706-1.83c1.378-2.76,2.672-6.089,4.583-9.017
				c3.329-5.102,6.272-10.313,8.403-16.066c1.477-3.986,4.104-7.533,5.748-11.473c1.537-3.684,2.457-7.625,3.643-11.455
				c0.047-0.152,0.033-0.321,0.053-0.482c0.878-6.87,3.109-8.354,9.764-6.524c2.73,0.751,5.511,1.339,8.195,2.223
				c5.455,1.797,6.901,5.908,3.931,10.857c-0.414,0.691-0.942,1.312-1.402,1.977c-1.746,2.522-3.485,5.048-5.313,7.699
				c0.06,0.04-0.376-0.25-0.9-0.598c-0.522,0.931-0.989,1.763-1.581,2.817c0.823,0.21,1.457,0.371,2.232,0.568
				c-0.296,2.099-0.644,4.196-0.855,6.306c-0.055,0.554,0.174,1.525,0.513,1.65c0.688,0.253,2.093,0.318,2.238,0.008
				c1.346-2.872,3.976-1.564,6.037-2.056c1.155-0.275,2.286-0.675,3.401-1.091c0.672-0.251,1.258-0.769,1.941-0.947
				c4.956-1.292,9.753-3.13,15.152-2.273c1.689,0.268,4.195,0.056,5.885-1.664c0.546-0.555,1.89-1.069,2.409-0.779
				c2.224,1.242,3.402-0.134,4.753-1.433c0.532-0.512,1.238-0.844,2.284-1.536c-0.353,2.014-0.602,3.437-0.852,4.86
				c0.262,0.156,0.525,0.313,0.787,0.469c0.648-0.656,1.248-1.371,1.959-1.949c0.569-0.462,1.273-0.758,1.917-1.127
				c0.28,0.543,0.869,1.154,0.769,1.614c-0.159,0.725-0.663,1.775-1.23,1.933c-1.676,0.465-2.718,1.313-3.035,3.039
				c6.354,0.075,2.209,5.144,3.69,8.025c1.594-5.726,3.075-11.046,4.649-16.697c5.765,2.882,6.918,9.379,11.313,11.847
				c1.203-1.093,2.143-1.911,3.043-2.772c1.155-1.107,2.412-2.143,3.388-3.395c2.626-3.368,4.483-3.358,6.888,0.197
				c-1.822,2.007-1.897,2.621-0.654,6.534c0.506-0.55,0.82-1.123,1.3-1.36c0.809-0.399,1.842-0.987,2.567-0.772
				c1.38,0.408,2,0.126,2.709-1.096c1.584-2.732,3.664-4.041,5.895-4.143c0.531,0.882,1.023,1.698,1.515,2.514
				c0.766-0.666,1.584-1.281,2.288-2.006c2.561-2.64,5.083-5.317,7.613-7.973c2.16,2.026,2.289,3.465,0.317,4.776
				c-1.742,1.158-1.914,2.185-0.589,3.649c4.246-2.568,3.667-6.689,3.361-10.671c-0.096-1.254-0.095-2.66,1.314-2.545
				c1.079,0.088,2.383,1.103,3.003,2.077c0.587,0.922,0.414,2.328,0.576,3.53c2.652-0.57,4.695,1.384,4.58,4.118
				c-0.036,0.851,0.217,1.732,0.442,2.571c0.194,0.721,0.536,1.402,0.838,2.164c0.418-0.542,0.883-1.005,1.173-1.56
				c0.286-0.548,0.395-1.188,0.621-1.912c6.932,0.172,8.139-7.232,12.741-10.285c0.272,2.153,0.377,3.92,0.809,5.602
				c0.087,0.337,1.447,0.56,2.178,0.476c1.562-0.181,3.948,0.242,2.699-3.053c-1.475,0.462-2.94,0.921-4.405,1.381
				c-0.136-0.154-0.273-0.309-0.409-0.463c0.689-1.081,1.378-2.162,2.22-3.483c1.184,0.644,2.26,1.229,3.625,1.971
				c-0.238,0.026-0.077,0.015,0.082-0.01c4.473-0.702,8.13-2.667,10.799-6.479c0.682-0.974,2.106-1.429,3.308-2.198
				c-0.466,1.391-0.882,2.635-1.298,3.878c0.281,0.14,0.563,0.279,0.845,0.419c1.237-1.345,3.398-2.61,3.523-4.052
				c0.287-3.307,2.565-5.39,3.774-8.083c1.291-2.877,2.763-5.673,4.153-8.505c0.107-0.218,0.153-0.472,0.288-0.668
				c5.076-7.369,8.751-15.436,12.016-23.728c0.425-1.08,1.614-1.975,2.648-2.654c0.54-0.355,2.106-0.265,2.195-0.014
				c0.875,2.453,3.319,2.174,5.061,3.037c0.533,0.264,1.585,0.215,2.008-0.147c6.876-5.876,10.832-13.727,14.492-21.757
				c0.314-0.688,0.508-1.583,0.363-2.303c-1.018-5.066,1.634-11.69,6.066-14.261c1.189-0.69,2.81-0.638,4.233-0.924
				c0.81-0.163,2.23-0.157,2.323-0.508c0.336-1.263,1.601-1.888,1.081-3.962c-0.789-3.146-0.109-6.855,0.667-10.156
				c1.456-6.198,3.29-12.318,5.238-18.384c1.026-3.195,2.5-6.268,4.002-9.281c1.302-2.613,2.929-5.065,4.414-7.59
				c-1.114-0.585-1.879-1.102-2.722-1.381c-0.413-0.136-1.093,0.019-1.447,0.301c-4.762,3.792-9.448,7.68-14.256,11.412
				c-0.971,0.753-2.336,1.135-3.579,1.373c-2.435,0.466-4.014-0.832-3.886-3.278c0.177-3.385,0.614-6.756,0.905-10.136
				c0.338-3.927,0.705-7.853,0.929-11.787c0.121-2.138-0.041-4.298,3.192-4.502c-2.721-0.84-3.074-3.051-3.689-5.117
				c-0.415-1.393-0.989-2.737-1.42-4.125c-0.679-2.184-1.273-4.125-0.217-6.667c0.869-2.094,0.125-4.915-0.1-7.396
				c-0.627-6.923-2.302-13.639-5.801-19.635c-3.329-5.705-3.752-11.467-2.46-17.741c0.555-2.695,0.508-5.604,0.194-8.355
				c-0.187-1.642-1.423-3.164-2.328-5.028c-0.39,0.705-0.846,1.383-1.157,2.121c-0.778,1.846-3.003,2.628-4.613,1.574
				c-3.513-2.3-4.013-6.044-4.96-9.575c0.24-0.107,0.481-0.214,0.721-0.321c0.32,0.891,0.522,1.853,1.001,2.649
				c0.352,0.585,1.068,0.951,1.621,1.414c0.373-0.501,0.997-0.965,1.077-1.509c0.443-3.031,0.755-6.081,1.149-9.442
				c0.358-0.123,1.168-0.401,2.162-0.742c0.938,1.404,1.864,2.789,2.936,4.393c1.209-5.309,0.507-10.78,3.464-15.892
				c0.611,1.392,1.041,2.373,1.471,3.353c-0.013-2.969,4.638-3.963,3.061-7.671c-0.64,0.603-1.195,1.127-1.75,1.651
				c-0.202-0.032-0.404-0.064-0.606-0.096c0.495-4.12,0.989-8.241,1.568-13.064c-0.557,0.975-0.723,1.442-1.034,1.774
				c-0.822,0.88-1.67,1.744-2.581,2.529c-0.594,0.512-1.651,0.724-1.922,1.33c-0.945,2.107-2.424,2.352-4.416,1.494
				c-0.873,3.352,2.436,2.633,3.665,4.013c-0.331,0.556-0.547,1.204-0.986,1.611c-2.711,2.508-4.564,5.377-4.662,9.243
				c-0.021,0.839-0.73,1.792-1.368,2.456c-1.156,1.203-2.496,2.228-3.69,3.266c0.775-4.672,1.574-9.491,2.417-14.574
				c-1.361,0-2.26,0-3.875,0c3.995-3.863,7.541-7.236,9.544-11.972c1.892-4.473,4.513-8.638,6.813-12.938
				c-0.289-0.165-0.578-0.329-0.866-0.494c-1.872,2.99-3.745,5.981-5.569,8.894c-0.645-2.487-1.332-5.136-1.966-7.578
				c0.831-0.491,1.631-0.826,2.208-1.39c0.172-0.168-0.171-1.322-0.473-1.419c-0.61-0.196-1.354,0.022-1.826,0.054
				c0.527-5.27,1.125-10.791,1.607-16.323c0.16-1.834-0.035-3.695,0.032-5.54c0.102-2.809,0.059-5.652,0.506-8.412
				c0.473-2.921,1.496-5.75,2.162-8.646c0.141-0.612-0.007-1.598-0.416-1.937c-0.376-0.312-1.545-0.253-1.912,0.106
				c-2.471,2.416-5.611,1.509-8.484,1.875c-2.409,0.307-4.997,0.09-7.207,0.909c-6.202,2.3-12.175,2.949-18.672,0.768
				c-3.02-1.014-6.681-0.157-10.05-0.08c-4.579,0.104-9.159,0.449-13.732,0.367c-4.888-0.087-9.477,0.892-13.801,3.06
				c-7.25,3.636-11.721,2.123-17.669-3.37c-2.692-2.485-5.297-3.999-9.405-3.732c-3.689,0.24-7.502-1.49-11.267-2.321
				c-0.844-0.186-1.737-0.43-2.571-0.334c-4.545,0.523-9.082,1.121-13.616,1.737c-3.509,0.477-6.996,1.24-10.518,1.444
				c-2.02,0.117-3.979,0.116-5.997,0.58c-1.871,0.429-3.909,0.107-5.87,0.185c-0.445,0.018-1.122,0.199-1.28,0.513
				c-1.453,2.873-3.905,1.909-5.936,1.329c-2.385-0.681-4.693-1.783-6.875-2.99c-3.326-1.838-5.062-5.041-5.927-8.547
				c-1.323-5.362-4.149-9.936-6.645-14.744c-1.168-2.249-2.629-5.063-1.069-8.001c0.664-1.25,0.223-2.143-1.39-2.519
				c-0.286,1.572-0.551,3.035-0.817,4.497c-0.246-0.009-0.493-0.018-0.739-0.027c0.083-1.586-0.27-3.373,0.347-4.714
				c1.063-2.309,2.536-4.505,4.185-6.454c3.767-4.453,6.581-9.337,8.354-14.923c0.789-2.487,2.376-4.725,3.627-7.061
				c1.287-2.403,2.828-4.697,3.858-7.203c1.461-3.554,3.566-6.471,6.638-8.779c1.997-1.5,3.857-3.189,5.727-4.85
				c0.381-0.338,0.542-0.927,0.79-1.408c0.32-0.622,0.457-1.527,0.963-1.836c4.555-2.783,8.042-6.619,11.365-10.726
				c1.081-1.336,3.326-1.667,4.66-2.875c1.801-1.63,3.329-3.594,4.806-5.543c1.95-2.574,3.528-5.463,5.695-7.823
				c0.869-0.947,2.862-0.946,4.373-1.201c2.948-0.498,3.819-3.385,5.812-4.971c0.093-0.074-0.482-0.989-0.815-1.649
				c3.904-1.565,8.216-1.553,12.362-0.677c5.83,1.233,11.59,2.891,17.27,4.71c3.331,1.067,6.157,0.639,8.929-1.253
				c0.393-0.268,0.819-0.487,0.818-0.486c1.847,2.141,3.566,4.133,5.284,6.125c0.259-0.139,0.518-0.277,0.777-0.416
				c-0.251-1.067-0.502-2.135-0.914-3.885c2.959,2.153,4.263,0.046,6.718-1.48c-2.673-1.239-4.798-2.223-6.922-3.208
				c0.002-0.212,0.004-0.423,0.006-0.635c1.729,0,3.535-0.327,5.173,0.06c5.586,1.319,11.079,3.037,16.681,4.275
				c1.691,0.374,3.612-0.403,5.436-0.501c3.115-0.167,6.26-0.016,9.35-0.364c3.411-0.385,6.866-0.888,10.134-1.889
				c2.91-0.892,5.594-2.524,8.369-3.849c2.887-1.378,5.843-1.754,8.97-0.883c0.987,0.275,2.077,0.329,3.108,0.273
				c3.386-0.183,6.886,0.001,10.118-0.829c3.691-0.948,7.138-2.841,10.699-4.304c1.019-0.419,2.066-0.769,3.101-1.151
				c-1.001,1.277-2.003,2.555-2.879,3.673c1.798,1.055,3.499,2.11,5.261,3.05c0.457,0.244,1.13,0.26,1.66,0.157
				c2.685-0.52,5.411-0.932,8.02-1.722c4.581-1.388,9.272-2.558,13.379-5.174c0.47-0.299,1.133-1.142,1.019-1.345
				c-0.305-0.542-0.956-1.18-1.521-1.233c-2.536-0.236-5.088-0.354-7.636-0.382c-5.238-0.058-10.485-0.119-15.537,1.632
				c1.977-1.129,3.841-2.586,5.957-3.307c2.958-1.008,6.084-1.578,9.177-2.113c1.386-0.24,2.945-0.221,4.289,0.16
				c5.859,1.658,11.742,3.013,17.883,3.021c1.404,0.002,2.807,0.486,4.186,1.312c-2.167,0.113-4.853-0.539-6.388,0.503
				c-2.907,1.975-6.372,1.434-9.243,3.023c-1.049,0.581-2.29,0.807-3.382,1.326c-0.416,0.198-0.658,0.762-0.979,1.16
				c0.448,0.227,0.902,0.655,1.344,0.643c1.29-0.036,2.588-0.434,3.859-0.349c2.381,0.159,4.809,0.315,7.102,0.914
				c3.395,0.887,6.213,1.707,9.069-1.84c1.431-1.778,4.485-3.189,7.678-1.633c5.441,2.652,11.296,3.905,17.368,4.026
				c0.565,0.011,1.198,0.17,1.684-0.025c4.377-1.759,7.96-0.123,11.553,2.306c2.249,1.52,4.78,2.676,7.293,3.74
				c4.788,2.028,8.956,4.753,12.076,9.035c2.564,3.52,6.068,5.8,10.367,6.713c3.8,0.807,7.015,2.691,10.238,4.807
				c2.996,1.967,6.398,3.335,9.689,4.815c0.662,0.298,1.629-0.084,2.343-0.144c0.574,0.445,1.294,1.353,1.693,1.23
				c0.63-0.195,1.044-1.083,1.751-1.916c1.144,0,2.644,0,4.2,0c-0.677,0.619-1.213,1.109-1.749,1.599
				c0.696,0.424,1.385,1.188,2.088,1.201c1.555,0.029,3.398,1.257,4.651-0.777c0.099-0.16,0.603-0.174,0.881-0.105
				c6.359,1.575,12.553-0.01,18.673-1.286c4.094-0.854,7.706-0.544,11.53,1.104c9.925,4.278,19.542,9.449,30.464,11.022
				c1.546,0.223,3.243,0.725,3.402,3.029c-0.661,0.196-1.46,0.229-1.936,0.638c-0.368,0.316-0.649,1.309-0.428,1.649
				c2.975,4.571,6.032,9.09,9.098,13.601c1.906,2.805,4.471,4.783,7.468,6.402c1.536,0.83,2.724,2.409,3.887,3.801
				c1.385,1.659,2.369,3.687,3.883,5.197c6.825,6.806,12.049,14.525,14.747,23.888c0.709,2.459,1.877,4.834,3.137,7.077
				c2.891,5.143,4.681,10.577,5.692,16.404c0.965,5.562,2.644,10.997,3.909,16.511c1.775,7.742,1.587,15.38,0.263,23.304
				c-1.266,7.58-0.73,15.463-0.964,23.213c-0.197,6.537-0.338,13.075-0.551,19.612c-0.066,2.018-0.433,4.033-0.414,6.046
				c0.125,12.721-0.584,25.233-3.588,37.784c-3.415,14.269-5.393,28.91-7.451,43.466c-1.352,9.566-4.295,18.718-6.121,28.134
				c-0.995,5.135-1.11,10.438-1.687,15.659c-0.123,1.114-0.464,2.218-0.816,3.29c-3.376,10.278-6.84,20.527-10.129,30.833
				c-1.004,3.145-1.449,6.463-2.321,9.656c-0.953,3.491-1.707,7.121-3.269,10.341c-2.064,4.252-3.194,8.599-3.483,13.253
				c-0.313,5.02-1.836,9.423-5.901,12.824c-1.346,1.126-2.089,3.044-2.932,4.689c-3.576,6.973-9.234,11.544-16.389,14.435
				c-7.09,2.865-8.579,5.3-8.852,13.001c-0.263,7.416-0.929,14.818-1.323,22.231c-0.072,1.343,0.419,2.706,0.466,4.066
				c0.125,3.65-1.372,5.676-4.967,6.365c-5.514,1.057-10.862,1.169-15.841-2.323c-2.134-1.497-4.786-2.318-7.284-3.222
				c-6.297-2.279-11.062-5.958-12.7-12.85c-0.195-0.822-0.955-1.755-1.71-2.162c-5.937-3.201-10.082-8.243-14.108-13.427
				c-1.578-2.032-3.431-3.932-2.961-6.868c0.047-0.293-0.335-0.667-0.545-0.986c-1.571-2.379-1.467-3.679,0.084-5.161
				c-0.446-0.95-1.257-1.842-1.076-2.43c1.054-3.429-1.183-5.691-2.643-8.236c-1.343-2.34-2.85-4.775-1.38-7.471
				c1.763-3.233,1.126-6.67,1.421-10.036c0.068-0.777,0.333-1.538,0.376-2.314c0.031-0.553,0.044-1.313-0.28-1.648
				c-3.142-3.26-4.325-6.813-2.17-11.126c0.716-1.432,1.125-3.021,1.639-4.55c0.571-1.698,0.308-2.757-1.833-2.955
				c-2.258-0.209-2.987-1.728-1.92-3.776c0.896-1.718,2.032-3.308,2.977-5.003c5.459-9.788,9.253-20.318,10.627-31.315
				c1.214-9.721,1.115-19.65-3.62-28.964c-4.276-8.409-8.474-16.792-15.553-23.252c-10.522-9.601-26.432-11.459-38.877-4.54
				c-3.029,1.684-5.936,3.642-8.7,5.737c-3.476,2.635-7.201,4.554-11.442,5.64c-2.156,0.552-4.282,1.475-6.217,2.587
				c-3.432,1.973-6.756,4.145-10.023,6.383c-1.311,0.898-2.595,2.027-3.474,3.332c-3.613,5.361-7.091,10.815-10.567,16.267
				c-1.929,3.024-2.77,6.323-3.268,9.936c-0.8,5.806-2.338,11.52-3.739,17.23c-1.211,4.933-1.36,9.834-0.898,14.894
				c0.526,5.769,0.493,11.594,0.586,17.396c0.066,4.116-0.007,8.236-0.136,12.351c-0.039,1.256-0.595,2.492-0.663,3.751
				c-0.031,0.575,0.664,1.728,0.831,1.692c2.234-0.479,2.461,1.387,3.084,2.615c2.927,5.773,4.864,11.836,4.583,18.389
				c-0.077,1.792-0.821,3.548-1.109,5.344c-0.058,0.364,0.558,0.837,0.863,1.259c0.415-0.133,0.83-0.267,1.245-0.4
				c0,5.659,0.179,11.327-0.1,16.973c-0.094,1.898-1.132,3.867-2.121,5.584c-4.19,7.272-5.382,15.343-6.526,23.441
				c-1.076,7.616-2.84,15.087-5.955,22.108c-1.305,2.942-3.328,5.816-5.696,7.988c-7.15,6.556-14.652,12.729-21.971,19.102
				c-3.172,2.762-6.251,5.632-9.342,8.486c-3.173,2.929-4.576,6.576-4.317,10.886c0.21,3.497,0.062,6.942-1.747,10.087
				c0.302-1.424,0.602-2.842,0.902-4.26c-0.192-0.053-0.383-0.107-0.575-0.16c-0.766,0.631-1.532,1.263-2.419,1.993
				c-0.938-1.928-1.342-3.458,0.391-4.993c0.381-0.337,0.007-1.526-0.019-2.323c-0.674,0.186-1.566,0.162-1.986,0.595
				c-1.888,1.945-2.396,4.365-1.845,6.975C924.556,804.411,927.466,805.701,929.448,804.417z M1193.004,321.51
				c-1.615,0.545-1.58,1.615-1.223,3.074c0.322,1.318,0.119,2.755,0.304,4.119c0.153,1.126,0.169,2.634,0.877,3.262
				c4.078,3.616,8.328,7.04,12.57,10.467c0.407,0.329,1.336,0.499,1.701,0.258c0.373-0.247,0.6-1.168,0.452-1.661
				c-0.393-1.304-0.988-2.553-1.568-3.793C1203.134,330.859,1197.926,326.331,1193.004,321.51z M976.762,428.492
				c1.88-0.498,3.084-0.817,4.492-1.189c-0.677,1.753-1.439,3.133-1.738,4.607c-1.147,5.643-3.852,9.837-9.734,11.457
				c-0.554,0.153-0.894,1.082-1.333,1.65c0.699-0.067,1.517,0.077,2.074-0.24c1.714-0.973,3.329-2.122,4.982-3.203
				c0.234,0.189,0.469,0.378,0.703,0.567c-0.451,0.826-0.76,1.788-1.389,2.443c-0.727,0.756-1.736,1.241-3.053,2.137
				c1.276,0.467,1.99,0.729,2.663,0.976c2.915-3.075,2.1-8.304,6.842-10.546c-0.798,2.349-1.516,4.291-2.1,6.272
				c-0.197,0.668-0.054,1.436-0.067,2.159c0.55-0.521,1.399-0.946,1.602-1.578c1.503-4.675,2.878-9.391,4.336-14.236
				c-1.995,0.267-1.981-0.767-1.917-2.124c0.07-1.494-0.191-3.004-0.326-4.736C980.692,424.858,979.004,426.418,976.762,428.492z
				 M966.817,607.221c-1.365,1.535-2.235,2.997-3.512,3.855c-3.383,2.272-5.118,7.221-3.357,11.437
				c0.624-1.175,1.096-2.065,1.884-3.549c0.509,1.595,0.833,2.766,1.261,3.898c0.265,0.701,0.553,1.732,1.072,1.908
				c0.583,0.198,1.639-0.195,2.133-0.688c1.242-1.239,1.971-2.623,0.985-4.552c-0.478-0.934-0.359-2.268-0.241-3.393
				C967.345,613.244,968.158,610.352,966.817,607.221z M1096.493,368.068c-0.204,2.421,1.359,4.319,2.972,3.961
				c3.716-0.826,7.448-1.583,11.165-2.406c0.483-0.107,1.236-0.369,1.299-0.675c0.087-0.424-0.229-1.163-0.605-1.408
				c-1.602-1.042-3.291-1.951-4.948-2.908c-0.028,0.308-0.056,0.616-0.084,0.924c-1.04,0.142-2.16,0.604-3.106,0.367
				c-3.053-0.764-5.79,0.219-8.565,1.155c-0.056,0.019-0.033,0.274-0.055,0.5C1095.15,367.726,1095.747,367.878,1096.493,368.068z
				 M966.746,476.064c-2.788,1.928-4.429,4.424-4.387,8.106c-1.112-0.362-2.14-0.697-3.342-1.089
				c-0.939,1.689-1.86,3.347-2.781,5.005c0.161,0.141,0.322,0.281,0.483,0.422c1.243-0.639,2.486-1.279,4.56-2.346
				c-0.552,1.929-0.901,3.29-1.332,4.624c-0.64,1.982-1.519,3.909-1.927,5.933c-0.186,0.922,0.508,2.023,0.803,3.042
				c0.229-0.075,0.459-0.15,0.688-0.225c1.098-4.099,2.311-8.172,3.261-12.306C963.664,483.354,966.256,480.085,966.746,476.064z
				 M966.246,439.242c-1.957,0.655-3.915,1.311-6.245,2.091c0.836-2.444,1.697-4.96,2.773-8.108
				c-4.475,2.812-8.684,4.846-8.068,10.14C959.916,445.612,963.367,443.169,966.246,439.242z M954.673,487.22
				c1.328-2.333,2.271-3.989,3.276-5.754c-1.267-0.46-2.108-0.765-3.738-1.357c3.235-4.258,6.13-8.069,9.065-11.933
				c-0.295-0.076-0.374-0.124-0.441-0.11c-3.441,0.73-5.157,3.669-6.896,6.129c-1.201,1.699-3.595,3.593-2.091,6.457
				c0.132,0.252-0.408,0.964-0.761,1.346c-1.315,1.423-2.752,2.74-3.985,4.227c-0.323,0.39-0.075,1.252-0.09,1.898
				c0.54-0.178,1.224-0.208,1.59-0.565c0.853-0.83,1.553-1.817,2.395-2.837C953.508,485.482,953.896,486.061,954.673,487.22z
				 M977.053,456.302c-0.204-0.15-0.408-0.299-0.612-0.449c-0.889,0.931-2.085,1.719-2.605,2.824
				c-1.093,2.321-1.819,4.813-2.72,7.226c-0.317,0.848-0.56,1.779-1.094,2.476c-0.908,1.187-2.019,2.218-3.045,3.315
				c0.207,0.209,0.415,0.418,0.622,0.627c1.322-1.127,2.644-2.253,4.525-3.857c-0.561,3.86-1.008,6.937-1.456,10.014
				c0.33,0.069,0.661,0.138,0.991,0.206c0.566-2.12,1.312-4.211,1.66-6.366c0.778-4.815,0.2-9.922,3.321-14.205
				C976.976,457.654,976.925,456.913,977.053,456.302z M1092.944,614.24c-3.281-0.177-5.23,1.411-6.464,4.786
				c-0.827,2.261-1.942,4.414-2.892,6.632c-0.16,0.374-0.134,0.827-0.281,1.851c2.261-1.161,4.139-1.996,5.852-3.09
				c0.465-0.297,0.811-1.581,0.553-2.054c-0.693-1.273-0.078-1.905,0.713-2.689C1091.927,618.189,1093.227,616.578,1092.944,614.24z
				 M954.848,468.05c1.368-1.695,3.266-3.024,3.398-4.51c0.12-1.353-1.677-2.876-2.718-4.46c-0.782,1.227-1.216,2.003-1.744,2.708
				c-0.532,0.71-1.184,1.329-1.736,2.025c-1.192,1.502-1.236,2.952,0.337,4.232c0.427,0.347,0.938,0.591,1.373,0.859
				c-0.776,1.125-1.264,1.833-1.766,2.561c2.327,1.061,4.491-0.421,5.149-3.416C956.456,468.05,955.78,468.05,954.848,468.05z
				 M854.242,332.155c-1.683-2.61-3.164-4.907-4.621-7.166c1.282-2.854,1.156-3.395-1.567-4.743
				c-0.676-0.335-1.642-0.085-2.474-0.105c0.06,0.71-0.089,1.532,0.221,2.108c0.785,1.458,0.917,2.623-0.842,3.306
				C846.366,328.722,847.629,329.623,854.242,332.155z M950.861,517.926c0.8,0.633,1.502,1.187,2.468,1.951
				c0.069-0.799,0.202-1.148,0.107-1.414c-1.424-3.965-0.547-7.886,0.016-11.86c0.208-1.465-0.416-3.048-0.66-4.577
				c-0.353-0.077-0.707-0.155-1.06-0.232c-0.433,0.804-1.2,1.593-1.238,2.415c-0.122,2.649,0.047,5.311,0.051,7.968
				c0.001,0.609-0.034,1.62-0.357,1.764c-3.041,1.358-0.695,3.195-0.772,5.303C950.118,518.603,950.447,518.304,950.861,517.926z
				 M1027.216,475.055c-0.289-0.137-0.577-0.275-0.866-0.412c-1.441,2.514-2.901,5.018-4.298,7.556
				c-0.16,0.29-0.121,0.98,0.087,1.137c1.948,1.465,1.049,3.256,0.721,5.025c-0.112,0.603,0.084,1.263,0.139,1.897
				C1027.007,485.709,1027.796,480.541,1027.216,475.055z M948.438,372.376c-0.175-0.093-0.35-0.186-0.525-0.278
				c-2.486,1.926-4.973,3.852-6.776,5.249c-0.59,1.578-0.735,2.656-1.315,3.391c-1.939,2.46-2.604,5.236-2.35,8.407
				c1.28-1.506,2.395-3.113,3.309-4.828c1.621-3.042,2.805-6.31,5.637-8.615C947.365,374.93,947.779,373.504,948.438,372.376z
				 M960.272,422.17c0.258,0.116,0.515,0.231,0.772,0.347c1.992-1.982,2.956-5.243,6.374-5.478c0.185-0.013,0.344-0.513,0.501-0.795
				c0.704-1.269,1.554-2.486,2.041-3.834c0.263-0.727-0.1-1.68-0.18-2.531c-0.758,0.198-1.852,0.144-2.218,0.634
				c-2.449,3.276-4.765,6.654-7.06,10.042C960.228,420.96,960.339,421.625,960.272,422.17z M887.433,307.164
				c2.147,3.648,4.15,7.05,6.275,10.66c0.308-0.819,0.473-1.256,0.699-1.856c0.557,1.034,0.979,1.819,1.527,2.837
				c1.735-1.933,0.954-3.171-0.23-4.47c-0.668-0.733-1.783-2.096-1.564-2.428c1.295-1.966-0.455-2.486-1.757-4.207
				c-0.309,0.977-0.534,1.692-0.738,2.338C890.012,308.856,890.845,305.749,887.433,307.164z M1036.081,453.612
				c-3.77,3.084-5.037,8.157-3.183,11.433c0.645-0.706,1.44-2.128,1.937-2.03c2.492,0.489,2.719-1.393,3.253-2.319
				c-0.441-1.499-0.764-2.565-1.068-3.637C1036.714,455.971,1036.425,454.878,1036.081,453.612z M881.326,255.032
				c-4.887,5.489-5.512,6.819-3.794,8.46c0.334-0.616,0.642-1.184,1.056-1.95c0.312,0.458,0.518,0.685,0.639,0.95
				c0.752,1.645,2.033,1.712,3.42,1.037c1.671-0.813,1.607-2.392,1.103-3.766C883.163,258.161,882.199,256.695,881.326,255.032z
				 M1013.648,464.793c2.322-3.16,2.948-6.659,2.582-10.524c-3.726,1.219-5.974,6.283-5.161,11.247
				c0.972-1.227,1.876-2.368,2.779-3.508c0.12,0.062,0.24,0.124,0.361,0.186C1014.021,463.061,1013.834,463.927,1013.648,464.793z
				 M967.704,604.175c1.165,0.508,2.042,0.802,2.822,1.26c0.525,0.308,1.207,0.802,1.285,1.296c0.084,0.533-0.295,1.367-0.746,1.72
				c-2.344,1.832-3.132,4.22-2.27,7.385c2.76-0.821,4.867-7.571,3.894-12.649c-0.528,0.202-1.034,0.396-1.534,0.587
				c-0.177-0.913-0.318-1.638-0.578-2.98C969.444,602.127,968.71,602.991,967.704,604.175z M954.651,411.848
				c-1.233,0.184-1.763,0.439-2.125,0.289c-2.243-0.933-2.505,0.431-2.799,2.132c-0.271,1.57-0.96,3.066-1.263,4.633
				c-0.153,0.792,0.137,1.67,0.227,2.509c0.895-0.334,2.298-0.424,2.597-1.044C952.519,417.806,953.413,415.084,954.651,411.848z
				 M1137.958,509.865c-3.862,3.572-4.309,9.126-1.176,12.892C1139.207,518.622,1138.318,514.385,1137.958,509.865z
				 M959.181,254.764c5.911,2.147,9.934,0.568,12.424-4.553c-3.186,0.851-6.294,1.963-9.381,3.134
				C961.181,253.74,960.194,254.286,959.181,254.764z M1075.675,397.654c2.895-2.68,5.693-5.268,8.599-7.959
				c0.504,0.778,0.77,1.19,1.259,1.945c1.073-2.126,1.996-3.955,2.906-5.758c-3.203,0.857-5.637,2.149-7.823,4.556
				C1077.666,393.686,1075.194,396.127,1075.675,397.654z M1028.224,458.791c1.391-3.877,2.746-7.655,4.24-11.819
				C1026.324,449.325,1024.735,454.448,1028.224,458.791z M952.344,431.511c0.561-2.488,3.514-4.678,1.433-7.718
				c-0.418,0.233-0.966,0.349-1.055,0.617c-0.976,2.947-1.954,5.9-2.692,8.909c-0.077,0.313,1.619,1.589,2.086,1.403
				c1.178-0.472,2.14-1.506,3.14-2.37c0.101-0.087-0.099-0.793-0.2-0.803C954.331,431.477,953.596,431.511,952.344,431.511z
				 M876.454,713.748c3.434-0.088,4.133-0.546,3.275-2.105c-0.897-1.63-0.18-2.572,0.831-3.549c1.995-1.927,1.961-2.895-0.365-4.997
				C876.93,705.895,876.749,709.741,876.454,713.748z M1048.631,502.655c-3.948,1.472-4.17,5.392-6.962,8.08
				c0.982-0.157,1.297-0.11,1.422-0.242c1.427-1.509,3.016-2.167,5.224-2.027c1.924,0.122,3.457-1.019,3.583-3.502
				c-1.05,0.064-1.965,0.119-2.9,0.176C1048.877,504.312,1048.774,503.618,1048.631,502.655z M992.448,389.717
				c-0.456,1.167-1.293,2.212-1.102,3.012c0.767,3.207,0.44,6.19-0.893,9.163c-0.17,0.379,0.337,1.06,0.53,1.601
				c0.568-0.299,1.47-0.469,1.643-0.919c0.66-1.716,1.244-3.494,1.559-5.301C994.637,394.691,994.363,392.169,992.448,389.717z
				 M996.704,423.113c-0.575-0.863-1.014-1.521-1.453-2.179c-0.528,0.629-1.237,1.18-1.549,1.903
				c-0.765,1.77-1.417,3.598-1.957,5.449c-0.159,0.547,0.208,1.248,0.335,1.878c0.595-0.31,1.357-0.479,1.755-0.954
				c1.667-1.989,3.259-4.044,4.797-6.135c0.399-0.542,0.505-1.299,0.746-1.958c-0.182-0.082-0.364-0.164-0.545-0.246
				C998.139,421.601,997.447,422.33,996.704,423.113z M1016.876,374.174c-0.31-0.232-0.621-0.463-0.931-0.695
				c-3.65,3.091-7.31,6.17-10.922,9.305c-0.198,0.172,0.011,0.814,0.031,1.238c0.502-0.049,1.129,0.075,1.482-0.18
				c1.104-0.797,2.087-1.759,3.148-2.618c1.992-1.611,4.06-3.135,5.981-4.826C1016.26,375.874,1016.483,374.927,1016.876,374.174z
				 M1074.657,427.96c0.738-1.344,1.407-2.195,1.687-3.158c0.453-1.563,0.768-3.193,0.88-4.813c0.031-0.443-0.801-1.204-1.359-1.348
				c-0.434-0.112-1.228,0.378-1.563,0.825c-0.974,1.297-1.797,2.707-2.307,3.495C1072.907,424.674,1073.681,426.127,1074.657,427.96
				z M1132.941,380.223c2.634-1.864,5.069-3.581,7.492-5.314c0.187-0.133,0.359-0.361,0.423-0.579
				c0.372-1.266,0.73-2.538,1.014-3.825c0.018-0.081-0.865-0.518-0.938-0.437c-0.803,0.892-1.528,1.854-2.538,3.131
				c-0.233,0.025-0.991,0.107-1.75,0.189c0.15,0.213,0.301,0.427,0.451,0.64c-0.868,0.811-1.773,1.588-2.595,2.443
				C1133.591,377.418,1131.888,378.027,1132.941,380.223z M877.158,303.708c-2.333-4.054-5.909-6.464-10.406-7.693
				c2.886,2.628,5.772,5.257,8.658,7.885c-0.224,0.173-0.448,0.346-0.672,0.518C875.514,304.19,876.291,303.962,877.158,303.708z
				 M1005.661,417.281c0.095,0.017,0.19,0.035,0.284,0.052c0.624-2.36,1.245-4.721,1.874-7.08c0.393-1.475,1.001-2.933,1.106-4.427
				c0.049-0.692-0.873-1.453-1.354-2.183c-0.637,0.471-1.808,0.922-1.826,1.415C1005.596,409.128,1005.661,413.206,1005.661,417.281
				z M1017.092,432.598c0.394,0.162,0.788,0.324,1.182,0.486c0.516-0.701,1.139-1.348,1.523-2.115
				c0.585-1.17,1.103-2.393,1.474-3.645c0.683-2.307,2.492-4.437,1.034-7.16c-0.639,2.052-1.279,4.104-1.951,6.261
				c-0.663-0.229-1.147-0.396-2.288-0.791C1017.721,428.11,1017.407,430.354,1017.092,432.598z M1071.455,320.115
				c0.237-0.142,0.474-0.284,0.711-0.425c-0.458-0.631-0.863-1.754-1.382-1.808c-2.333-0.246-3.693-1.738-5.187-3.263
				c-1.211-1.236-2.723-2.177-4.102-3.249c-0.151,0.209-0.302,0.419-0.453,0.628
				C1062.813,316.867,1067.177,318.435,1071.455,320.115z M996.646,499.744c-3.14,2.035-4.598,8.228-2.874,11.955
				C995.998,507.873,995.973,504,996.646,499.744z M961.801,625.673c-0.443-0.062-0.887-0.124-1.33-0.186
				c-0.507,3.506-1.049,7.008-1.476,10.525c-0.054,0.448,0.498,0.969,0.769,1.457c0.454-0.363,1.268-0.693,1.305-1.093
				C961.391,632.815,961.576,629.242,961.801,625.673z M1151.133,511.088c-0.91,0.811-1.825,1.615-2.727,2.434
				c-0.974,0.884-1.936,1.78-3.078,2.832c0.545,0.918,1.183,1.991,1.84,3.097C1150.539,517.621,1150.592,514.32,1151.133,511.088z
				 M1010.397,476.872c-1.624,3.557-3.074,6.733-4.525,9.909C1010.095,485.085,1012.728,479.461,1010.397,476.872z
				 M1023.434,403.271c-4.931,2.265-6.141,4.593-4.017,7.273C1022.746,409.331,1023.242,406.55,1023.434,403.271z M1085.339,465.086
				c1.99,1.177,4.919-1.655,6.032-5.961c-1.562,0.051-3.269-0.637-4.105,1.467C1086.688,462.046,1086.035,463.47,1085.339,465.086z
				 M1016.536,532.943c2.16,0.15,4.282,0.599,5.235-1.797c0.287-0.722-0.268-1.89-0.69-2.726c-0.153-0.303-1.249-0.516-1.565-0.287
				C1017.972,529.253,1016.611,530.574,1016.536,532.943z M974.51,501.1c3.374-0.739,5.107-2.738,6.344-5.275
				c0.18-0.369,0.167-0.94,0.008-1.32c-0.082-0.197-0.794-0.371-1.023-0.232C977.338,495.797,975.219,497.652,974.51,501.1z
				 M909.31,320.269c2.289,2.234,4.362,4.257,6.435,6.28c-0.05-1.793-0.582-3.112-1.039-4.457
				C913.689,319.098,913.204,318.876,909.31,320.269z M1123.87,444.499c-0.41-0.076-0.82-0.152-1.23-0.228
				c0.321,3.372-4.944,5.963-0.331,9.946C1122.829,450.978,1123.349,447.739,1123.87,444.499z M1056.639,414.624
				c0.106-0.005,0.212-0.01,0.317-0.016c1.191-2.197,2.463-4.355,3.512-6.618c0.241-0.52-0.086-1.577-0.519-2.053
				c-0.369-0.405-1.607-0.66-1.859-0.399c-0.567,0.586-1.25,2.035-1.028,2.252c1.599,1.561,0.141,2.811-0.158,4.186
				C1056.717,412.838,1056.721,413.741,1056.639,414.624z M963.679,447.104c-0.183-0.196-0.365-0.391-0.548-0.587
				c-1.98,1.357-3.998,2.665-5.906,4.118c-0.332,0.253-0.198,1.118-0.279,1.7c0.59,0.05,1.296,0.335,1.749,0.11
				C961.039,451.286,962.744,449.509,963.679,447.104z M826.273,830.923c-0.283,0.293-1.368,1.252-1.29,1.357
				c0.979,1.333,2.093,2.578,3.296,3.714c0.087,0.082,1.546-0.772,1.661-1.336C830.263,833.088,828.38,831.025,826.273,830.923z
				 M953.98,497.664c-0.164-0.036-0.327-0.072-0.49-0.109c-0.076-0.542-0.072-1.111-0.252-1.616c-0.141-0.396-0.46-0.774-0.799-1.03
				c-0.118-0.089-0.72,0.159-0.768,0.342c-0.104,0.392-0.165,1.002,0.059,1.243c1.639,1.768,3.431,3.429,2.721,6.327
				c2.477-3.797,2.758-6.04,1.142-8.032C955.034,495.784,954.507,496.724,953.98,497.664z M969.128,515.172
				c-2.448,2.03-2.254,9.085,0,11.665C969.128,522.673,969.128,518.923,969.128,515.172z M820.757,719.354
				c-0.351-1.747-0.534-3.127-0.941-4.438c-0.152-0.49-0.772-1.017-1.279-1.155c-0.368-0.1-1.12,0.296-1.324,0.673
				c-0.648,1.2-1.119,2.495-1.65,3.733C817.267,718.557,819.011,718.955,820.757,719.354z M893.76,256.384
				c-1-0.697-1.597-1.463-2.17-1.445c-1.598,0.048-3.028,0.953-2.759,2.646c0.149,0.936,1.51,1.679,2.324,2.51
				C891.916,259.01,892.676,257.927,893.76,256.384z M1038.843,410.382c0.471-1.29,0.701-2.52,1.323-3.501
				c1.375-2.168,0.357-3.128-1.564-3.915C1036.598,409.625,1036.598,409.625,1038.843,410.382z M949.753,564.857
				c3.425,0.362,7.319-3.94,7.334-7.523C954.62,559.865,952.362,562.181,949.753,564.857z M945.794,444.013
				c-1.027,1.339-2.482,2.505-2.785,3.917c-0.169,0.787,1.581,1.985,2.65,3.209C947.04,447.692,947.086,445.677,945.794,444.013z
				 M1118.706,426.097c0.29-2.035,0.576-3.376,0.626-4.726c0.019-0.521-0.396-1.174-0.809-1.552
				c-0.253-0.232-1.248-0.163-1.281-0.048c-0.476,1.656-0.995,3.332-1.114,5.031
				C1116.103,425.148,1117.685,425.605,1118.706,426.097z M1105.023,384.21c-3.387,1.771-4.852,6.664-3.486,10.383
				C1102.778,390.896,1103.9,387.553,1105.023,384.21z M1042.286,523.858c2.546,0.036,4.36-1.425,4.161-2.97
				c-0.058-0.448-1.018-1.213-1.361-1.116c-1.459,0.416-3.801-0.275-3.776,2.341
				C1041.317,522.802,1042.064,523.484,1042.286,523.858z M973.148,450.065c-0.108-0.158-0.216-0.317-0.324-0.475
				c-1.392,0.46-2.848,0.786-4.158,1.416c-1.306,0.627-2.509,1.503-3.654,2.4c-0.244,0.191-0.046,0.946-0.052,1.441
				c0.494-0.067,1.044-0.018,1.471-0.224c0.978-0.472,1.938-1.008,2.828-1.628C970.59,452.067,971.855,451.046,973.148,450.065z
				 M990.732,306.844c1.975,4.153,6.556,8.418,8.403,7.998C996.647,312.083,994.687,308.905,990.732,306.844z M1095.789,505.789
				c-5.75,2.977-7.012,4.197-6.542,6.235C1093.712,510.071,1095.791,508.161,1095.789,505.789z M864.897,716.375
				c0.306,0.04,0.612,0.079,0.919,0.119c0.632-1.341,1.496-2.633,1.8-4.045c0.153-0.709-0.712-1.637-1.117-2.465
				c-0.694,0.523-1.928,0.999-1.98,1.58C864.378,713.144,864.737,714.768,864.897,716.375z M1215.111,373.05
				c-1.06,2.245-0.098,5.323,1.935,6.6C1218.585,377.416,1217.896,374.91,1215.111,373.05z M1130.035,425.851
				c-4.871-1.55-2.944,2.655-4.116,4.107c-0.329,0.407-0.05,1.305-0.05,1.977c0.369,0.066,0.737,0.133,1.106,0.199
				C1127.984,430.06,1128.995,427.987,1130.035,425.851z M1039.468,451.082c3.638-2.735,4.869-5.907,3.489-8.81
				C1041.635,445.36,1039.627,447.852,1039.468,451.082z M1032.792,432.686c3.294-2.431,3.196-4.355-0.374-6.988
				c-0.305,0.951-0.967,2.537-0.818,2.617C1033.535,429.359,1032.184,431.186,1032.792,432.686z M1042.67,431.325
				c-2.738,1.553-5.439,8.114-4.328,10.77C1039.844,438.357,1041.167,435.063,1042.67,431.325z M946.551,418.153
				c0-2.885,0-5.517,0-8.698C944.596,411.919,944.782,416.836,946.551,418.153z M1051.341,487.356
				c0.164,0.357,0.329,0.714,0.493,1.071c1.418-0.401,3.025-0.525,4.181-1.311c0.637-0.433,0.517-1.978,0.739-3.022
				c-0.303-0.167-0.606-0.335-0.909-0.502C1054.344,484.847,1052.842,486.101,1051.341,487.356z M1108.637,440.707
				c-3.488,2.554-4.478,5.643-2.67,8.722C1106.97,446.152,1107.803,443.43,1108.637,440.707z M953.274,436.318
				c-3.106,0.927-3.884,2.689-3.572,7.147C953.266,442.261,951.905,438.941,953.274,436.318z M978.164,465.508
				c1.028-1.908,1.997-3.584,2.814-5.332c0.143-0.307-0.237-1.055-0.587-1.334c-0.278-0.221-0.976-0.201-1.319-0.001
				C977.783,459.592,977.121,463.562,978.164,465.508z M1097.276,420.378c-3.09,1.487-4.154,3.226-3.729,5.906
				C1096.364,424.948,1098.048,422.388,1097.276,420.378z M980.877,560.863c-3.353,1.289-5.32,4.704-4.717,8.625
				C977.883,566.339,979.29,563.765,980.877,560.863z M982.16,487.197c0.163,0.186,0.326,0.371,0.49,0.557
				c1.743-0.574,3.114-1.567,3.637-3.722c-0.745-0.216-1.43-0.364-2.073-0.617c-0.56-0.221-1.462-0.891-1.544-0.795
				c-0.536,0.63-0.889,1.415-1.558,2.605c1.261-0.228,1.79-0.324,2.682-0.485C983.096,485.788,982.628,486.493,982.16,487.197z
				 M974.552,302.458c0.157,2.852,3.836,5.948,7.197,5.832C979.441,306.42,977.133,304.55,974.552,302.458z M1071.173,477.279
				c-2.253-0.969-6.703,3.2-7.174,6.439C1066.595,481.388,1068.713,479.487,1071.173,477.279z M951.671,404.554
				c3.472-0.923,5.748-5.175,4.272-7.321C954.463,399.77,953.067,402.162,951.671,404.554z M1118.497,445.233
				c0.142,0.085,0.285,0.169,0.427,0.254c0.434-3.086,0.869-6.172,1.303-9.258c-0.3-0.104-0.601-0.207-0.901-0.311
				c-0.595,1.486-1.554,2.941-1.684,4.466C1117.508,441.965,1118.178,443.614,1118.497,445.233z M1081.292,412.083
				c0.255,0.052,0.51,0.104,0.766,0.156c0.823-0.704,2.602-5.662,2.277-6.482c-0.101-0.256-0.496-0.645-0.611-0.6
				c-0.404,0.157-0.986,0.416-1.069,0.745C1082.135,407.946,1081.733,410.02,1081.292,412.083z M1144.815,486.896
				c-0.293,0.045-0.585,0.09-0.878,0.135c-0.5,1.341-1.121,2.655-1.422,4.04c-0.083,0.38,0.792,0.969,1.228,1.461
				c0.657-1.081,1.538-2.095,1.882-3.267C1145.817,488.61,1145.115,487.694,1144.815,486.896z M968.77,326.796
				c-0.084,0.293-0.168,0.586-0.251,0.879c1.472,0.747,2.916,1.56,4.431,2.206c0.563,0.24,1.293,0.086,1.947,0.112
				c-0.314-0.645-0.482-1.684-0.967-1.862C972.269,327.522,970.498,327.217,968.77,326.796z M951.26,527.141
				c0.913,3.034,1.714,5.697,2.515,8.36c0.279-0.003,0.557-0.007,0.836-0.01c0.191-0.861,0.757-2.339,0.515-2.486
				c-2.121-1.287-1.994-3.499-2.573-5.428C952.505,527.416,952.02,527.386,951.26,527.141z M940.125,395.87
				c-0.358,0.014-0.715,0.028-1.073,0.043c-0.491,0.989-1.081,1.944-1.447,2.977c-0.458,1.294-0.085,2.144,1.48,1.657
				c0.618-0.192,1.623-0.68,1.624-1.036C940.714,398.298,940.349,397.084,940.125,395.87z M964.969,248.532
				c-1.457,0.401-2.727,0.59-3.834,1.121c-0.588,0.282-0.892,1.157-1.324,1.764c0.705,0.228,1.453,0.73,2.108,0.63
				C963.679,251.778,964.542,250.518,964.969,248.532z M966.971,595.011c2.435-0.786,4.311-1.391,6.187-1.997
				c-0.045-0.265-0.09-0.53-0.134-0.796c-1.862,0-3.724,0-5.897,0C967.093,592.833,967.047,593.65,966.971,595.011z
				 M724.426,803.321c-0.165,0.106-0.33,0.212-0.495,0.319c0.232,1.262,0.417,2.535,0.721,3.78c0.111,0.456,0.476,1.164,0.776,1.191
				c0.565,0.051,1.302-0.165,1.711-0.546c0.31-0.289,0.488-1.21,0.267-1.495C726.509,805.412,725.435,804.392,724.426,803.321z
				 M769.307,825.516c-1.466-0.907-2.23-1.688-3.071-1.781c-0.491-0.055-1.573,1.012-1.549,1.536
				c0.034,0.751,0.921,2.12,1.292,2.071C766.898,827.221,767.732,826.446,769.307,825.516z M1099.585,392.267
				c-2.295,1.021-3.04,3.945-1.819,6.881C1099.817,397.111,1099.116,394.646,1099.585,392.267z M996.332,431.374
				c-0.749,2.12-1.37,3.877-1.991,5.633c0.307,0.145,0.614,0.29,0.92,0.435c1.153-1.711,2.307-3.422,3.609-5.355
				C997.861,431.804,997.199,431.618,996.332,431.374z M992.249,469.655c-0.333-0.075-0.665-0.15-0.998-0.225
				c-0.487,3.032-2.56,5.716-2.284,8.914c0.323,0.075,0.647,0.149,0.97,0.224C990.708,475.597,991.478,472.626,992.249,469.655z
				 M999.532,461.779c0.222,0.041,0.444,0.082,0.665,0.123c0.451-2.137,0.902-4.275,1.468-6.957
				C999.17,456.406,998.574,459.119,999.532,461.779z M1061.352,496.976c-3.132-1.765-4.491-0.919-5.426,3.259
				C1057.893,499.054,1059.441,498.124,1061.352,496.976z M944.479,494.534c0.287,0.086,0.575,0.172,0.862,0.258
				c0.694-2.691,1.388-5.382,2.082-8.072c-0.283-0.075-0.567-0.149-0.85-0.224C945.875,489.175,945.177,491.854,944.479,494.534z
				 M1004.043,434.254c-0.102-0.229-0.203-0.458-0.305-0.687c-0.491,0.072-1.223-0.036-1.433,0.245
				c-1.36,1.824-2.605,3.732-3.888,5.613c0.298,0.225,0.597,0.45,0.895,0.674C1000.89,438.151,1002.466,436.202,1004.043,434.254z
				 M1097.225,471.894c2.252-0.825,3.345-2.266,3.25-4.661C1097.932,467.506,1097.001,468.831,1097.225,471.894z M915.129,693.613
				c-1.623,0.051-3.615,2.022-3.404,3.704c0.082,0.652,1.095,1.187,1.624,1.715C914.057,696.876,914.594,695.241,915.129,693.613z
				 M1080.589,432.901c2.684-1.702,3.532-3.76,2.249-5.6C1081.595,428.984,1079.632,430.271,1080.589,432.901z M1046.759,456.442
				c-1.208,2.271-2.181,4.1-3.154,5.929C1047.618,460.164,1048.169,459.099,1046.759,456.442z M923.949,654.54
				c0.858-0.525,1.589-0.878,2.202-1.376c0.527-0.427,0.919-1.02,1.371-1.54c-0.83-0.202-1.767-0.75-2.469-0.535
				C923.534,651.554,922.968,652.708,923.949,654.54z M1135.607,473.98c-1.222,2.521-2.237,4.615-3.375,6.962
				C1134.558,480.668,1136.369,476.881,1135.607,473.98z M1153.503,502.704c-0.093-0.088-0.186-0.177-0.278-0.265
				c-1.13,0.478-2.26,0.956-3.447,1.459c-0.296,1.242-0.612,2.569-1.092,4.584C1150.618,506.164,1152.06,504.434,1153.503,502.704z
				 M893.165,700.515c0.892,0.434,1.631,0.793,2.371,1.152c0.615-1.31,1.229-2.62,1.844-3.931c-0.213-0.078-0.426-0.157-0.64-0.235
				C895.696,698.38,894.653,699.26,893.165,700.515z M954.416,644.134c0.409,0.08,0.817,0.16,1.226,0.24
				c0.256-2.064,0.512-4.127,0.844-6.814C953.356,639.682,954.702,642.078,954.416,644.134z M1034.153,477.783
				c2.799-0.557,3.904-2.653,3.131-5.59C1036.24,474.056,1035.197,475.92,1034.153,477.783z M1179.106,486.319
				c-0.277-0.137-0.555-0.273-0.832-0.409c-0.832,1.525-1.665,3.051-2.497,4.576c0.269,0.146,0.538,0.291,0.807,0.437
				C1178.368,489.887,1179.277,488.388,1179.106,486.319z M1061.092,436.51c-0.271-0.028-0.543-0.056-0.814-0.084
				c-0.452,1.003-1.047,1.973-1.286,3.024c-0.099,0.435,0.568,1.043,0.887,1.572c0.638-0.925,1.411-1.793,1.846-2.805
				C1061.899,437.813,1061.326,437.089,1061.092,436.51z M1105.714,429.736c-2.321,0.457-3.408,3.796-1.971,6.188
				C1104.443,433.725,1105.026,431.897,1105.714,429.736z M1004.944,536.303c0.154,0.229,0.309,0.458,0.463,0.687
				c1.879-0.855,4.694-0.273,5.353-3.976C1008.527,534.276,1006.736,535.289,1004.944,536.303z M957.731,507.634
				c-1.478,3.956-1.222,4.89,1.605,5.564C958.812,511.379,958.364,509.827,957.731,507.634z M1153.174,432.933
				c0,1.692-0.046,2.959,0.032,4.218c0.019,0.312,0.394,0.765,0.69,0.847c0.244,0.067,0.878-0.311,0.884-0.506
				C1154.828,435.986,1155.593,434.246,1153.174,432.933z M1064.382,416.824c-2.095,2.133-2.006,3.459,0.376,5.237
				C1064.632,420.315,1064.507,418.569,1064.382,416.824z M853.528,718.847c0.228-0.273,0.456-0.545,0.684-0.818
				c-0.609-1.123-1.217-2.247-1.826-3.37c-0.26,0.034-0.521,0.067-0.781,0.101c-0.299,0.988-1.067,2.176-0.758,2.906
				C851.124,718.321,852.588,718.473,853.528,718.847z M1094.421,408.569c0.174,0.116,0.349,0.233,0.523,0.349
				c1.438-0.581,2.876-1.162,4.314-1.744c-0.024-0.235-0.047-0.47-0.071-0.705c-1.026-0.119-2.204-0.601-3.034-0.253
				C1095.382,406.541,1094.983,407.75,1094.421,408.569z M1001.023,476.228c0.281,0.269,0.562,0.537,0.843,0.806
				c1.519-1.533,3.038-3.066,4.556-4.598c-0.254-0.241-0.509-0.482-0.763-0.723C1004.114,473.217,1002.569,474.723,1001.023,476.228
				z M984.256,513.655c-0.394-0.036-0.789-0.072-1.183-0.108c0.125,1.915-1.797,3.624-0.736,5.634
				c0.331,0.043,0.662,0.087,0.994,0.13C983.639,517.425,983.948,515.54,984.256,513.655z M1067.817,392.258
				c0.411,0.253,0.821,0.506,1.232,0.759c0.757-1.021,1.554-2.016,2.236-3.084c0.131-0.206-0.106-0.768-0.329-1.035
				c-0.137-0.164-0.754-0.213-0.843-0.089C1069.308,389.931,1068.572,391.102,1067.817,392.258z M994.656,546.092
				c1.343-1.703,2.685-3.406,4.028-5.109c-0.211-0.158-0.421-0.315-0.632-0.473C996.485,542.05,994.173,543.041,994.656,546.092z
				 M902.72,689.57c0.224,0.185,0.448,0.371,0.673,0.556c0.635-0.713,1.269-1.427,1.904-2.14c-0.778-0.668-1.557-1.336-2.335-2.004
				c-0.177,0.179-0.354,0.358-0.531,0.537C902.527,687.537,902.624,688.554,902.72,689.57z M1057.108,509.945
				c2.533,0.254,5.275-1.689,5.699-3.949C1061.041,507.22,1059.026,508.616,1057.108,509.945z M1049.085,435.619
				c0.484-1.41,0.923-2.689,1.361-3.968c-0.474-0.145-0.947-0.29-1.421-0.436c-0.252,1.29-0.505,2.58-0.746,3.872
				C1048.274,435.118,1048.404,435.173,1049.085,435.619z M970.556,581.233c-0.275-0.063-0.549-0.126-0.824-0.189
				c-0.234,1.18-0.604,2.36-0.61,3.542c-0.002,0.313,1.119,0.632,2.087,1.138C970.936,583.849,970.746,582.541,970.556,581.233z
				 M1086.937,491.168c-0.147-0.176-0.294-0.352-0.441-0.528c-1.241,0.726-2.483,1.453-3.724,2.179
				c0.302,0.489,0.604,0.977,0.992,1.605c0.769-0.677,1.335-1.115,1.826-1.624C1086.079,492.293,1086.491,491.715,1086.937,491.168z
				 M1014.888,491.481c2.54-1.032,3.793-3.353,3.422-6.242C1016.996,487.636,1015.942,489.558,1014.888,491.481z M1021.621,473.541
				c0,2.356,0,4.111,0,5.866c0.197,0.04,0.394,0.079,0.591,0.119c0.42-1.702,0.889-3.395,1.18-5.119
				C1023.419,474.239,1022.341,473.884,1021.621,473.541z M989.222,323.607c-1.578-1.265-2.992-2.398-4.432-3.553
				C984.047,322.092,986.406,324.016,989.222,323.607z M771.747,708.993c-0.398-0.255-0.796-0.511-1.194-0.766
				c-0.531,0.845-1.153,1.654-1.524,2.564c-0.082,0.201,0.726,0.764,1.124,1.161C770.685,710.965,771.216,709.979,771.747,708.993z
				 M757.799,742.377c3.096,0.156,4.159-1.509,2.978-3.713C759.735,739.962,758.767,741.169,757.799,742.377z M847.927,315.935
				c0.133-0.206,0.266-0.411,0.399-0.617c-1.111-0.977-2.189-1.998-3.36-2.897c-0.243-0.186-0.831,0.077-1.26,0.133
				c0.062,0.418-0.022,1.075,0.209,1.216C845.21,314.56,846.582,315.226,847.927,315.935z M1063.72,475.475
				c2.654-0.314,4.384-2.134,3.92-4.524C1066.27,472.532,1065.04,473.951,1063.72,475.475z M982.235,320.156
				c0.368-0.579,1.026-1.54,0.99-1.567c-1.179-0.875-2.424-1.66-3.659-2.458c-0.107,0.158-0.213,0.316-0.319,0.475
				C980.157,317.686,981.067,318.768,982.235,320.156z M809.65,275.636c0.733-0.975,1.435-1.537,1.547-2.199
				c0.066-0.39-0.806-0.937-1.255-1.414c-0.583,0.579-1.291,1.087-1.672,1.777C808.154,274.011,808.94,274.719,809.65,275.636z
				 M1039.639,308.628c0.229-0.344,0.457-0.689,0.686-1.033c-1.907-1.082-3.814-2.164-5.722-3.246
				c-0.136,0.22-0.273,0.44-0.409,0.661C1036.009,306.216,1037.824,307.422,1039.639,308.628z M934.615,703.437
				c-0.28-0.202-0.559-0.403-0.839-0.605c-1.162,1.632-2.324,3.263-3.487,4.895c0.298,0.204,0.596,0.408,0.894,0.612
				C932.328,706.705,933.472,705.071,934.615,703.437z M1020.244,441.915c-2.663,1.721-3.093,3.086-1.858,6.083
				C1019.067,445.769,1019.583,444.079,1020.244,441.915z M1089.263,424.892c-0.214-0.175-0.428-0.35-0.642-0.524
				c-1.279,1.536-2.558,3.072-3.837,4.608c0.327,0.25,0.653,0.499,0.98,0.749C1086.93,428.114,1088.096,426.503,1089.263,424.892z
				 M760.237,343.744c0.659,0.864,1.182,1.55,1.705,2.236c0.334-0.636,1.01-1.332,0.912-1.893c-0.116-0.669-0.896-1.223-1.388-1.827
				C761.117,342.682,760.768,343.104,760.237,343.744z M981.452,322.751c-0.116,0.216-0.232,0.431-0.349,0.647
				c0.93,1.626,2.089,2.713,4.951,1.423C984.141,323.96,982.796,323.355,981.452,322.751z M838.404,831.253
				c0.264-0.328,0.528-0.655,0.792-0.983c-0.896-0.767-1.791-1.534-2.687-2.302c-0.309,0.404-0.619,0.807-0.928,1.211
				C836.521,829.871,837.462,830.562,838.404,831.253z M857.888,306.228c-1.201,3.089-0.69,4.306,2.283,5.558
				C859.371,309.839,858.741,308.305,857.888,306.228z M1116.775,454.37c-0.19,1.16-0.381,2.321-0.571,3.481
				c0.42,0.048,1.082,0.288,1.219,0.114C1118.29,456.87,1118.756,455.68,1116.775,454.37z M1067.396,434.403
				c0.255,0.13,0.509,0.26,0.764,0.39c0.925-1.72,1.85-3.441,2.774-5.161c-0.313-0.161-0.626-0.321-0.938-0.482
				C1069.129,430.9,1068.262,432.652,1067.396,434.403z M961.595,518.881c-0.184-0.06-0.368-0.119-0.552-0.179
				c-0.553,1.072-1.194,2.112-1.607,3.236c-0.128,0.349,0.364,0.925,0.573,1.398c0.41-0.277,1.102-0.493,1.177-0.842
				C961.44,521.315,961.476,520.089,961.595,518.881z M952.244,479.152c-0.306-0.229-0.612-0.457-0.919-0.686
				c-0.974,1.527-1.948,3.053-2.922,4.58c0.303,0.199,0.606,0.398,0.91,0.598C950.29,482.147,951.267,480.649,952.244,479.152z
				 M998.896,514.626c2.894-0.929,3.272-1.582,2.616-4.289C1000.498,512.001,999.697,513.314,998.896,514.626z M1072.011,349.093
				c-0.95-0.844-1.435-1.539-2.071-1.728c-0.313-0.093-0.904,0.748-1.37,1.167c0.499,0.484,0.927,1.139,1.524,1.384
				C1070.437,350.057,1071.053,349.531,1072.011,349.093z M824.552,732.122c-0.944-0.76-1.61-1.385-2.379-1.831
				c-0.131-0.076-0.707,0.615-1.077,0.952c0.676,0.694,1.329,1.418,2.071,2.034C823.233,733.333,823.879,732.69,824.552,732.122z
				 M983.328,457.385c-0.24-0.144-0.481-0.287-0.721-0.431c-0.172,0.364-0.449,0.715-0.494,1.093
				c-0.116,0.982-0.153,1.977-0.134,2.965c0.001,0.07,1.026,0.22,1.038,0.177c0.257-0.887,0.486-1.789,0.607-2.704
				C983.671,458.139,983.435,457.754,983.328,457.385z M956.435,549.584c0.67-0.906,1.254-1.37,1.333-1.908
				c0.06-0.411-0.519-0.916-0.814-1.38c-0.56,0.504-1.226,0.94-1.617,1.552C955.219,548.034,955.861,548.705,956.435,549.584z
				 M1072.258,351.917c0.937,3.411,2.856,2.182,4.373,2.223c0.088-0.27,0.175-0.539,0.263-0.809
				C1075.534,352.917,1074.175,352.502,1072.258,351.917z M954.95,612.399c-2.311,1.198-2.302,1.469,0,3.791
				C954.95,614.836,954.95,613.696,954.95,612.399z M1026.872,449.229c0.346-1.386,0.693-2.771,1.155-4.623
				C1025.094,445.766,1025.585,447.391,1026.872,449.229z M980.185,402.24c-0.279-0.097-0.558-0.194-0.837-0.291
				c-0.253,1.376-0.506,2.752-0.759,4.128C981.156,405.234,980.535,403.707,980.185,402.24z M1107.844,432.381
				c0.465,0.113,0.93,0.226,1.395,0.339c0.21-1.251,0.421-2.502,0.631-3.753c-0.37-0.082-0.74-0.163-1.11-0.245
				C1108.454,429.942,1108.149,431.162,1107.844,432.381z M1161.64,412.58c0.137,1.704,0.247,3.077,0.374,4.647
				C1163.621,415.542,1163.553,414.404,1161.64,412.58z M860.446,317.093c0.307-0.25,0.614-0.501,0.922-0.751
				c-1.192-1.324-2.383-2.649-3.575-3.973c-0.243,0.202-0.487,0.404-0.73,0.606C858.19,314.347,859.318,315.72,860.446,317.093z
				 M816.031,338.735c-1.308,2.439-0.024,3.097,2.024,3.243C817.38,340.897,816.706,339.816,816.031,338.735z M1006.144,457.849
				c-0.155-0.048-0.31-0.096-0.465-0.144c-0.74,1.18-1.527,2.335-2.187,3.559c-0.155,0.288,0.118,0.808,0.195,1.221
				c0.385-0.183,1.001-0.276,1.116-0.566C1005.326,460.592,1005.71,459.21,1006.144,457.849z M978.648,678.204
				c-0.426-0.07-0.853-0.14-1.279-0.209c-0.223,1.479-0.446,2.958-0.668,4.437c0.318,0.057,0.637,0.114,0.955,0.171
				C977.987,681.136,978.318,679.67,978.648,678.204z M963.863,526.315c-0.307-0.048-0.614-0.095-0.921-0.143
				c-1.682,1.049-0.132,2.175,0.483,3.303C963.571,528.421,963.717,527.368,963.863,526.315z M959.246,430.568
				c0.361,0.205,0.721,0.41,1.082,0.616c0.66-1.278,1.32-2.556,1.981-3.834c-0.284-0.155-0.567-0.31-0.851-0.464
				C960.721,428.113,959.983,429.34,959.246,430.568z M996.975,474.892c0.382,0.026,0.765,0.052,1.147,0.078
				c0.087-1.427,0.175-2.855,0.262-4.282c-0.38-0.026-0.761-0.052-1.141-0.078C997.154,472.037,997.065,473.464,996.975,474.892z
				 M815.973,733.033c-0.195-0.234-0.39-0.467-0.585-0.701c-0.801,0.553-1.601,1.107-2.402,1.66c0.61,0.551,1.219,1.102,2.114,1.911
				C815.519,734.526,815.746,733.78,815.973,733.033z M929.879,785.859c0.338,0.227,0.677,0.454,1.015,0.68
				c0.688-1.022,1.377-2.044,2.065-3.066c-0.319-0.213-0.637-0.426-0.956-0.639C931.295,783.843,930.587,784.851,929.879,785.859z
				 M977.134,642.379c-0.453,1.395-0.906,2.789-1.359,4.184C978.06,645.778,978.372,644.319,977.134,642.379z M978.276,512.367
				c-0.335-0.156-0.671-0.312-1.006-0.468c-0.48,0.953-0.96,1.906-1.44,2.858c0.398,0.122,1.104,0.417,1.147,0.341
				C977.468,514.221,977.859,513.286,978.276,512.367z M1003.072,512.352c2.609-1.595,2.819-2.235,1.678-4.353
				C1004.11,509.659,1003.591,511.006,1003.072,512.352z M1037.055,480.225c-0.202-0.144-0.405-0.288-0.607-0.433
				c-0.91,1.241-1.819,2.481-2.729,3.722C1035.779,483.091,1037.12,482.155,1037.055,480.225z M936.859,307.952
				c-0.215,0.193-0.43,0.386-0.646,0.58c0.841,0.838,1.682,1.675,2.685,2.674C940.277,308.241,937.716,308.781,936.859,307.952z
				 M916.338,699.307c-0.411-0.077-0.822-0.154-1.233-0.232c-0.155,1.041-0.31,2.082-0.465,3.123
				c0.284,0.059,0.568,0.118,0.852,0.177C915.774,701.353,916.056,700.33,916.338,699.307z M1004.584,489.767
				c-0.45-0.182-0.9-0.365-1.35-0.547c-0.383,1.009-0.766,2.019-1.149,3.028c0.372,0.154,0.744,0.308,1.116,0.462
				C1003.661,491.729,1004.123,490.748,1004.584,489.767z M977.117,313.698c0.131-0.219,0.262-0.439,0.393-0.658
				c-1.378-0.884-2.756-1.768-4.135-2.652c-0.187,0.307-0.374,0.614-0.562,0.921C974.248,312.106,975.682,312.902,977.117,313.698z
				 M909.899,369.202c0.281,0.336,0.563,0.672,0.844,1.008c0.83-0.684,1.659-1.368,2.489-2.053
				c-0.248-0.313-0.497-0.625-0.745-0.938C911.624,367.88,910.761,368.541,909.899,369.202z"/>
			<path fill="#0d1f22" d="M794.901,702.756c-0.145-0.668-0.3-1.335-0.434-2.005c-0.217-1.09-0.468-2.176-0.604-3.276
				c-0.053-0.432,0.091-0.929,0.27-1.343c2.017-4.656,2.305-9.309,0.307-14.08c-1.736-4.145-3.047-8.489-5.039-12.5
				c-1.258-2.533-3.073-5.045-5.251-6.81c-4.386-3.552-9.103-6.721-13.854-9.784c-2.965-1.912-5.29-4.181-6.672-7.44
				c-0.501-1.182-1.139-2.34-1.905-3.368c-1.386-1.863-2.712-3.31-5.678-3.009c-4.279,0.434-8.33-0.802-12.134-3.281
				c-4.26-2.776-8.961-4.876-13.486-7.241c-3.212-1.68-5.152-5.138-3.95-8.47c1.638-4.543,3.633-8.996,5.933-13.24
				c0.742-1.37,3.341-3.058,4.366-2.673c2.096,0.787,4.345,0.361,6.258,1.321c1.128,0.566,2.221,1.405,3.028,2.373
				c4.855,5.82,10.786,10.723,14.699,17.358c0.741,1.256,2.053,2.191,3.155,3.216c3.126,2.91,6.308,5.762,9.393,8.715
				c0.454,0.435,0.502,1.294,0.734,1.946c3.998-0.415,6.591,1.904,9.029,4.541c0.367,0.397,0.791,1.089,1.169,1.076
				c3-0.104,4.643,2.036,5.722,4.111c2.372,4.561,4.55,9.276,6.235,14.128c1.987,5.72,3.542,11.626,2.543,17.83
				c-0.67,4.163-1.401,8.318-1.975,12.495c-0.273,1.988-0.196,4.022-0.369,6.028c-0.099,1.141-0.383,2.267-0.584,3.399
				C795.504,702.767,795.202,702.761,794.901,702.756z M789.826,654.244c1.588-2.334,1.126-3.376-1.919-4.039
				C788.613,651.691,789.142,652.805,789.826,654.244z"/>
			<path fill="#0d1f22" d="M851.415,507.081c1.05,1.111,1.917,2.169,2.93,3.06c1.029,0.906,1.38,3.057,3.821,1.558
				c0.788-0.484,2.899,1.186,4.97,2.128c-1.123,0.409-1.574,0.573-1.972,0.718c0.646,0.972,1.264,1.902,1.882,2.831
				c-0.144,0.201-0.288,0.401-0.432,0.602c-0.732-0.11-1.537-0.061-2.18-0.362c-1.457-0.681-2.791-1.165-4.323-0.106
				c-0.368,0.255-1.285,0.06-1.761-0.234c-9.403-5.807-19.859-8.554-30.576-10.475c-3.158-0.566-6.392-0.72-9.594-1.024
				c-5.285-0.501-7.636,3.221-5.422,9.021c0.054,0.142,0.261,0.233,0.298,0.373c2.668,9.982,11.125,13.462,19.332,17.222
				c0.584,0.268,1.171,0.53,2.069,0.935c-0.614,1.246-1.336,2.394-1.74,3.646c-0.248,0.767-0.009,1.692,0.012,2.546
				c0.731-0.293,1.461-0.586,2.457-0.985c3.138,1.038,3.224,0.979,4.209-3.465c4.262,1.215,8.544,2.332,12.736,3.722
				c0.827,0.274,1.755,1.579,1.797,2.449c0.032,0.662-1.17,1.824-1.99,2.005c-2.745,0.607-5.558,1.144-8.359,1.221
				c-7.744,0.211-15.509,0.507-23.097-1.707c-3.109-0.907-5.293-2.707-6.421-5.727c-1.244-3.332-2.499-6.663-3.609-10.04
				c-0.903-2.75-0.137-5.219,1.631-7.466c0.429-0.546,0.893-1.456,0.728-2.019c-2.198-7.497-7.025-12.585-14.386-15.215
				c-3.889-1.389-7.981-2.472-10.856-5.654c-1.652-1.828-3.259-3.888-4.193-6.132c-1.904-4.573,0.82-7.992,5.728-7.522
				c1.098,0.105,2.168,0.573,3.235,0.924c3.516,1.155,7.042,2.282,10.531,3.514c4.789,1.692,9.655,3.227,14.295,5.267
				c8.176,3.594,16.205,7.523,24.301,11.301c0.803,0.375,1.615,0.807,2.469,0.981c1.483,0.301,2.503,0.817,3.354,2.311
				C844.946,510.19,848.575,510.109,851.415,507.081z"/>
			<path fill="#0d1f22" d="M760.191,471.295c0.423,0.371,1.491,0.883,1.859,1.707c1.599,3.589,3.029,7.255,4.419,10.932
				c0.169,0.447-0.275,1.125-0.434,1.696c-0.49-0.158-1.205-0.161-1.435-0.496c-2.301-3.367-4.71-6.685-6.691-10.238
				C756.859,473.015,757.956,471.3,760.191,471.295z"/>
			<path fill="#0d1f22" d="M941.124,438.323c-1.809-2.075-1.35-3.882-0.799-5.635c0.113-0.361,0.799-0.542,1.221-0.806
				c0.176,0.4,0.544,0.826,0.495,1.197C941.833,434.667,941.502,436.24,941.124,438.323z"/>
			<path fill="#0d1f22" d="M831.479,533.716c0.953,0.34,1.907,0.679,3.495,1.245c-0.98,0.832-1.607,1.366-2.235,1.899
				c-0.643-0.83-1.287-1.66-1.93-2.49C831.032,534.152,831.255,533.934,831.479,533.716z"/>
		</g>
	</g>
</g>
</svg>
