<?xml version="1.0" encoding="utf-8"?>
<!-- Generator: Adobe Illustrator 18.0.0, SVG Export Plug-In . SVG Version: 6.00 Build 0)  -->
<!DOCTYPE svg PUBLIC "-//W3C//DTD SVG 1.1//EN" "http://www.w3.org/Graphics/SVG/1.1/DTD/svg11.dtd">
<svg version="1.1" xmlns="http://www.w3.org/2000/svg" xmlns:xlink="http://www.w3.org/1999/xlink" x="0px" y="0px"
	 viewBox="0 0 1434 521" enable-background="new 0 0 1434 521" xml:space="preserve">
<g id="Layer_1_xA0_Image_1_" display="none">
	<image display="inline" overflow="visible" width="500" height="250" id="Layer_1_xA0_Image" xlink:href="B3643447.png" >
	</image>
</g>
<g id="Layer_0_xA0_Image_1_">
	<g>
		<polygon fill="#FFFFFF" points="137.594,200.146 166.087,285 109.41,285 		"/>
	</g>
	<g>
		<path fill="#FFFFFF" d="M280.026,332H254V181h26.495c18.375,0,30.484,3.909,40.035,15.803
			C330.075,208.684,333,224.121,333,247.162v11.991c-1,22.211-3.285,41.148-12.939,53.08C310.407,324.172,298.298,332,280.026,332z"
			/>
	</g>
	<g>
		<path fill="#FFFFFF" d="M366,154.063v34.279c0-0.116,1.551-0.225,1.486-0.341c-8.689-15.164-19.566-25.027-34.369-33.477
			C317.388,145.545,300.422,143,280.495,143H207v132.848L159.239,142h-43.289L44,323.25V154.063C44,122.069,73.336,100,105.33,100
			h205.956C343.273,100,366,122.069,366,154.063z"/>
	</g>
	<g>
		<path fill="#FFFFFF" d="M207,370v-1h-12.575l-15.723-46h-81.9l-15.569,46H47.688c2.903,30,27.605,53,57.642,53h205.956
			C343.273,422,366,392.013,366,360.019v-43.013c0,0.084,1.583,0.161,1.538,0.245c-8.521,14.822-19.302,28.527-34.009,36.952
			C317.754,363.233,300.789,370,280.965,370h-36.873H207z"/>
	</g>
</g>
<g id="AkshatDhabi">
	<text transform="matrix(1 0 0 1 410.6875 314.8905)" fill="#FFFFFF" font-family="'Roboto'" font-size="190.9339" font-weight="lighter">AkshatDhabi</text>
</g>
</svg>
