<?xml version="1.0" encoding="utf-8"?>
<!-- Generator: Adobe Illustrator 18.0.0, SVG Export Plug-In . SVG Version: 6.00 Build 0)  -->
<!DOCTYPE svg PUBLIC "-//W3C//DTD SVG 1.1//EN" "http://www.w3.org/Graphics/SVG/1.1/DTD/svg11.dtd">
<svg version="1.1" id="Layer_1" xmlns="http://www.w3.org/2000/svg" xmlns:xlink="http://www.w3.org/1999/xlink" x="0px" y="0px"
	 viewBox="0 0 500 500" enable-background="new 0 0 500 500" xml:space="preserve">
<g>
	<polygon fill="#e2c044" points="165.039,173.842 200.686,280 129.779,280 	"/>
</g>
<g>
	<path fill="#e2c044" d="M343.231,339H310V150h33.819c22.989,0,37.885,4.908,49.834,19.789C405.594,184.653,409,203.982,409,232.809
		v15.001c0,27.788-3.857,51.505-15.935,66.434C380.987,329.18,366.091,339,343.231,339z"/>
</g>
<g>
	<path fill="#e2c044" d="M451,116.336v42.885c0-0.145,1.836-0.282,1.755-0.427c-10.87-18.971-24.531-31.058-43.05-41.63
		C390.026,105.932,368.748,103,343.819,103H252v165.697L192.118,102H137.96L48,328V116.336C48,76.309,84.647,49,124.674,49H382.34
		C422.359,49,451,76.309,451,116.336z"/>
</g>
<g>
	<path fill="#e2c044" d="M252,386v-1h-15.861l-19.671-58H114.005l-19.478,58H52.56c3.631,37,34.535,66,72.114,66H382.34
		c40.019,0,68.66-36.971,68.66-76.998V320.19c0,0.105,1.876,0.201,1.82,0.306c-10.661,18.544-24.2,35.445-42.599,45.986
		C390.485,377.779,369.207,386,344.407,386h-46.13H252z"/>
</g>
</svg>
